<svg id="Capa_1" data-name="Capa 1" xmlns="http://www.w3.org/2000/svg" xmlns:xlink="http://www.w3.org/1999/xlink" viewBox="0 0 493.93 493.96"><defs><style>.cls-1{fill:url(#linear-gradient);}.cls-2{fill:url(#linear-gradient-2);}.cls-3{fill:url(#linear-gradient-3);}.cls-4{fill:url(#linear-gradient-4);}.cls-5{fill:url(#linear-gradient-5);}.cls-6{fill:url(#linear-gradient-6);}.cls-7{fill:url(#linear-gradient-7);}.cls-8{fill:url(#linear-gradient-8);}.cls-9{fill:url(#linear-gradient-9);}.cls-10{fill:url(#linear-gradient-10);}.cls-11{fill:url(#linear-gradient-11);}.cls-12{fill:url(#linear-gradient-12);}.cls-13{fill:url(#linear-gradient-13);}.cls-14{fill:url(#linear-gradient-14);}.cls-15{fill:url(#linear-gradient-15);}.cls-16{fill:#82c424;}</style><linearGradient id="linear-gradient" x1="238.96" y1="58.96" x2="254.96" y2="58.96" gradientUnits="userSpaceOnUse"><stop offset="0" stop-color="#fff"/><stop offset="0.1" stop-color="#cfcfcf"/><stop offset="0.23" stop-color="#999"/><stop offset="0.37" stop-color="#6a6a6a"/><stop offset="0.5" stop-color="#444"/><stop offset="0.63" stop-color="#262626"/><stop offset="0.76" stop-color="#111"/><stop offset="0.88" stop-color="#040404"/><stop offset="1"/></linearGradient><linearGradient id="linear-gradient-2" x1="422.96" y1="246.96" x2="438.96" y2="246.96" xlink:href="#linear-gradient"/><linearGradient id="linear-gradient-3" x1="415.56" y1="185.59" x2="436.46" y2="185.59" gradientTransform="translate(103.49 -148.94) rotate(22.51)" xlink:href="#linear-gradient"/><linearGradient id="linear-gradient-4" x1="374.79" y1="125.92" x2="397.42" y2="125.92" gradientTransform="translate(202.12 -236.14) rotate(45)" xlink:href="#linear-gradient"/><linearGradient id="linear-gradient-5" x1="315.97" y1="86.01" x2="336.87" y2="86.01" gradientTransform="translate(280.92 -248.47) rotate(67.49)" xlink:href="#linear-gradient"/><linearGradient id="linear-gradient-6" x1="75.57" y1="185.58" x2="96.47" y2="185.58" gradientTransform="translate(224.54 35.08) rotate(67.5)" xlink:href="#linear-gradient"/><linearGradient id="linear-gradient-7" x1="114.58" y1="125.89" x2="137.21" y2="125.89" gradientTransform="translate(125.89 -52.15) rotate(45)" xlink:href="#linear-gradient"/><linearGradient id="linear-gradient-8" x1="175.15" y1="86" x2="196.06" y2="86" gradientTransform="translate(47.06 -64.5) rotate(22.51)" xlink:href="#linear-gradient"/><linearGradient id="linear-gradient-9" x1="238.96" y1="434.96" x2="254.96" y2="434.96" xlink:href="#linear-gradient"/><linearGradient id="linear-gradient-10" x1="415.54" y1="326.4" x2="436.45" y2="326.4" gradientTransform="translate(564.51 -192.08) rotate(67.5)" xlink:href="#linear-gradient"/><linearGradient id="linear-gradient-11" x1="374.76" y1="386.08" x2="397.39" y2="386.08" gradientTransform="translate(386.08 -159.92) rotate(45)" xlink:href="#linear-gradient"/><linearGradient id="linear-gradient-12" x1="315.97" y1="426" x2="336.88" y2="426" gradientTransform="translate(187.94 -92.51) rotate(22.51)" xlink:href="#linear-gradient"/><linearGradient id="linear-gradient-13" x1="75.56" y1="326.42" x2="96.47" y2="326.42" gradientTransform="translate(131.51 -8.06) rotate(22.51)" xlink:href="#linear-gradient"/><linearGradient id="linear-gradient-14" x1="114.56" y1="386.06" x2="137.19" y2="386.06" gradientTransform="translate(309.86 24.07) rotate(45)" xlink:href="#linear-gradient"/><linearGradient id="linear-gradient-15" x1="175.15" y1="426.01" x2="196.05" y2="426.01" gradientTransform="translate(508.11 91.47) rotate(67.49)" xlink:href="#linear-gradient"/></defs><title>branding</title><path d="M376,335a31.85,31.85,0,0,0,24-30.82c0-13,5.89-30.63,14.66-43.78a8,8,0,0,0,0-8.88C405.89,238.41,400,220.82,400,207.78A31.79,31.79,0,0,0,376,177V160a8,8,0,0,0-8-8H351.2A40.08,40.08,0,0,0,312,120c-24.46,0-42.71-7.32-48.84-19.58-2.71-5.42-11.61-5.42-14.32,0C242.71,112.68,224.46,120,200,120a40.08,40.08,0,0,0-39.2,32H144a8,8,0,0,0-8,8v17a31.85,31.85,0,0,0-24,30.82c0,13-5.89,30.63-14.66,43.78a8,8,0,0,0,0,8.88c8.77,13.15,14.66,30.74,14.66,43.78A31.79,31.79,0,0,0,136,335v17a8,8,0,0,0,8,8h16.8A40.08,40.08,0,0,0,200,392c27.75,0,42.51.82,48.41,18.53a8,8,0,0,0,15.18,0C269.49,392.82,284.25,392,312,392a40.08,40.08,0,0,0,39.2-32H368a8,8,0,0,0,8-8Zm-8-15a8,8,0,0,0-8,8v16H344a8,8,0,0,0-8,8,24,24,0,0,1-24,24c-21.29,0-43.16,0-56,15.39C243.16,376,221.29,376,200,376a24,24,0,0,1-24-24,8,8,0,0,0-8-8H152V328a8.19,8.19,0,0,0-8.22-8A15.8,15.8,0,0,1,128,304.22c0-14.71-5.62-33.12-14.55-48.22,8.93-15.1,14.55-33.51,14.55-48.22A15.85,15.85,0,0,1,144,192a8,8,0,0,0,8-8V168h16a8,8,0,0,0,8-8,24,24,0,0,1,24-24c24.81,0,44.47-6.59,56-18.42C267.53,129.41,287.19,136,312,136a24,24,0,0,1,24,24,8,8,0,0,0,8,8h16v16a8.19,8.19,0,0,0,8.22,8A15.8,15.8,0,0,1,384,207.78c0,14.71,5.62,33.12,14.55,48.22C389.62,271.1,384,289.51,384,304.22A15.85,15.85,0,0,1,368,320Z" transform="translate(-9.04 -9.04)"/><rect class="cls-1" x="238.96" y="46.96" width="16" height="24"/><rect x="449.36" y="31.98" width="45.26" height="16" transform="translate(100.94 336.42) rotate(-45)"/><rect x="454.96" y="238.96" width="32" height="16"/><rect x="238.96" y="6.96" width="16" height="24"/><rect class="cls-2" x="422.96" y="238.96" width="16" height="16"/><rect class="cls-3" x="418.01" y="177.59" width="16" height="16" transform="translate(-47.63 168.18) rotate(-22.51)"/><rect x="398.39" y="89.6" width="32" height="16" transform="translate(43.32 312.57) rotate(-45)"/><rect class="cls-4" x="378.1" y="117.92" width="16" height="16" transform="translate(15.01 300.86) rotate(-45)"/><rect class="cls-5" x="318.42" y="78.01" width="16" height="16" transform="translate(112.97 345.61) rotate(-67.49)"/><rect x="446.04" y="157.68" width="56" height="16" transform="translate(-36.35 185.05) rotate(-22.51)"/><rect x="318.31" y="29.97" width="56" height="16" transform="translate(169.63 334.33) rotate(-67.49)"/><rect x="32" y="17.37" width="16" height="45.26" transform="translate(-25.61 30.97) rotate(-45)"/><rect x="6.96" y="238.96" width="32" height="16"/><rect x="54.96" y="238.96" width="16" height="16"/><rect class="cls-6" x="78.02" y="177.58" width="16" height="16" transform="translate(-127.38 184.98) rotate(-67.5)"/><rect x="89.64" y="81.61" width="16" height="32" transform="translate(-49.46 88.59) rotate(-45)"/><rect class="cls-7" x="117.89" y="117.89" width="16" height="16" transform="translate(-61.18 116.86) rotate(-45)"/><rect class="cls-8" x="177.6" y="78" width="16" height="16" transform="translate(-27.82 68.56) rotate(-22.51)"/><rect x="29.97" y="137.69" width="16" height="56" transform="translate(-138.68 128.32) rotate(-67.5)"/><rect x="157.69" y="9.97" width="16" height="56" transform="translate(-10.95 57.26) rotate(-22.5)"/><rect class="cls-9" x="238.96" y="422.96" width="16" height="24"/><rect x="463.99" y="449.36" width="16" height="45.26" transform="translate(-204.54 462.95) rotate(-45)"/><rect x="238.96" y="462.96" width="16" height="24"/><rect class="cls-10" x="418" y="318.4" width="16" height="16" transform="translate(-47.63 586.01) rotate(-67.5)"/><rect x="406.39" y="398.39" width="16" height="32" transform="translate(-180.68 405.36) rotate(-45)"/><rect class="cls-11" x="378.07" y="378.08" width="16" height="16" transform="translate(-168.96 377.04) rotate(-45)"/><rect class="cls-12" x="318.42" y="418" width="16" height="16" transform="translate(-147.25 148.37) rotate(-22.51)"/><rect x="466.02" y="318.37" width="16" height="56" transform="translate(-36.42 642.72) rotate(-67.5)"/><rect x="338.32" y="446.06" width="16" height="56" transform="translate(-164.09 159.58) rotate(-22.5)"/><rect x="17.42" y="464" width="45.26" height="16" transform="translate(-331.06 157.52) rotate(-45)"/><rect class="cls-13" x="78.01" y="318.42" width="16" height="16" transform="translate(-127.44 48.75) rotate(-22.51)"/><rect x="81.64" y="406.39" width="32" height="16" transform="translate(-273.46 181.38) rotate(-45)"/><rect class="cls-14" x="117.87" y="378.06" width="16" height="16" transform="translate(-245.16 193.05) rotate(-45)"/><rect class="cls-15" x="177.6" y="418.01" width="16" height="16" transform="translate(-288.05 425.36) rotate(-67.49)"/><rect x="9.97" y="338.32" width="56" height="16" transform="translate(-138.72 31.88) rotate(-22.51)"/><rect x="137.66" y="466.02" width="56" height="16" transform="translate(-344.7 436.56) rotate(-67.49)"/><path class="cls-16" d="M334.26,210.82a8,8,0,0,0-7.79-4l-44.92,4.89-18.23-41.34a8,8,0,0,0-14.64,0l-18.23,41.34-44.92-4.89a8,8,0,0,0-7.32,12.68L204.9,256l-26.69,36.46a8,8,0,0,0,7.32,12.68l44.92-4.89,18.23,41.34a8,8,0,0,0,14.64,0l18.23-41.34,44.92,4.89a8,8,0,0,0,7.32-12.68L307.1,256l26.69-36.46A8,8,0,0,0,334.26,210.82Zm-43.53,40.45a8,8,0,0,0,0,9.46l19.43,26.54-32.71-3.56a8,8,0,0,0-8.18,4.73L256,318.54l-13.27-30.1a8,8,0,0,0-7.32-4.78,8.43,8.43,0,0,0-.86,0l-32.71,3.56,19.43-26.54a8,8,0,0,0,0-9.46l-19.43-26.54,32.71,3.56a8.08,8.08,0,0,0,8.18-4.73L256,193.46l13.27,30.1a8.05,8.05,0,0,0,8.18,4.73l32.71-3.56Z" transform="translate(-9.04 -9.04)"/></svg>