<svg id="Слой_1" data-name="Слой 1" xmlns="http://www.w3.org/2000/svg" xmlns:xlink="http://www.w3.org/1999/xlink" viewBox="0 0 2245.22 2000"><defs><style>.cls-1{mask:url(#mask);}.cls-10,.cls-2,.cls-4,.cls-6,.cls-8{mix-blend-mode:multiply;}.cls-2{fill:url(#linear-gradient);}.cls-3{mask:url(#mask-2);}.cls-4{fill:url(#linear-gradient-2);}.cls-5{mask:url(#mask-3);}.cls-6{fill:url(#linear-gradient-3);}.cls-7{mask:url(#mask-4);}.cls-8{fill:url(#linear-gradient-4);}.cls-9{mask:url(#mask-5);}.cls-10{fill:url(#linear-gradient-5);}.cls-11{fill:#fff;}.cls-12{fill:#82c424;}.cls-13{fill:#fafafa;}.cls-14{fill:#97a43c;}.cls-15{fill:#bbd070;}.cls-16{fill:#48753a;}.cls-17{mask:url(#mask-6);}.cls-18{fill:#2d2d2d;}.cls-19{mask:url(#mask-7);}.cls-20{fill:#c2c2c2;}.cls-21{fill:#d6d6d6;}.cls-22{fill:#e8e8e8;}.cls-23{fill:#0e2d3d;}.cls-24{fill:#285173;}.cls-25{fill:#eea886;}.cls-26{fill:#1d3b54;}.cls-27{fill:#eddad3;}.cls-28{fill:#d6c5be;}.cls-29{fill:#fae6de;}.cls-30{fill:#eb4747;}.cls-31{fill:url(#linear-gradient-6);}.cls-32{fill:#eea987;}.cls-33{fill:#a77860;}.cls-34{fill:#e2d2ca;}.cls-35{fill:#f2e2d9;}.cls-36{fill:#ccbdb7;}.cls-37{fill:#948a84;}.cls-38{fill:#feb755;}.cls-39{fill:#ead8cf;}.cls-40{fill:#da9b5b;}.cls-41{fill:#292c47;}.cls-42{fill:#3a3f47;}.cls-43{fill:#323657;}.cls-44{fill:#918783;}.cls-45{fill:#5e5854;}.cls-46{fill:#f5f7ff;}.cls-47{fill:#dfe1e8;}.cls-48{mask:url(#mask-8);}.cls-49{fill:url(#linear-gradient-7);}.cls-50{fill:url(#linear-gradient-8);}.cls-51{fill:url(#linear-gradient-9);}.cls-52{fill:url(#linear-gradient-10);}.cls-53{fill:url(#linear-gradient-11);}.cls-54{fill:url(#linear-gradient-12);}.cls-55{fill:url(#linear-gradient-13);}.cls-56{fill:url(#linear-gradient-14);}.cls-57{fill:url(#linear-gradient-15);}.cls-58{fill:#3f446e;}.cls-59{fill:#e8734d;}.cls-60{fill:#cfbeb8;}.cls-61{fill:#494f80;}.cls-62{fill:#6a77bf;}.cls-63{fill:#252740;}.cls-64{fill:#3d426b;}.cls-65{fill:#6395bf;opacity:0.16;}.cls-66{fill:#d88a51;}.cls-67{fill:#315496;}.cls-68{fill:#4373cf;}.cls-69{fill:#cfbeb6;}.cls-70{fill:#23263d;}.cls-71{fill:#548ad1;}.cls-72{fill:#e2e3ed;}.cls-73{fill:#aab1e0;}.cls-74{fill:#dbd8e3;}.cls-75{fill:#1d2033;}.cls-76{fill:#434343;}.cls-77{fill:#c4c1cc;}.cls-78{fill:#754836;}.cls-79{fill:#cf8c6c;}.cls-80{fill:#db9c7c;}.cls-81{fill:url(#linear-gradient-16);}.cls-82{fill:#8cd5f9;}.cls-83{mask:url(#mask-9);}.cls-84{mask:url(#mask-10);}.cls-85{filter:url(#luminosity-noclip-10);}.cls-86{filter:url(#luminosity-noclip-9);}.cls-87{filter:url(#luminosity-noclip-8);}.cls-88{filter:url(#luminosity-noclip-7);}.cls-89{filter:url(#luminosity-noclip-6);}.cls-90{filter:url(#luminosity-noclip-5);}.cls-91{filter:url(#luminosity-noclip-4);}.cls-92{filter:url(#luminosity-noclip-3);}.cls-93{filter:url(#luminosity-noclip-2);}.cls-94{filter:url(#luminosity-noclip);}</style><filter id="luminosity-noclip" x="1457.96" y="-9192" width="14.11" height="32766" filterUnits="userSpaceOnUse" color-interpolation-filters="sRGB"><feFlood flood-color="#fff" result="bg"/><feBlend in="SourceGraphic" in2="bg"/></filter><mask id="mask" x="1457.96" y="-9192" width="14.11" height="32766" maskUnits="userSpaceOnUse"><g class="cls-94"/></mask><linearGradient id="linear-gradient" x1="1465.02" y1="826.77" x2="1465.02" y2="1050.01" gradientUnits="userSpaceOnUse"><stop offset="0"/><stop offset="0.99" stop-color="#fff"/></linearGradient><filter id="luminosity-noclip-2" x="974.62" y="-9192" width="50.17" height="32766" filterUnits="userSpaceOnUse" color-interpolation-filters="sRGB"><feFlood flood-color="#fff" result="bg"/><feBlend in="SourceGraphic" in2="bg"/></filter><mask id="mask-2" x="974.62" y="-9192" width="50.17" height="32766" maskUnits="userSpaceOnUse"><g class="cls-93"/></mask><linearGradient id="linear-gradient-2" x1="-5523.18" y1="-1100.36" x2="-5523.18" y2="-877.13" gradientTransform="translate(6522.96 2265.25)" xlink:href="#linear-gradient"/><filter id="luminosity-noclip-3" x="1042.91" y="-9192" width="844.23" height="32766" filterUnits="userSpaceOnUse" color-interpolation-filters="sRGB"><feFlood flood-color="#fff" result="bg"/><feBlend in="SourceGraphic" in2="bg"/></filter><mask id="mask-3" x="1042.91" y="-9192" width="844.23" height="32766" maskUnits="userSpaceOnUse"><g class="cls-92"/></mask><linearGradient id="linear-gradient-3" x1="1291.15" y1="2061.67" x2="1807.18" y2="278.78" xlink:href="#linear-gradient"/><filter id="luminosity-noclip-4" x="1020.05" y="-9192" width="844.23" height="32766" filterUnits="userSpaceOnUse" color-interpolation-filters="sRGB"><feFlood flood-color="#fff" result="bg"/><feBlend in="SourceGraphic" in2="bg"/></filter><mask id="mask-4" x="1020.05" y="-9192" width="844.23" height="32766" maskUnits="userSpaceOnUse"><g class="cls-91"/></mask><linearGradient id="linear-gradient-4" x1="-1.28" y1="-3460.24" x2="514.75" y2="-5243.13" gradientTransform="translate(1614.76 -3521.93) rotate(180)" xlink:href="#linear-gradient"/><filter id="luminosity-noclip-5" x="170.98" y="-9192" width="844.23" height="32766" filterUnits="userSpaceOnUse" color-interpolation-filters="sRGB"><feFlood flood-color="#fff" result="bg"/><feBlend in="SourceGraphic" in2="bg"/></filter><mask id="mask-5" x="170.98" y="-9192" width="844.23" height="32766" maskUnits="userSpaceOnUse"><g class="cls-90"/></mask><linearGradient id="linear-gradient-5" x1="419.22" y1="1679.42" x2="935.24" y2="-103.47" xlink:href="#linear-gradient"/><filter id="luminosity-noclip-6" x="1457.96" y="978.29" width="14.11" height="48.47" filterUnits="userSpaceOnUse" color-interpolation-filters="sRGB"><feFlood flood-color="#fff" result="bg"/><feBlend in="SourceGraphic" in2="bg"/></filter><mask id="mask-6" x="1457.97" y="978.29" width="14.11" height="48.47" maskUnits="userSpaceOnUse"><g class="cls-89"><g transform="translate(0)"><g class="cls-1"><rect class="cls-2" x="1457.96" y="978.29" width="14.11" height="48.47"/></g></g></g></mask><filter id="luminosity-noclip-7" x="974.62" y="1324.73" width="50.17" height="31.61" filterUnits="userSpaceOnUse" color-interpolation-filters="sRGB"><feFlood flood-color="#fff" result="bg"/><feBlend in="SourceGraphic" in2="bg"/></filter><mask id="mask-7" x="974.62" y="1324.73" width="50.17" height="31.61" maskUnits="userSpaceOnUse"><g class="cls-88"><g transform="translate(0)"><g class="cls-3"><rect class="cls-4" x="992.65" y="1316.3" width="14.11" height="48.47" transform="translate(-621.67 1749.92) rotate(-67.46)"/></g></g></g></mask><linearGradient id="linear-gradient-6" x1="-10947.84" y1="1461.62" x2="-11106.78" y2="1431.54" gradientTransform="matrix(-1, 0, 0, 1, -9776.04, 0)" gradientUnits="userSpaceOnUse"><stop offset="0" stop-color="#ff9f55"/><stop offset="1" stop-color="#ffd255"/></linearGradient><filter id="luminosity-noclip-8" x="1042.91" y="1038.81" width="844.23" height="844.26" filterUnits="userSpaceOnUse" color-interpolation-filters="sRGB"><feFlood flood-color="#fff" result="bg"/><feBlend in="SourceGraphic" in2="bg"/></filter><mask id="mask-8" x="1042.91" y="1038.81" width="844.23" height="844.26" maskUnits="userSpaceOnUse"><g class="cls-87"><g transform="translate(0)"><g class="cls-5"><path class="cls-6" d="M1465,1038.81c-233.24,0-422.12,188.81-422.12,422.15,0,232.52,188.26,422.11,422.12,422.11,233.41,0,422.11-189,422.11-422.11C1887.14,1227.73,1698.36,1038.81,1465,1038.81Zm0,823.07c-220.54,0-401-179.31-401-400.92,0-221.11,179.86-401,401-401s401,179.85,401,401C1866,1683.42,1684.81,1861.88,1465,1861.88Z"/></g></g></g></mask><linearGradient id="linear-gradient-7" x1="1449.21" y1="1175.44" x2="1449.21" y2="1337.78" gradientUnits="userSpaceOnUse"><stop offset="0" stop-color="#97f2fc"/><stop offset="1" stop-color="#57f"/></linearGradient><linearGradient id="linear-gradient-8" x1="1449.07" y1="1175.32" x2="1449.07" y2="1337.84" xlink:href="#linear-gradient-7"/><linearGradient id="linear-gradient-9" x1="1449.07" y1="1175.44" x2="1449.07" y2="1337.78" xlink:href="#linear-gradient-7"/><linearGradient id="linear-gradient-10" x1="1486.67" y1="1175.44" x2="1486.67" y2="1337.78" gradientTransform="translate(1243.21 -716.65) rotate(45)" xlink:href="#linear-gradient-7"/><linearGradient id="linear-gradient-11" x1="1411.47" y1="1175.44" x2="1411.47" y2="1337.78" gradientTransform="translate(1221.18 -663.47) rotate(45)" xlink:href="#linear-gradient-7"/><linearGradient id="linear-gradient-12" x1="1433.03" y1="1175.43" x2="1433.03" y2="1337.78" gradientTransform="translate(323.04 -294.34) rotate(13.2)" xlink:href="#linear-gradient-7"/><linearGradient id="linear-gradient-13" x1="1465.11" y1="1175.43" x2="1465.11" y2="1337.78" gradientTransform="translate(2345.53 -463.31) rotate(76.79)" xlink:href="#linear-gradient-7"/><linearGradient id="linear-gradient-14" x1="1475.19" y1="1175.44" x2="1475.19" y2="1337.78" xlink:href="#linear-gradient-7"/><linearGradient id="linear-gradient-15" x1="1449.07" y1="1175.44" x2="1449.07" y2="1337.78" xlink:href="#linear-gradient-7"/><linearGradient id="linear-gradient-16" x1="1728.17" y1="710.6" x2="1675.32" y2="547.12" gradientTransform="matrix(1, 0, 0, 1, 0, 0)" xlink:href="#linear-gradient-6"/><filter id="luminosity-noclip-9" x="1020.05" y="116.9" width="844.23" height="844.26" filterUnits="userSpaceOnUse" color-interpolation-filters="sRGB"><feFlood flood-color="#fff" result="bg"/><feBlend in="SourceGraphic" in2="bg"/></filter><mask id="mask-9" x="1020.05" y="116.9" width="844.23" height="844.26" maskUnits="userSpaceOnUse"><g class="cls-86"><g transform="translate(0)"><g class="cls-7"><path class="cls-8" d="M1442.16,961.16c233.24,0,422.11-188.81,422.11-422.15,0-232.52-188.26-422.11-422.11-422.11-233.41,0-422.11,189-422.11,422.11C1020.05,772.24,1208.83,961.16,1442.16,961.16Zm0-823.07c220.54,0,401,179.31,401,400.92,0,221.11-179.85,401-401,401s-401-179.86-401-401C1041.2,316.55,1222.37,138.09,1442.16,138.09Z"/></g></g></g></mask><filter id="luminosity-noclip-10" x="170.98" y="656.56" width="844.23" height="844.27" filterUnits="userSpaceOnUse" color-interpolation-filters="sRGB"><feFlood flood-color="#fff" result="bg"/><feBlend in="SourceGraphic" in2="bg"/></filter><mask id="mask-10" x="170.98" y="656.56" width="844.23" height="844.27" maskUnits="userSpaceOnUse"><g class="cls-85"><g transform="translate(0)"><g class="cls-9"><path class="cls-10" d="M593.09,656.56C359.85,656.56,171,845.38,171,1078.71c0,232.53,188.26,422.11,422.11,422.11,233.41,0,422.11-189,422.11-422.11C1015.2,845.48,826.42,656.56,593.09,656.56Zm0,823.07c-220.54,0-401-179.31-401-400.92,0-221.11,179.85-401,401-401s401,179.85,401,401C994.05,1301.17,812.88,1479.63,593.09,1479.63Z"/></g></g></g></mask></defs><title>customer-journey</title><rect class="cls-11" width="2245.22" height="2000"/><path class="cls-12" d="M1339.47,1084.79a154.48,154.48,0,0,0,9.62-42l28.34-10.85-5.48-32.5-5.48-32.5-30.32-1a154.28,154.28,0,0,0-22.85-36.51l12.36-27.68-26.85-19.11L1272,863.59l-22.11,20.74a154.4,154.4,0,0,0-42-9.62L1197,846.38l-32.5,5.47L1132,857.33l-1,30.32a154.28,154.28,0,0,0-36.51,22.85l-27.68-12.36L1047.76,925l-19.11,26.86L1049.4,974a154.42,154.42,0,0,0-9.63,42l-28.33,10.85,5.48,32.5,5.47,32.5,30.32,1a154.6,154.6,0,0,0,22.85,36.51l-12.36,27.68,26.86,19.11,26.85,19.11,22.1-20.74a154.47,154.47,0,0,0,42,9.62l10.84,28.33,32.5-5.47,32.5-5.48,1-30.32a154.28,154.28,0,0,0,36.51-22.85L1322,1160.6l19.1-26.85,19.11-26.86Zm-191.89,10.42a80.81,80.81,0,1,1,112.69-19A80.81,80.81,0,0,1,1147.58,1095.21Z" transform="translate(0)"/><path class="cls-12" d="M1090.54,833.5a81.82,81.82,0,0,0,5.13-22.35l15.08-5.78-2.91-17.3-2.92-17.31-16.14-.51a82.05,82.05,0,0,0-12.17-19.44l6.58-14.74-14.3-10.17-14.29-10.18-11.77,11a82.25,82.25,0,0,0-22.36-5.13l-5.77-15.08-17.31,2.91-17.3,2.92-.51,16.15a82,82,0,0,0-19.44,12.16l-14.74-6.58-10.18,14.3-10.17,14.3,11,11.77A82.17,82.17,0,0,0,931,796.84l-15.09,5.77,2.92,17.31,2.91,17.3,16.15.51A82.11,82.11,0,0,0,950,857.18l-6.58,14.73,14.29,10.18L972,892.26l11.77-11a82.25,82.25,0,0,0,22.35,5.12l5.78,15.09,17.3-2.92,17.31-2.91.51-16.15a82,82,0,0,0,19.44-12.16l14.74,6.58,10.18-14.3,10.17-14.3Zm-102.17,5.55a43,43,0,1,1,60-10.11A43,43,0,0,1,988.37,839.05Z" transform="translate(0)"/><circle class="cls-13" cx="593.09" cy="1078.69" r="402.61" transform="translate(-589.04 735.32) rotate(-45)"/><path class="cls-14" d="M1737.41,469.32c143,115.25,269,16.72,269,16.72-43.61-3.69-77.36-39.41-137.3-60.89S1708.38,445.92,1737.41,469.32Z" transform="translate(0)"/><rect class="cls-14" x="1855.55" y="397.19" width="59.17" height="1.1" transform="matrix(0.55, -0.84, 0.84, 0.55, 521.6, 1758.87)"/><path class="cls-14" d="M1961.11,399.42c-13.52,8.11-37,18.31-72.38,20.91-34,2.5-60.14,5.81-82.37,10.42-27.55,5.71-48.74,13.41-64.78,23.51l.58.93c36.61-23.06,97.6-30.16,146.65-33.76,35.59-2.62,59.3-12.92,72.92-21.1,14.8-8.89,21.27-17.29,21.33-17.38l-.88-.66C1982.12,382.37,1975.75,390.64,1961.11,399.42Z" transform="translate(0)"/><path class="cls-14" d="M1982.75,382.09c-30.36-7.48-59-10.62-85.48-9.41a214.64,214.64,0,0,0-39.19,5.3c-1,.23-2,.48-3,.73a190.67,190.67,0,0,0-18.29,5.56,178.94,178.94,0,0,0-25.5,11.47,176.79,176.79,0,0,0-22.92,14.92q-3.9,3-7.65,6.19c-1.59,1.34-3.15,2.73-4.69,4.14-3.63,3.33-7,6.71-10.2,10.09-.74.79-1.46,1.58-2.18,2.37A197.81,197.81,0,0,0,1751,448.9c-.5.68-1,1.35-1.47,2-.9,1.26-1.78,2.51-2.62,3.73-2.92,4.28-5.48,8.35-7.67,12.1-.65,1.11-1.27,2.18-1.85,3.23s-1.08,1.93-1.57,2.85a154.89,154.89,0,0,0-11.21,25.33l-.92,3,1.88-2.5c.07-.1,6.89-9,26.49-17.93l.57-.25q2.55-1.16,5.51-2.33c3.94-1.59,8.44-3.19,13.52-4.73q4.41-1.35,9.44-2.63A265.59,265.59,0,0,1,1811.8,465a389.3,389.3,0,0,1,48.87-3.12,190.35,190.35,0,0,0,31.94-2.71q6.87-1.19,13.32-2.92a130.45,130.45,0,0,0,19.71-6.95,105.48,105.48,0,0,0,37-27.16c16.85-19.5,20.45-39.22,20.49-39.42l.08-.5Zm-20.91,39.31a100.55,100.55,0,0,1-23.92,20.11c-.33.21-.66.4-1,.6a123.78,123.78,0,0,1-32.42,13.31q-5.71,1.5-12,2.62a187.68,187.68,0,0,1-31.81,2.73,393.87,393.87,0,0,0-48.88,3.09q-9.39,1.23-18.08,2.93c-4.34.85-8.55,1.79-12.6,2.83-3.2.8-6.31,1.67-9.32,2.59q-7.47,2.25-14.16,5-2.85,1.14-5.55,2.35l-1,.48c-14,6.48-21.39,12.79-24.49,15.93a171.83,171.83,0,0,1,10.27-22.58c.46-.87,1-1.76,1.47-2.68.71-1.26,1.45-2.56,2.25-3.9,2-3.41,4.31-7.08,6.92-10.91,1.34-2,2.78-4,4.29-6.07.48-.66,1-1.32,1.48-2a195.58,195.58,0,0,1,12.65-15.15c.45-.49.91-1,1.38-1.46,3-3.15,6.14-6.29,9.52-9.38q1.92-1.77,4-3.52c2.17-1.87,4.43-3.74,6.81-5.59a178,178,0,0,1,23.76-15.6,180.67,180.67,0,0,1,24.8-11.22,187.65,187.65,0,0,1,22.76-6.76,215,215,0,0,1,37.36-5.17c1.29-.07,2.59-.13,3.89-.18l1.35,0q3.72-.14,7.56-.13a275.76,275.76,0,0,1,32.8,2l1.1.14a339.09,339.09,0,0,1,38.72,7.17l.34.09c-.08.36-.21.91-.39,1.63A93.09,93.09,0,0,1,1961.84,421.4Z" transform="translate(0)"/><rect class="cls-14" x="1918.71" y="393.25" width="38.44" height="1.1" transform="translate(1094.38 2182.4) rotate(-76.24)"/><rect class="cls-14" x="1922.95" y="411.82" width="1.1" height="37.26" transform="translate(373.92 1648.62) rotate(-50.79)"/><path class="cls-15" d="M1679.57,187.81s24.53,57.06,2.83,105.46c-46.05,102.67-11.14,89.44-11.14,89.44s29.55,68.62,76.7-15.34S1679.57,187.81,1679.57,187.81Z" transform="translate(0)"/><path class="cls-14" d="M1781.17,508.48s-22.1-70,79.23-212.44,11.79-233.95,11.79-233.95C1610.84,284.94,1781.17,508.48,1781.17,508.48Z" transform="translate(0)"/><path class="cls-16" d="M1808,279.85c-74.07,51-108.73,201.44-58,187.45,250.08-68.9,241-294.7,241-294.7C1950.82,219.58,1882,228.82,1808,279.85Z" transform="translate(0)"/><circle class="cls-13" cx="1442.16" cy="539.03" r="402.61" transform="translate(41.25 1177.64) rotate(-45)"/><g class="cls-17"><rect class="cls-18" x="1457.97" y="978.29" width="14.11" height="48.47"/></g><g class="cls-19"><rect class="cls-18" x="992.65" y="1316.3" width="14.11" height="48.47" transform="translate(-621.67 1749.92) rotate(-67.46)"/></g><path class="cls-20" d="M1772.66,518c-6.09-8.07-10.06-12.51-10.1-12.55l3-2.72c.16.18,4.11,4.59,10.32,12.82Z" transform="translate(0)"/><path class="cls-20" d="M854.35,1652.75c-10.22-1.48-21-3.59-32-6.27l1-4c10.9,2.65,21.54,4.73,31.64,6.19ZM791,1637.56c-10.2-3.32-20.5-7.07-30.6-11.16l1.53-3.78c10,4.05,20.21,7.77,30.33,11.07Zm-60.37-24.39c-9.85-4.78-19.53-9.91-28.77-15.25l2-3.53c9.17,5.29,18.76,10.37,28.52,15.12Zm-56.35-32.62c-9.15-6.28-17.91-12.87-26-19.59l2.59-3.14c8,6.64,16.7,13.16,25.75,19.37Zm-50.08-41.63a255.46,255.46,0,0,1-21.35-24.7l3.24-2.46a254.07,254.07,0,0,0,21,24.31Zm-39.05-52.17a178.67,178.67,0,0,1-12.82-30.09l3.89-1.23a174.69,174.69,0,0,0,12.52,29.39Zm-19.54-62.1a156.85,156.85,0,0,1-.84-16.21,161.23,161.23,0,0,1,.86-16.52l4,.42a158.72,158.72,0,0,0-.83,16.1,154.32,154.32,0,0,0,.81,15.79ZM576,1361l-3.91-1.16A210,210,0,0,1,584,1329.37l3.68,1.76A205,205,0,0,0,576,1361Zm26.66-58.39-3.54-2c5.48-9.65,11.22-19,17-27.7l3.4,2.26C613.77,1283.79,608.09,1293,602.65,1302.6Zm35.85-53.51-3.19-2.53c6.88-8.66,14.09-16.9,21.45-24.51l2.93,2.83C652.43,1232.39,645.3,1240.54,638.5,1249.09ZM683.23,1203l-2.61-3.13a278.4,278.4,0,0,1,26.22-19.37l2.22,3.41A276.8,276.8,0,0,0,683.23,1203ZM737,1168l-1.8-3.66a282,282,0,0,1,30-12.65l1.36,3.84A276.66,276.66,0,0,0,737,1168Zm533.75-.56c-7.15,0-14.84-.09-22.4-.29l.1-4.08c7.54.2,15.23.34,22.3.3,3.34,0,6.69,0,10-.07l.06,4.08Q1275.78,1167.46,1270.74,1167.46Zm42.57-1.21-.24-4.07c10.92-.64,21.75-1.55,32.19-2.7l.44,4.06C1335.2,1164.69,1324.29,1165.61,1313.31,1166.25Zm-97.42-.48c-10.32-.6-21.22-1.39-32.38-2.35l.34-4.06c11.13,1,22,1.74,32.28,2.35Zm-64.7-5.44q-16.18-1.71-32.25-3.63l.48-4q16,1.9,32.2,3.63Zm226.72-1.27-.67-4c10.68-1.8,21.33-3.93,31.64-6.33l.93,4C1399.41,1155.1,1388.68,1157.25,1377.91,1159.06Zm-291.18-6.32-32.18-4,.51-4,32.18,4.06Zm-289.29-6.3-1-4c10.24-2.46,21-4.51,32-6.11l.59,4C818.21,1142,807.56,1144,797.44,1146.44Zm225-1.68q-16.2-1.9-32.19-3.54l.42-4q16,1.62,32.25,3.54Zm418.84-.49-1.18-3.9c10.3-3.13,20.58-6.63,30.54-10.41l1.45,3.81C1462,1137.58,1451.63,1141.12,1441.24,1144.27ZM958,1138.34c-11.41-.87-22-1.49-32.27-1.91l.16-4.07c10.36.42,21,1,32.42,1.92Zm-96.83-1.3-.27-4.07c10.34-.71,21.27-1.1,32.49-1.18l0,4.07C882.27,1135.94,871.42,1136.34,861.15,1137ZM1502,1121.18l-1.7-3.7q4.35-2,8.71-4.13,10.37-5,20.32-10.1l1.84,3.63q-10,5.08-20.37,10.14Q1506.45,1119.15,1502,1121.18Zm57.89-29.39-1.94-3.59c9.55-5.18,19-10.52,28.17-15.85l2.06,3.52C1579,1081.22,1569.52,1086.58,1559.93,1091.79Zm56-32.74-2.17-3.45c9.23-5.8,18.33-11.76,27-17.7l2.3,3.37C1634.39,1047.24,1625.25,1053.22,1616,1059.05Zm53.61-36.63-2.44-3.27c8.77-6.53,17.33-13.22,25.45-19.88l2.58,3.15C1687,1009.12,1678.4,1015.85,1669.59,1022.42Zm50.18-41.25-2.75-3c8.06-7.36,15.87-14.91,23.19-22.43l2.92,2.84C1735.75,966.15,1727.89,973.76,1719.77,981.17ZM1765,934.54l-3.11-2.64c7.07-8.32,13.78-16.83,19.95-25.31l3.3,2.4C1778.94,917.55,1772.16,926.15,1765,934.54Zm38.18-52.65-3.49-2.11c5.62-9.28,10.79-18.79,15.38-28.27l3.67,1.77C1814.13,862.88,1808.89,872.5,1803.21,881.89Zm28.24-58.62-3.83-1.4a295.17,295.17,0,0,0,9.32-30.77l4,1A301.74,301.74,0,0,1,1831.45,823.27ZM1846.84,760l-4-.52a286,286,0,0,0,2.26-32.07l4.08.06A289.51,289.51,0,0,1,1846.84,760Zm-3.1-64.72a307.25,307.25,0,0,0-4.76-31.83l4-.81a315.61,315.61,0,0,1,4.82,32.24Zm-12.71-63c-3.08-10.09-6.73-20.3-10.84-30.33l3.77-1.55c4.15,10.15,7.85,20.48,11,30.69Zm-24.32-59.61c-4.88-9.53-10.22-19-15.88-28.06l3.47-2.15c5.7,9.18,11.1,18.72,16,28.35Z" transform="translate(0)"/><path class="cls-20" d="M887.66,1655.35v-4.08a138.49,138.49,0,0,0,16-.87l.47,4A146.55,146.55,0,0,1,887.66,1655.35Z" transform="translate(0)"/><polygon class="cls-21" points="1012.6 1668.43 920.56 1663.78 944.53 1649.89 1012.6 1668.43"/><polygon class="cls-22" points="1012.6 1668.43 972.76 1643.73 953.9 1652.44 1012.6 1668.43"/><polygon class="cls-20" points="941.72 1664.85 944.77 1674.65 1012.6 1668.43 941.72 1664.85"/><polygon class="cls-21" points="1108.43 243.52 1016.39 238.87 1040.36 224.97 1108.43 243.52"/><polygon class="cls-22" points="1108.43 243.52 1068.59 218.81 1049.73 227.53 1108.43 243.52"/><polygon class="cls-20" points="1037.55 239.94 1040.6 249.74 1108.43 243.52 1037.55 239.94"/><path class="cls-20" d="M1265.3,1229.37l-4-.86a251,251,0,0,0,4-32.07l4.07.28A253.26,253.26,0,0,1,1265.3,1229.37Zm.63-65.33c-.31-10.91-1.16-21.79-2.51-32.32l4-.52a327.93,327.93,0,0,1,2.54,32.72Zm-8.39-64.17A268.26,268.26,0,0,0,1248,1069l3.81-1.43a271.92,271.92,0,0,1,9.66,31.39Zm-22.88-60.32a226.71,226.71,0,0,0-17.3-27.25l3.27-2.42a229.48,229.48,0,0,1,17.62,27.73Zm-38.35-51.7A230.46,230.46,0,0,0,1172,966.66l2.46-3.25A233.2,233.2,0,0,1,1199.2,985ZM1145,948.92a282.82,282.82,0,0,0-29-14.34l1.6-3.75A288,288,0,0,1,1147,945.38Zm-59.34-25.54q-5.07-1.59-10.34-3.08-10.41-2.94-20.94-6.08l1.17-3.91q10.5,3.13,20.87,6.06c3.56,1,7,2,10.47,3.13Zm-62.48-18.88c-10.42-3.38-20.84-6.89-31-10.45l1.35-3.84c10.1,3.54,20.49,7,30.88,10.42Zm-61.66-21.66c-10.23-3.89-20.44-7.93-30.36-12l1.55-3.77c9.89,4.07,20.06,8.09,30.26,12ZM901.12,858c-10-4.49-20-9.13-29.65-13.79l1.78-3.67c9.58,4.65,19.52,9.27,29.53,13.73Zm-58.85-28.57c-9.73-5.14-19.36-10.47-28.62-15.82l2-3.53c9.21,5.33,18.8,10.63,28.48,15.74Zm-56.59-32.78c-9.32-5.93-18.47-12.05-27.18-18.19l2.35-3.33c8.66,6.1,17.75,12.18,27,18.08Zm-53.43-37.73c-8.71-6.87-17.16-13.93-25.1-21l2.7-3c7.89,7,16.27,14,24.93,20.84Zm-48.83-43.54c-7.78-7.93-15.2-16.07-22-24.21l3.12-2.63c6.78,8.06,14.13,16.13,21.83,24ZM641.35,665.2c-6.37-9.05-12.29-18.35-17.58-27.64l3.54-2c5.23,9.18,11.08,18.37,17.37,27.31ZM609,608.28a295.33,295.33,0,0,1-11.47-30.66l3.89-1.22a290.94,290.94,0,0,0,11.31,30.24Zm-19.42-62.45a291.94,291.94,0,0,1-4.26-32.48l4.07-.3a286,286,0,0,0,4.2,32Zm-.8-65.13-4.08-.14a326.93,326.93,0,0,1,2.83-32.68l4,.56A321.23,321.23,0,0,0,588.82,480.7Zm8.71-64.11-4-.94a290.71,290.71,0,0,1,9.31-31.43l3.83,1.38A287.07,287.07,0,0,0,597.53,416.59Zm22-60.6-3.62-1.87a232.56,232.56,0,0,1,17-28.07l3.33,2.36A227.07,227.07,0,0,0,619.55,356Zm37.27-52.43-2.94-2.82a226.29,226.29,0,0,1,24.42-22l2.5,3.22A222.12,222.12,0,0,0,656.82,303.56ZM707.62,264l-2-3.53A273.92,273.92,0,0,1,735,245.73l1.6,3.75A267.45,267.45,0,0,0,707.62,264ZM767,238.36l-1.2-3.9c10.15-3.13,20.84-5.88,31.76-8.19l.84,4C787.57,232.54,777,235.26,767,238.36Zm225.19-8.9c-4.12-.81-15.48-2.88-32.11-4.81l.47-4.05c16.77,1.94,28.26,4,32.42,4.86Zm-161.79-4.62-.53-4c10.57-1.38,21.55-2.41,32.62-3.08l.25,4.07C851.73,222.45,840.85,223.48,830.37,224.84Zm97.31-3c-10.87-.64-21.8-1-32.49-1v-4.08c10.77,0,21.77.36,32.72,1Z" transform="translate(0)"/><circle class="cls-13" cx="1465.02" cy="1460.94" r="402.61" transform="translate(-603.94 1463.82) rotate(-45)"/><path class="cls-23" d="M1255.07,1251.49s22.77,11.14,17.14,41.44-8.12,34.39-1.82,46.23,13.73,62.34,8.06,71.92-70.16-42.07-79.1-85.4,5.67-62.6,10.83-69.78S1235,1241.29,1255.07,1251.49Z" transform="translate(0)"/><path class="cls-24" d="M1261.38,1360.88s11.59,2.35,18.1,11.94c4.52,6.66,4.89,21.47,5.54,24.26s9.3,34.34,9.3,34.34l-24.14,16.18Z" transform="translate(0)"/><path class="cls-25" d="M1339.53,1864.17c-7.25-2.22-14.38-4.66-21.48-7.28-3.86-7.86-8.49-17.8-13.11-28.36-11-25.12-21.85-53.7-21.85-65.75,0-32.19-23.81-74.24-26.9-81.41-28.51-66.92-22.9-87.38-26.62-91.71s-4.07,2.66-6.22,12.3-6.85,92.84-9.65,103.4-.62,46.28-2.15,64.26c0,.51-.11,1.06-.14,1.68-.48,5.46-1.24,14.78-2.15,25.56-10.52-8.09-20.75-16.68-30.58-25.74-.15-.15-.33-.29-.48-.44-.47-5.68-.76-10.38-.8-13.54,0-1.79-.07-3.65-.11-5.58,0-3.82-.11-7.82-.14-11.86-.26-17.7-.55-35.9-1-42.78-5.75-88.8-19.88-101.47,2.4-164.31,41.69-117.64,100.52-8.81,100.52-8.81s13.55,62.87,16.64,78.71,11.8,92.55,12.74,105.58,14.09,62.19,13.48,66.85c-.37,2.8,6.73,37.64,12.48,65.06C1336.4,1849.5,1338.25,1858.09,1339.53,1864.17Z" transform="translate(0)"/><path class="cls-26" d="M1188.27,1506.2s-38.52,53.91-21.93,168.59c0,0,91.36,12.42,140.3-14.38,0,0-20.24-118.23-27.57-136.63S1188.27,1506.2,1188.27,1506.2Z" transform="translate(0)"/><path class="cls-27" d="M1240,1353s14.2,6.7,19.12,7.68,24.05,25.82,27.4,34.89,0,22.66-6.9,38.63-.39,21.28-3.55,37.25-5.91,49.77-5.32,58.63-79.72,10.55-98-5.61c0,0,18.43-27.6,20.79-31.54s.39-25.42-1.77-30.94-16.6-52.45-16.6-52.45-11.81-36-1.14-44.32c9.26-7.2,34.51-9.76,39-11.34S1230.7,1351.64,1240,1353Z" transform="translate(0)"/><path class="cls-28" d="M1244.5,1384.65l8.62-10.1-7.49-26.58S1243.12,1362.77,1244.5,1384.65Z" transform="translate(0)"/><path class="cls-25" d="M1246.74,1336.64s-.39,3.56-.85,8.48c-.2,2.18-.42,4.63-.62,7.15-.58,7.17-1,14.93-.77,18.88,0,0-14.75,14.78-31.52-17.25,0,0,7.06-13.2,1.74-31.19S1246.74,1336.64,1246.74,1336.64Z" transform="translate(0)"/><polygon class="cls-25" points="1244.5 1371.15 1244.5 1384.65 1227.53 1371.97 1244.5 1371.15"/><polygon class="cls-28" points="1244.5 1384.65 1237.45 1375.93 1213.72 1352.27 1206.04 1359.67 1244.5 1384.65"/><path class="cls-24" d="M1210.42,1354.54s19.92,30.22,20.87,43.53-7.4,112.82-14.09,144.81-55-3.61-55-3.61,32.49-52.57,20-94.67-17-58.93-17-58.93,4.29-23.44,19.49-26.74C1198,1356,1210.42,1354.54,1210.42,1354.54Z" transform="translate(0)"/><path class="cls-24" d="M1287.79,1399.63s3.59,12.71-10.4,40.81c0,0,.22,36,.61,47.19s8.34,51.63,8.34,51.63l-19.12,10.19a3.91,3.91,0,0,1-5.85-3.84c3.92-32.33,16.67-155-10.88-187.93l11.06,3.26S1281.18,1377,1287.79,1399.63Z" transform="translate(0)"/><polygon class="cls-29" points="1253.12 1374.55 1263.99 1377.56 1245.63 1347.97 1253.12 1374.55"/><polygon class="cls-29" points="1237.45 1375.93 1227.53 1388.94 1207.15 1354.97 1213.72 1352.27 1237.45 1375.93"/><rect class="cls-30" x="1264.62" y="1422.83" width="3.59" height="42.49" transform="translate(-622.81 1097.65) rotate(-38.36)"/><path class="cls-25" d="M1250.19,1458.08a7.66,7.66,0,0,0,4.17-1.2c2.86-2.15,3.89-7.46,8.94-7.08s7.39,16.22,6.12,19.21-8.27,4.5-18.63,2.43S1250.19,1458.08,1250.19,1458.08Z" transform="translate(0)"/><path class="cls-25" d="M1261.57,1449.91a158,158,0,0,1,15.63-4.28c7.34-1.59,16.12-2.11,17-.84,1,1.42-7.15,2.65-14.35,4.69-6.63,1.88-5,2.58-5,2.58s-.43-.23,7.13-.93c8.14-.76,16.52-.75,17.34.88.41.79.12,1.32-2.81,2.07,1.77-.08,2,.37,2.08,1.08.35,3.67-11.52,6.58-16.23,7.74,3.62-.87,6.36-1.13,5.06,1.32-1.5,2.81-18.43,6.21-24.4,8C1256.42,1474.14,1261.57,1449.91,1261.57,1449.91Z" transform="translate(0)"/><path class="cls-24" d="M1187.49,1359.47c-5-1.62-19.64,3.58-22.12,18.6s-3.46,31.69-5.77,39.78-8.2,43.93-3.25,46.9,14.33,5.69,27.48,5.69c13.59,0,66.26,2.36,66.26,2.36l3.3-18.71s-20-1-30.37-2.61c-9.22-1.39-22-5.32-37.07-7,0,0,3.19-22.2,5.5-28.47S1209.94,1366.73,1187.49,1359.47Z" transform="translate(0)"/><polygon class="cls-25" points="1283.83 1455.53 1286.3 1461.55 1281.01 1457.76 1283.83 1455.53"/><polygon class="cls-31" points="1254.81 1486.91 1307.86 1476.39 1347.21 1392.19 1290.58 1398.14 1254.81 1486.91"/><path class="cls-25" d="M1314.48,1462.1a43.62,43.62,0,0,0,5.5-6.48c2.59-3.78,11.06-18.22,10.29-19.12s-13.36-1.21-15.64.84,2.24,2.86,2.24,2.86-6.88.71-6.39,2.65,4.64,1.4,4.64,1.4-5.54,1.07-4.7,2.77,3.5,1.69,3.5,1.69-4.91.61-4.3,2.48,8.37,3.62,7.33,5.17A36.8,36.8,0,0,0,1314.48,1462.1Z" transform="translate(0)"/><path class="cls-32" d="M1251.77,1254.85s33.06,10.39,15.11,67.45-63.1-6.61-58.38-41.38S1251.77,1254.85,1251.77,1254.85Z" transform="translate(0)"/><path class="cls-23" d="M1270.26,1288.14s-16.43,16.13-43.92,18.14c0,0-10.57,12.39-11.38,17.25,0,0-24.53-41.81,5.62-66.88S1281.35,1277.81,1270.26,1288.14Z" transform="translate(0)"/><path class="cls-32" d="M1226.67,1307.42c-.21-4.16-2.77-13.61-8.94-11s.37,21.89,4.47,20.71C1222.2,1317.17,1227.17,1317.24,1226.67,1307.42Z" transform="translate(0)"/><path class="cls-33" d="M1245.89,1345.12c-.2,2.18-.42,4.63-.62,7.15h0c-19.12-9.44-22-23-22.13-23.47C1236.75,1346.4,1245.89,1345.12,1245.89,1345.12Z" transform="translate(0)"/><rect class="cls-34" x="1552.9" y="1586.7" width="107.34" height="6.37" transform="translate(3213.13 3179.77) rotate(180)"/><path class="cls-35" d="M1645.86,1609.65v232.93c-3.13,1.5-6.26,3-9.43,4.34V1609.65Z" transform="translate(0)"/><rect class="cls-36" x="1495.08" y="1584.89" width="74.61" height="9.1" transform="translate(3064.78 3178.88) rotate(180)"/><rect class="cls-36" x="1518.26" y="1507.25" width="28.25" height="85.82" transform="translate(3064.78 3100.32) rotate(180)"/><rect class="cls-37" x="1285.35" y="1593.18" width="413.4" height="16.48" transform="translate(2984.09 3202.83) rotate(180)"/><path class="cls-38" d="M1778.08,1493.45s4.52,63.41-7.87,71c-7.76,4.76-38.7,20.79-37.78,23.8S1749.9,1615,1749.9,1615s59.44-39.14,61.35-51.47c1.88-12.06-2.92-92.84-11.09-96.56-6.12-2.79-9.35-.49-17.06,5.24C1772.28,1480.23,1778.08,1493.45,1778.08,1493.45Z" transform="translate(0)"/><path class="cls-39" d="M1669.75,1511.55l-5.23-1.93s6.53-15.34,9.38-15a70.08,70.08,0,0,1,7.39,1.52Z" transform="translate(0)"/><path class="cls-40" d="M1668.56,1514.2c.67-.5,11.13-20.58,11.13-20.58l22.37,3L1690,1520.44Z" transform="translate(0)"/><path class="cls-41" d="M1789,1701.58a50.52,50.52,0,0,1-13.44,12.74c-17.62,11.07-39,6.08-63.49,2.37-31.13-4.74-61.68,6.33-104.46,5.27l-2,114.47-.4,22.87q-17.7,6.27-36,10.88c-.4-6.19-1-13.51-1.6-21.59-4.7-58.87-14-158.48-6.19-163.21,11.32-6.85,101.83-29.39,118.51-32s90.61-15.11,90.61-15.11c15.88,4.81,18.1,45,18.35,58.73C1789,1699.87,1789,1701.58,1789,1701.58Z" transform="translate(0)"/><path class="cls-41" d="M1803.51,1654.25l-23.37,54.28-4.7,10.92c-1.68.19-3.24.4-4.7.59-11.76,1.45-18.6,2.33-35,1.92l-.8,35.14-.66,28.94q-5.89,4.92-12,9.58c-.8.62-1.61,1.24-2.41,1.82q-5.79,4.47-11.79,8.66c-4.92,3.46-9.87,6.85-14.89,10.05-.66-7.93-1.35-16.16-2-24.39-4-50.9-7.24-103-1.63-106.38C1700.15,1679,1778.9,1659.16,1803.51,1654.25Z" transform="translate(0)"/><path class="cls-25" d="M1736.5,1361.2s-27.09-7.49-37.43,13.55-5.65,60.9,8,64.66,33.3-.57,39-13.66,10.19-31.7,8.83-43.74S1743.7,1364.08,1736.5,1361.2Z" transform="translate(0)"/><path class="cls-25" d="M1714.15,1435.21s.3,16-1.46,19.41,37.73,2.55,37.73,2.55-6.23-19.21-2.7-35.57C1751.22,1405.4,1714.15,1435.21,1714.15,1435.21Z" transform="translate(0)"/><path class="cls-42" d="M1749.85,1415.54s-2.11,4.29-12.33,3.6-23.71-13-28-14.13-4.59-3.57-4.59-3.57l-2.3,4.08-4.45.68s3-12.36-3.56-16.71,3-39.41,36.3-31c0,0,25.44,4.66,25.78,18.86S1754.79,1408,1749.85,1415.54Z" transform="translate(0)"/><path class="cls-38" d="M1710.61,1454.21s.11-6.52,3.06-7.15,31-4.48,34.67-3.06l1.56,8.6S1742.92,1456.9,1710.61,1454.21Z" transform="translate(0)"/><path class="cls-25" d="M1702.48,1398.53c.76-5.34,6.83-11.48,10.31-3.16s-2.35,20.43-6.25,19.78S1701.45,1405.77,1702.48,1398.53Z" transform="translate(0)"/><path class="cls-43" d="M1593,1531.19h0C1592.8,1531.27,1592.77,1531.28,1593,1531.19Z" transform="translate(0)"/><path class="cls-42" d="M1744.4,1365s33-1.55,5.77,50Z" transform="translate(0)"/><path class="cls-44" d="M1720,1746.72v50.72q-5.79,4.47-11.79,8.66v-59.38Z" transform="translate(0)"/><rect class="cls-45" x="1679.25" y="1740.74" width="69.61" height="6.65" transform="translate(3428.11 3488.13) rotate(180)"/><path class="cls-34" d="M1795.32,1723.82c-4.55,5.75-9.32,11.4-14.24,16.93H1643.57a12.44,12.44,0,0,1-12.42-12.45V1728a12.43,12.43,0,0,1,12.42-12.41h140.06A12.43,12.43,0,0,1,1795.32,1723.82Z" transform="translate(0)"/><path class="cls-35" d="M1347.65,1609.65v257c-2.7-.81-5.43-1.61-8.12-2.45-.44-.14-.84-.25-1.28-.4V1609.65Z" transform="translate(0)"/><rect class="cls-35" x="1410.4" y="1376.48" width="243.97" height="172.11" rx="12.41" transform="translate(3064.78 2925.07) rotate(180)"/><rect class="cls-46" x="1419.96" y="1385.79" width="224.86" height="135.84" transform="translate(3064.78 2907.41) rotate(180)"/><path class="cls-26" d="M1481.88,1593.4v-3.07s4.31-19,34.77-19,29.84,22.12,29.84,22.12Z" transform="translate(0)"/><path class="cls-25" d="M1546.85,1574.11s-6.61-.51-9-2-16.92-11.22-20.33-9.66-26.08,8.51-25.29,11.82,2.89,3,4.48,2.41,18.07-4,19.52-3.46c0,0-16.17,5.9-16.24,10.21s3.39,5.35,4.92,7,3.38,5.67,7.54,6,24.5-6.77,28.69-7.09,11.93.26,12.46-.42S1546.85,1574.11,1546.85,1574.11Z" transform="translate(0)"/><path class="cls-38" d="M1667.31,1463.24c21.1-3.71,43.3-9,43.3-9l39.29-1.6s36.06,7.94,50.26,14.36c1.35.6,1.35,32.16,5,40.44l-11.77,24.84s-6.81,49.2-8.22,71.08c-.64,10,1.84,97.09,1.84,97.09s-3.53,1.74-30.35,4.7-93.81-1.07-94.23-4.24,13-117.93,13.56-123.87c.92-9.12-2.63-51.27-2.63-51.27-5.05,6.79-17.93,37.43-31.36,52-7.89,8.58-47,13.84-54.37,14.09-16,.53-45.31,3.72-46.17,2.17-.68-.94-2.55-26-.71-26.6,1.61-.53,56-3.66,69.88-11.05,5.09-2.7,20.32-35.91,20.32-35.91S1655.67,1468.46,1667.31,1463.24Z" transform="translate(0)"/><path class="cls-34" d="M1834.57,1564.28v101q-9.12,16.56-19.85,32.23a21.46,21.46,0,0,1-4,.36h-65.93a23.87,23.87,0,0,1-23.89-23.88V1564.28a23.85,23.85,0,0,1,23.89-23.88h65.93A23.85,23.85,0,0,1,1834.57,1564.28Z" transform="translate(0)"/><path class="cls-34" d="M1741,1734.47c16.76,0,30.36-5.63,40.42-16.74,22.73-25.1,18.65-69.22,18.46-71.09a6.33,6.33,0,1,0-12.59,1.25c0,.5,3.67,40.49-15.27,61.37-7.67,8.45-17.81,12.55-31,12.55a6.33,6.33,0,1,0,0,12.66Z" transform="translate(0)"/><rect class="cls-47" x="1563.01" y="1396.61" width="65.87" height="7.18" rx="1.78" transform="translate(3191.89 2800.39) rotate(180)"/><rect class="cls-47" x="1563.01" y="1412" width="65.87" height="7.18" rx="1.78" transform="translate(3191.89 2831.17) rotate(180)"/><rect class="cls-47" x="1563.01" y="1429.65" width="65.87" height="81.15" rx="5.98" transform="translate(3191.89 2940.45) rotate(180)"/><rect class="cls-47" x="1432.42" y="1396.61" width="117.3" height="114.2" rx="9.47" transform="translate(2982.13 2907.41) rotate(180)"/><g class="cls-48"><path class="cls-12" d="M1465,1038.81c-233.24,0-422.12,188.81-422.12,422.15,0,232.52,188.26,422.11,422.12,422.11,233.41,0,422.11-189,422.11-422.11C1887.14,1227.73,1698.36,1038.81,1465,1038.81Zm0,823.07c-220.54,0-401-179.31-401-400.92,0-221.11,179.86-401,401-401s401,179.85,401,401C1866,1683.42,1684.81,1861.88,1465,1861.88Z" transform="translate(0)"/></g><path class="cls-49" d="M1436.45,1317.22a5.85,5.85,0,0,1-5.84-5.82v-.87a8.45,8.45,0,0,1-5.83-8l-.08-17.51h3.47c-1.34-21.78-17.69-52.26-17.85-52.57a46.54,46.54,0,1,1,77.76,0c-.64,1.21-16.39,30.78-17.81,52.31l3.37,0,.09,17.51a8.43,8.43,0,0,1-5.75,8v.88a5.86,5.86,0,0,1-5.82,5.87l-25.68.13Zm-10.39-30.82.08,16.14a7.08,7.08,0,0,0,5.31,6.81l.51.13v1.91a4.5,4.5,0,0,0,4.5,4.46l25.68-.13a4.49,4.49,0,0,0,4.46-4.5v-1.91l.51-.14a7.05,7.05,0,0,0,5.24-6.85l-.08-16.14h-3.45l0-.72c1.11-21.89,17.35-52.37,18-53.65a45.18,45.18,0,1,0-75.42-.06c.16.22,17,31.77,18.09,53.91l0,.72Zm23.65-32.94h-.54a33.15,33.15,0,0,1-4-.19l.12-1.36a42.67,42.67,0,0,0,7.83,0l.12,1.36A34.42,34.42,0,0,1,1449.71,1253.46Z" transform="translate(0)"/><rect class="cls-50" x="1436.18" y="1285.03" width="25.78" height="1.37"/><rect class="cls-51" x="1447.7" y="1122.41" width="2.74" height="23.37"/><rect class="cls-52" x="1474.98" y="1140.99" width="23.37" height="2.73" transform="translate(-372.33 1385.82) rotate(-45)"/><rect class="cls-53" x="1410.1" y="1130.67" width="2.73" height="23.37" transform="translate(-394.36 1332.65) rotate(-45)"/><rect class="cls-54" x="1432.35" y="1234.57" width="1.37" height="27.56" transform="translate(-247.27 360.35) rotate(-13.2)"/><rect class="cls-55" x="1451.33" y="1247.67" width="27.56" height="1.37" transform="translate(-85.08 2389.34) rotate(-76.79)"/><path class="cls-56" d="M1501.31,1207.21H1500a50.94,50.94,0,0,0-50.88-50.88V1155A52.3,52.3,0,0,1,1501.31,1207.21Z" transform="translate(0)"/><path class="cls-57" d="M1489.62,1207.21h-1.36a39.19,39.19,0,1,0-78.37,0h-1.37a40.55,40.55,0,1,1,81.1,0Z" transform="translate(0)"/><path class="cls-25" d="M872,1366.44c-.87,9.43-1.71,19.81-2.47,31.24-9.4,8.23-19.08,15.91-29.06,23.15-3.75,2.73-7.57,5.43-11.43,8-.18-8.16-.62-14.93-1.57-18.79a55.65,55.65,0,0,1-.94-5.57c-3.13-24.21-7.61-104.67-9.8-114.83-2.44-11.18-2.8-19.37-7-14.31s2.11,28.87-29.71,106.75c-2.51,6.19-17.51,34.19-25.3,63.5a134.81,134.81,0,0,0-4.48,25.08c-6.95,2.84-14,5.43-21.12,7.83s-14.45,4.7-21.77,6.73c1-5.53,2.84-14.16,5-23.7,4-18.31,8.89-39.86,9.47-48.31,1-15.18,10.74-104.46,14.2-122.91s18.53-91.64,18.53-91.64,65.68-126.7,112.17,10.26C888.61,1273.24,879,1292.42,872,1366.44Z" transform="translate(0)"/><path class="cls-58" d="M855.86,1178.16s43,62.76,24.48,196.27c0,0-101.93,14.46-156.54-16.74,0,0,22.58-137.65,30.77-159.06S855.86,1178.16,855.86,1178.16Z" transform="translate(0)"/><path class="cls-25" d="M804.92,899.87s-28.78,29-19,66.32,25.55,37.54,42.91,21.48,27.58-32.95,29.87-51.72S831.19,874,804.92,899.87Z" transform="translate(0)"/><path class="cls-25" d="M799.29,1024.38a171.29,171.29,0,0,0,7.25-20.76c.53-1.94,1-3.92,1.44-5.89,1.46-6.91,2.07-13.72.48-18.4-4.59-13.56,28.78-4.17,28.78-4.17s-6.46,35.87,0,48S799.29,1024.38,799.29,1024.38Z" transform="translate(0)"/><path class="cls-27" d="M883.85,1041.46c-5.25-10.48-9.18-13.85-19.33-17.06-5.68-1.79-31.06-8.4-31.06-8.4L803,1014.88s-21,3.49-37.23,9.12-37.58,36.45-37.58,36.45,29.41,69,35,88.84,1.88,50.47,1.88,50.47c35.24,19.19,91.75-1.88,91.75-1.88a113.25,113.25,0,0,1-2.21-46.37c.27-1.51.57-3,.9-4.3s.72-3,1.2-5a2.5,2.5,0,0,0,.07-.26c22.41,2.29,43.43,3.23,44-1.27C903.26,1120.45,891.08,1055.87,883.85,1041.46Zm-15.53,78.71c-.9-.13-2.82-.14-4.85-.33,2.49-6.94,5.26-13.09,5.26-13.09C870.32,1111.18,876.36,1121.38,868.32,1120.17Z" transform="translate(0)"/><path class="cls-59" d="M814.3,920.73s13.77,25,22.32,34,7.54,16.09,7.54,16.09,33.33-41.11,9.56-65.93-54.43-14.81-63.4,6.88-5.68,48.18-5.68,48.18S784.9,934.49,814.3,920.73Z" transform="translate(0)"/><path class="cls-59" d="M823.38,894.53s-3.32-18.32,25.41-25.61,41.63,25.81,38.09,46-28.1,71.4-14.78,78.07,18.53-7.71,18.53-7.71-4.16,25.19-22.69,19.36-16-46.76-13.24-63.07S823.38,894.53,823.38,894.53Z" transform="translate(0)"/><path class="cls-33" d="M832.64,984c-.11.26-7.38,17-26.1,19.58.53-1.94,1-3.92,1.44-5.89C808,997.73,818.24,999.8,832.64,984Z" transform="translate(0)"/><path class="cls-60" d="M868.32,1107s-1.37,2.89-5.13,14.28c-3.83-32-1.83-48.65-1.83-48.65C861.78,1089.72,868.32,1107,868.32,1107Z" transform="translate(0)"/><path class="cls-27" d="M827.86,890.68s20.39,3.92,30.56,20.53c0,0-2.06-15-12.21-19.38S827.86,890.68,827.86,890.68Z" transform="translate(0)"/><path class="cls-60" d="M856.73,1142.23c-.48,2-.9,3.74-1.2,5s-.63,2.79-.9,4.3c-12.63-6.87-21.7-12.23-21.7-12.23C836.33,1140,856.73,1142.23,856.73,1142.23Z" transform="translate(0)"/><path class="cls-25" d="M835.17,1016.44l-35.88,29.26,3.69-30.82S823.91,1010.36,835.17,1016.44Z" transform="translate(0)"/><polygon class="cls-28" points="809.66 1040.73 799.29 1045.69 834.53 1010.76 809.66 1040.73"/><path class="cls-61" d="M858.85,1139.7c-4.94,20.47,13.33,66.53,13.33,66.53L836,1217.55a9.27,9.27,0,0,1-11.84-6.9c-4.85-22.54-16.22-78-17.58-108.87-1.73-39.35,26.92-85.78,26.92-85.78,50.94,8.74,37,85.78,37,85.78s-1.85,4.86-4.32,12.44h0c-.62,1.9-1.28,4-2,6.2C862.41,1126.12,860.53,1132.74,858.85,1139.7Z" transform="translate(0)"/><path class="cls-61" d="M799.38,1016.56l.62-1.68s-26.08,4-39.33,10.59S722,1066.29,722,1066.29l33.19,43.82c0,33.67-5.42,93.55-5.42,93.55L765,1212.4a6.19,6.19,0,0,0,9.28-5.24c.43-22.77,1.45-76.83,2-103C776.92,1070.46,801,1016,801,1016,800.42,1016.18,799.9,1016.37,799.38,1016.56Z" transform="translate(0)"/><path class="cls-25" d="M752.09,1174.46s25,1,28.91,0,29.87-12.23,31.42-23.36-60.33,10-60.33,10Z" transform="translate(0)"/><polygon class="cls-62" points="829.74 1139.7 728.17 1127.82 774.05 1165.14 829.74 1139.7"/><polygon class="cls-43" points="774.05 1165.14 829.74 1146.17 829.74 1139.7 772.18 1158.17 774.05 1165.14"/><path class="cls-25" d="M800.23,1121.05s-8.4,0-13.1-1c-3.64-.75-12.69.28-15,2.32s-9.64,16.28-11,17.14.71,2.88,3.14,1.87c0,0,2.24,6.23,7.76,3.9s9.26-7.42,12.15-8.32,19.72-5.42,19.72-5.42S804.57,1119.54,800.23,1121.05Z" transform="translate(0)"/><polygon class="cls-29" points="804.9 1009.2 785.57 1039.81 776.24 1045.69 797.98 1015.21 804.9 1009.2"/><polygon class="cls-28" points="785.57 1039.81 799.29 1045.69 802.98 1014.88 804.9 1009.2 785.57 1039.81"/><path class="cls-61" d="M755.14,1160.14s-1,12.93,0,15.64c0,0-62.63-6.26-68.47-15s-5.63-19.39-5.63-19.39Z" transform="translate(0)"/><polygon class="cls-63" points="774.05 1165.14 744.44 1055.03 631.83 1043.14 662.69 1144.5 774.05 1165.14"/><polygon class="cls-29" points="834.53 1010.76 809.66 1040.73 823.27 1052.87 837.96 1016.99 834.53 1010.76"/><path class="cls-64" d="M867,1111.69l-.84,2.54c-.62,1.9-1.28,4-2,6.2-4.81,1.51-46.41-1.54-46.41-1.54S852.56,1110.71,867,1111.69Z" transform="translate(0)"/><path class="cls-61" d="M864.55,1119.62c-6.71-.51-17.68-1.22-26.67-1.26-14-.06-37.88,1.49-37.88,1.49l2.85,14.94s42.35,6.88,65.47,8.5h0s30.52,3.5,32.79-1-.75-33.79-5.71-60.13-10.07-41.52-16.14-49.65S841.13,1018,841.13,1018l27.2,89s3.9,7.94,3.7,11.37c-.07,1-.79,1.53-1.76,1.72-.69-.06-2.19-.19-4.27-.35Z" transform="translate(0)"/><path class="cls-25" d="M617.67,970.89s16.65-4.09,18-3.43,1.51,1.57,0,2-16,4.41-16,4.41,20.51-1.52,21.73-1.23c.71.18,1.14,1.93.33,2.25s-21,3-21,3,19.15-1.39,20.09-.84a1.32,1.32,0,0,1-.6,2.39c-1.41.2-19.12,2.49-19.12,2.49s14-.13,14.53.81c.32.57.76,2.06-2.86,2s-12.16.63-12.16.63Z" transform="translate(0)"/><path class="cls-65" d="M683,826.89c-.19-39.21-37.82-70.82-84.05-70.59s-83.54,32.2-83.35,71.42A61.86,61.86,0,0,0,523,856.67c0,.05,25.81,49.84,29.66,97.17.11,22.14,21.35,40,47.45,39.86s47.17-18.18,47.06-40.32c3.38-47.4,28.7-97.47,28.7-97.47h0A61.86,61.86,0,0,0,683,826.89Z" transform="translate(0)"/><rect class="cls-66" x="569.88" y="848.33" width="3.1" height="107.86" transform="translate(-108.86 78.97) rotate(-7.22)"/><rect class="cls-66" x="626.33" y="848.04" width="3.1" height="107.86" transform="translate(1147.42 1870.42) rotate(-173.37)"/><polygon class="cls-66" points="622.27 865.1 610.57 853.52 599.18 865.02 587.87 853.83 576.87 864.94 564.61 852.8 566.11 851.29 576.86 861.92 587.86 850.81 599.17 862.01 610.55 850.5 622.25 862.08 632.99 851.24 634.5 852.74 622.27 865.1"/><rect class="cls-67" x="562.51" y="987.14" width="75.12" height="31.85" transform="matrix(1, 0, 0, 1, -4.93, 2.97)"/><rect class="cls-68" x="550.32" y="954.6" width="99.27" height="51.28" transform="translate(-4.84 2.98) rotate(-0.28)"/><path class="cls-41" d="M364.48,1277.9c-2.4,8-8.55,25.08-15.18,43-1.45,4-2.95,8-4.44,12-8.34,22.36-16.24,43.07-17.33,46-.11.25-.15.36-.15.36-2.47,5.65-5.57,12.49-9.06,20-.18-.11-.36-.3-.55-.44q-11.89-10.28-23.15-21.52a423.85,423.85,0,0,1-42.85-50c.36-1.79.54-2.77.54-2.77s2.08-9.94,6.34-24.76c7.1-24.76,20.28-63.17,40.15-92C306.74,1196.12,364.48,1277.9,364.48,1277.9Z" transform="translate(0)"/><path class="cls-41" d="M532.29,1422.15c-.69,3.13-6.15,24.57-12.74,50.75-1.64,6.66-3.39,13.61-5.14,20.64a413.84,413.84,0,0,1-49.48-12.41c-.94-.3-1.89-.62-2.84-1,.91-7.5,1.86-14.78,2.81-21.55,2.25-16.24,4.48-29.68,6.48-36.45,7.79-26.65-29.57-44.12-51.16-53.77S289.37,1306.26,291.3,1285c1.35-14.71,3.32-28.55,3.32-28.55s13.07-27.89,103.72,3.79c0,0,118.69,92.8,131,109.8S534.15,1413.88,532.29,1422.15Z" transform="translate(0)"/><path class="cls-69" d="M358.8,1043.87s18.27,33.55,21.84,53.88-4.92,84.71-4.31,96.23c1.65,31.06,22,66.24,22,66.24L289.91,1301a713.7,713.7,0,0,1-14.81-70.45c-6.09-38.79-2.41-72.45.76-94.85,9.92-70.27,53.34-104.78,53.34-104.78Z" transform="translate(0)"/><path class="cls-25" d="M395.22,946.94s13.34,17,8.83,20.81c-3.74,3.12,8.42,20,10.12,22.8s-6.62,6.49-8.13,8.74-2.9,27-9.93,29-41.19-3.73-51.53-11.35-24.62-47.61-21.74-66S371.73,917.22,395.22,946.94Z" transform="translate(0)"/><path class="cls-25" d="M373.74,1026.82s-.54,2.06-1.31,5.24c-.32,1.34-.68,2.87-1.06,4.53-.29,1.27-.6,2.61-.9,4-1.91,8.7-3.9,19.22-3.59,24.23.56,9.34-33.41-34.41-33.41-34.41a451.58,451.58,0,0,0,10.34-63C346.75,933.66,373.74,1026.82,373.74,1026.82Z" transform="translate(0)"/><path class="cls-43" d="M397.94,950.66s6.85-22-14.49-33.85S332,937.31,328.29,939s-25.22,6.81-7.76,43.93c15.55,33,16.56,30.88,16.56,30.88s4.19-18.54,7.74-22.18c5.55-5.69,19.63-7,19.63-7s-9.63-16.44.29-20.71S386.8,948.57,397.94,950.66Z" transform="translate(0)"/><path class="cls-25" d="M351.71,976.47c-1.32-2.25-6-12.11-13.9-4.5s9.94,24.67,11.53,24.66S362.87,995.45,351.71,976.47Z" transform="translate(0)"/><path class="cls-33" d="M374,1026.63a54.22,54.22,0,0,0-1.6,5.43c-.32,1.34-.68,2.87-1.06,4.53-19.4-9.83-25.07-18.39-25.23-18.66C355.17,1022.37,374,1026.63,374,1026.63Z" transform="translate(0)"/><path class="cls-70" d="M398.35,1260.22s-4.86-9.22-6-11.59l-105.83,39.12,3.36,13.24S367.4,1272.87,398.35,1260.22Z" transform="translate(0)"/><path class="cls-43" d="M270.57,1174.67s5.94,64.44-26.66,134.21c-4,8.52,62.89,7.18,62.89,7.18Z" transform="translate(0)"/><path class="cls-25" d="M547.4,1000.22s3.55-.85,5.29-3.24c3-4.13,2-12.12,9.26-13.4s17.78,20.54,17.39,25.3-9.52,9.45-25,10.27S547.4,1000.22,547.4,1000.22Z" transform="translate(0)"/><path class="cls-25" d="M559.57,984.36a212.5,212.5,0,0,1,19.91-11.84c9.55-5,22.1-9.77,23.38-7.39,1.94,3.63-8.8,6.4-17.94,12-8.41,5.11-5.88,5.53-5.88,5.53s-.72-.16,9.55-3.93c11-4.06,23.06-8,24.14-6,1.35,2.4,1.31,2.81-2.45,5,2.43-.76,3-.2,3.41.79,2.17,5.13-13.1,13.64-19.17,17,4.68-2.56,8.39-3.94,7.69.06-.8,4.57-22.94,15.61-30.48,20.34C563.5,1021,559.57,984.36,559.57,984.36Z" transform="translate(0)"/><path class="cls-71" d="M369.09,1061.09s3.49,13.88,2,19.19c-.57,2-6.6-2.76-6.6-2.76Z" transform="translate(0)"/><path class="cls-27" d="M334.57,1025.75s20.92,25.89,34.52,32.83l-.15,18.94-39.74-46.61Z" transform="translate(0)"/><path class="cls-43" d="M375,1113.85c-1.3,7.18-2.44,14.43-3.41,21.67h0c-2.15,15.94-3.54,31.92-4.39,47.41-.3,5.53-.52,11-.7,16.37-2,64.1-27.38,115.23-27.38,115.23s-50.39,4.56-63.36-1.68c0,0-9-71.88-4.91-143.29.32-5.51.71-11,1.2-16.5h0c5.13-57.88,20.16-111.73,57.16-122.15C330.08,1031.66,381.85,1076.1,375,1113.85Z" transform="translate(0)"/><path class="cls-71" d="M370,1079.92s-14.44,59.16-66.45,58.43c-46.58-.65-115.83,16.32-139.25,32.1l-29.1,21,9.36-30.51s24-47.5,159-28.74c0,0,40.83,11.63,61.11-59.3C364.71,1072.87,371.19,1077.06,370,1079.92Z" transform="translate(0)"/><path class="cls-43" d="M328.55,1065.62s78.59,2.4,115.05-8.2c11.43-3.33,100.29-57,104.76-58.15s27.12,27,27.12,27-109.14,63.62-115.74,67.18-119.83,26.21-132.69,23.33-30.11-10.33-28.88-24.38C299.9,1072.72,328.55,1065.62,328.55,1065.62Z" transform="translate(0)"/><path class="cls-43" d="M1397.08,692s-28.81-67.14-32.28-83.66c-1.57-7.49-5.89-26.11-8.63-41.4-.91-5-1.66-10.22-2.31-15.3v0c-2.57-20.27-3.23-38.77-3.23-38.77s-15.29-52.44,17.49-55.64c0,0,11.68,4.05,12.07,5,5.52,12.89,7.69,45.77,7.89,52.88.15,5.78,8.63,64.07,8.76,66.13.24,4,9,25,13.63,40.61,10.2,34,15.57,60.73,15.57,60.73Z" transform="translate(0)"/><rect class="cls-72" x="1331.77" y="575.48" width="147.76" height="129.25"/><rect class="cls-73" x="1427.66" y="642.08" width="8.23" height="39.75"/><rect class="cls-73" x="1439.09" y="652.53" width="8.23" height="29.3"/><rect class="cls-73" x="1450.46" y="637.12" width="8.23" height="44.71"/><path class="cls-25" d="M1445.58,696.74s-.85,17.41-10.22,20.43-19.55.33-23.86-2.31-15.16-10.31-11.11-15.13C1413.38,684.25,1445.58,696.74,1445.58,696.74Z" transform="translate(0)"/><path class="cls-25" d="M1440.8,712.86s11.7.85,11.07-4.11-9-3-9-3Z" transform="translate(0)"/><rect class="cls-73" x="1391.93" y="651.57" width="8.23" height="30.26"/><rect class="cls-73" x="1403.63" y="648.52" width="8.23" height="33.31"/><rect class="cls-73" x="1415.49" y="654.86" width="8.22" height="26.97"/><rect class="cls-73" x="1379.82" y="654.86" width="8.23" height="26.97"/><path class="cls-73" d="M1350.84,634.93a3.15,3.15,0,0,0,.22.33l-.33.22-8.81,5.94-.23-.33,8.82-5.94Z" transform="translate(0)"/><path class="cls-73" d="M1382.62,636.63a2.58,2.58,0,0,0,0,.39l-.4,0L1357,634l-.4-.05a2.57,2.57,0,0,0,0-.4l.39.05,25.24,3Z" transform="translate(0)"/><path class="cls-73" d="M1407.4,617.75l-.29.27-18.73,17-.29.26-.27-.29.3-.27,18.72-17,.29-.27Z" transform="translate(0)"/><path class="cls-73" d="M1438,615.53v.2h-25.35a1.27,1.27,0,0,0,0-.2,1.41,1.41,0,0,0,0-.2H1438Z" transform="translate(0)"/><path class="cls-73" d="M1459.82,595.4l-16.23,17.7-.27.29-.3-.27.27-.29,16.24-17.7Z" transform="translate(0)"/><path class="cls-73" d="M1353.51,629.87a3.5,3.5,0,0,0-3.5,3.5,3.38,3.38,0,0,0,.5,1.78,3.15,3.15,0,0,0,.22.33A3.49,3.49,0,0,0,1357,634a2.71,2.71,0,0,0,0-.4,1.48,1.48,0,0,0,0-.21A3.5,3.5,0,0,0,1353.51,629.87Zm3,4.06a3.09,3.09,0,0,1-5.49,1.33,3.15,3.15,0,0,1-.22-.33,3.07,3.07,0,0,1-.43-1.56,3.1,3.1,0,1,1,6.19,0v.16A2.57,2.57,0,0,1,1356.55,633.93Z" transform="translate(0)"/><path class="cls-73" d="M1388.38,635a2.55,2.55,0,0,0-.26-.3,3.5,3.5,0,0,0-5.89,1.88,2.6,2.6,0,0,0,0,.39,1.7,1.7,0,0,0,0,.22,3.5,3.5,0,0,0,7,0A3.44,3.44,0,0,0,1388.38,635Zm-2.71,5.28a3.09,3.09,0,0,1-3.1-3.09,1,1,0,0,1,0-.17,2.58,2.58,0,0,1,0-.39,3.09,3.09,0,0,1,5.2-1.66l.27.29a3.1,3.1,0,0,1-2.42,5Z" transform="translate(0)"/><path class="cls-73" d="M1413,615.33a3.49,3.49,0,1,0-6.2,2.4,2.44,2.44,0,0,0,.27.29,3.48,3.48,0,0,0,5.93-2.29,1.27,1.27,0,0,0,0-.2A1.41,1.41,0,0,0,1413,615.33Zm-3.48,3.3a3.11,3.11,0,0,1-2.16-.88l-.27-.29a3.09,3.09,0,1,1,5.51-2.13,1.41,1.41,0,0,1,0,.2,1.27,1.27,0,0,1,0,.2A3.09,3.09,0,0,1,1409.56,618.63Z" transform="translate(0)"/><path class="cls-73" d="M1443.59,613.1a2.52,2.52,0,0,0-.3-.27,3.49,3.49,0,0,0-5.69,2.5,1.41,1.41,0,0,0,0,.2,1.27,1.27,0,0,0,0,.2,3.49,3.49,0,1,0,6-2.63Zm-2.51,5.53a3.1,3.1,0,0,1-3.09-2.9v-.4a3.1,3.1,0,0,1,3.09-2.89,3.05,3.05,0,0,1,1.94.68l.3.27a3.1,3.1,0,0,1-2.24,5.24Z" transform="translate(0)"/><path class="cls-25" d="M1163.74,694.45s-5.08,8.86-11.11,8.68c-5.12-.15-12,3.14-14.08,4.14-2.82,1.35-13,2.51-11.36,5.82s16.9-1.15,20.27-1.49-5.41,11.49-5.24,14.79,21.4,15.25,26.44,6.51,4.4-21,5.61-22.42a61.44,61.44,0,0,0,3.94-6.23Z" transform="translate(0)"/><path class="cls-25" d="M1142.89,724.1s-13.59,27.67-12.87,30.18,2.33,3.06,3.71.52,14-26.4,14-26.4-10.31,35.12-10.21,37.31c.06,1.28,3.12,2.54,4,1.24s13.19-35.62,13.19-35.62-9.56,32.81-8.89,34.6a2.54,2.54,0,0,0,4.6-.35c.89-2.39,11.58-32.42,11.58-32.42s-5.37,24.24-3.85,25.42c.94.72,3.52,1.92,4.7-4.37s5.62-20.91,5.62-20.91Z" transform="translate(0)"/><path class="cls-41" d="M1398.14,958.89a420,420,0,0,1-46.05-7.32c-.95-7.79-1.9-15.33-2.81-22.46-2.87-22.43-5.49-40.67-7.31-48.31-6.16-26.11-29-138.43-34.59-131.29s-12.56,131.07-16.75,151.64c-.36,1.82-.8,4.77-1.31,8.59-.69,5.64-1.53,13.22-2.4,22.06a419.35,419.35,0,0,1-50.39-23.88c.07-1.13.14-2.22.22-3.24.18-2.77-.29-10.63-1.06-22.1-3.28-49.7-11.8-166.35,7.25-219.25,12.34-34.37,127.53,18.79,127.53,18.79s10.42,101,15.8,135.51c6.34,40.41,8.49,73.83,10.23,94.73.44,5.06.81,14,1.13,25.16C1397.82,944,1398,951.21,1398.14,958.89Z" transform="translate(0)"/><path class="cls-74" d="M1167.55,696.32s7.82,9,15.16,7.68,38.07-95,38.36-113.76c.22-15.21,8.54-55.35,8.54-55.35a.42.42,0,0,0,0,.07.06.06,0,0,1,0,0s0,0,0,.07c.83,3,12.06,44.66,12.45,64.68.41,20.77-1.24,92.23-1.24,92.23l27.82,7.45,88.86.83,20.28-8.28s-2.21-23-3-39.11c-.51-10.26-2.51-28.63-2-46.52,0,0-.33-18.85,1.55-27,.2-35.84,2.37-71.34,2.37-71.34q1.8-24.37,2.51-45.62c-3.91-2.07-8.63-4.5-12.4-6.29-11.68-5.56-27.94-13.05-38.37-17.84-6.12-2.8-12.1-4.85-12.1-4.85s-41.71-4-45.1-3.79c-1.07.07-6.28,1.88-13.12,4.49-14.79,5.61-43.3,17-47.84,20.3-6.67,4.77-20.74,118.07-21.38,126C1187.75,594.73,1167.55,696.32,1167.55,696.32Z" transform="translate(0)"/><path class="cls-75" d="M1375.13,684.39s-61,5.2-114.5,0v17.55s79.61,7.6,117.18-3.35Z" transform="translate(0)"/><path class="cls-43" d="M1323.07,436s9.93,23.32,17.38,75.46c2.86,20,8.17,53.74,12,88.14h0c3,27.13,10,55,12.19,75.72,2.28,21.51,9.16,84.87,9.16,84.87l16.7-10.52c2.38-2.21,5.73-5.07,4.76-8.17-4.59-14.82-13.38-63.83-18.57-106.54,0,0,0-.06,0-.09q-.37-3.09-.73-6.13l0-.32c-1-8.54-1.79-16.73-2.37-24.23a76.1,76.1,0,0,1,.74-16.85c2.33-38.34,3.49-78.76,3.49-78.76,1.22-16.55,1.92-32,2.39-46.42C1380.19,462.16,1327.82,437.4,1323.07,436Z" transform="translate(0)"/><path class="cls-43" d="M1222.34,591.09c-1.29,17.4-33.12,119-37.34,118.51-7.43-.77-32.39-8.64-32.39-8.64s30.74-103.25,31.82-114.13c.79-7.92,13.4-126.72,20.06-131.49,3.84-2.76,32.33-12.86,46.31-18.37,2.56-1,11-4.18,13.28-5.05,3,3.3,23.7,25.75,30.92,111,1.21,14.36-2.63,44.78-5.19,69.61-2.74,26.49-5.77,47.16-8,69.31-4.38,43.65-7.44,78.37-7.44,78.37l-43.44-19.34c-7-3.51-16.76-17.94-14.12-25.34,10-28.12,22.69-76.17,22.7-100.85,0,0-4.84-60.43-8.68-73.71C1230.84,541,1224,569,1222.34,591.09Z" transform="translate(0)"/><path class="cls-25" d="M1297.07,323.63s43.55-16.11,40.82,41.76-12.92,63.74-41.57,55.66-31-44.6-34.77-62.17S1282.83,326.16,1297.07,323.63Z" transform="translate(0)"/><path class="cls-76" d="M1267.6,387.58s-.12-15.46,6.31-16.88,9.73,7.51,9.73,7.51l5.18-.27s-4.63-15.67,1.5-19.26,42.79-.44,47.39-5.71-2.07-36.6-12.07-39.67-37.33-9.31-54.68,6.14c0,0-15.09.29-15.69,12.58S1262.37,379.2,1267.6,387.58Z" transform="translate(0)"/><path class="cls-25" d="M1281.18,364.14c-1.92-5.1-12.78-4.46-11.67,3.63S1279.6,388.3,1283.2,386,1283.83,371.17,1281.18,364.14Z" transform="translate(0)"/><path class="cls-32" d="M1275.1,434.09s3.84-3.17-1.67-32.14c-1.48-7.76,40.88,9.25,40.88,9.25s-.34,6.36-.3,12.73c0,2.85.11,5.7.34,8a26.55,26.55,0,0,0,1.55,5.6C1317.82,441.93,1290.76,445.29,1275.1,434.09Z" transform="translate(0)"/><path class="cls-33" d="M1314.35,431.92c-25.42-.33-33.59-19.65-33.84-20.26,13.39,13.57,33.5,12.27,33.5,12.27C1314,426.78,1314.12,429.63,1314.35,431.92Z" transform="translate(0)"/><path class="cls-59" d="M1304.12,449.09l7.71,10.36s-4.52,6-12.54,1.58Z" transform="translate(0)"/><path class="cls-59" d="M1309.62,459.86s28.59,110.07,22.7,195.74l-9.62,16.95-9-17.75s-2.47-153.26-10.31-195.21Z" transform="translate(0)"/><path class="cls-32" d="M1312.37,439.44l-8.25,9.65s-13.25-2.57-17.13-9.48S1312.37,439.44,1312.37,439.44Z" transform="translate(0)"/><path class="cls-77" d="M1314.26,431s-1,7.36-10.14,18.1l10,13.47,5.42-27.95Z" transform="translate(0)"/><path class="cls-77" d="M1276.33,423.46s14.4,20.34,27.79,25.63l-6.23,15.4-28.46-34.39Z" transform="translate(0)"/><path class="cls-78" d="M1679,327.26c13,5.2,5.57,31.93,6.85,80.64s37.17,57.54,37.17,57.54-15.81-18.65-19-35.73,32.25-60.22,16.76-94.09c-12-26.17-43.37-9.33-43.37-9.33Z" transform="translate(0)"/><path class="cls-25" d="M1472.62,588s6.39-2.21,10.15-1.51-7.11-18.69-7.11-18.69Z" transform="translate(0)"/><path class="cls-25" d="M1475.66,567.76s-10.06-8.83-11.63-10.13-7.26-1.86-13.84-1.94-15.49,2.77-16.13,3.71-1.72,1.59-1.68,4.5a11.06,11.06,0,0,0,1.66,5.36s-1.64,3.6.59,6.46a5.86,5.86,0,0,0,1.68,6.3s-1.27,3.42,1.14,5.28c0,0,5.69.57,7.73,1.39s14,1.19,25.46-.21C1470.64,588.48,1483.37,587.44,1475.66,567.76Z" transform="translate(0)"/><path class="cls-79" d="M1456.24,570.46s2.56,6.21,4.17,7.59-10.18,9.16-10.18,9.16S1448.77,573.78,1456.24,570.46Z" transform="translate(0)"/><path class="cls-80" d="M1435.79,559.36s16.66.59,16.9,3.28a4.27,4.27,0,0,1-1.32,3.84l6.75,3.35s3.22,4.75-2.89,6.86c0,0,3.46,4.12-2.68,5.46,0,0,1.07,3.74-1.66,4.86s-13.44.29-13.44.29-2.72-1-1.68-5.15a6,6,0,0,1-1.62-6.41s-2.17-2.46-.59-6.51c0,0-3.93-5.75.5-9.83C1434.06,559.4,1435.08,559.33,1435.79,559.36Z" transform="translate(0)"/><path class="cls-25" d="M1452.75,562.48s-2.75-15.5-1.9-22.27c.2-1.53.15-2.11,1.64-2.5s4,4.92,5.63,9.6,6.07,10.46,6.07,10.46S1464.34,562.59,1452.75,562.48Z" transform="translate(0)"/><path class="cls-26" d="M1741.54,805.47c-.72,12.45-1.23,21.91-1.16,25.74,0,1.64.22,3.67.51,6l-.26.26q-13.86,13.86-28.8,26.28-6.7,5.63-13.65,10.89c-.84-7.32-1.49-12.85-1.71-14.31-.11-.73-1-4.15-2.51-9.54-8.59-31.09-36.26-127.61-36.26-146.25,0-21.84,13.21-112,60.62-76.31,0,0,19.66,25.52,25,55.85C1747.3,706.73,1743.58,769,1741.54,805.47Z" transform="translate(0)"/><path class="cls-26" d="M1623.18,850.72c-2.33,6.52,3.24,24.47,6.74,42.53,1.49,7.9,2.62,15.83,2.44,22.82a406,406,0,0,1-41.22,18.14c-3.86,1.45-7.72,2.84-11.61,4.18l-1.17-22.24-2-39.29s-3.71-52.64-4.08-55.77,7.32-25.45,11.18-42.53,36.12-140.32,36.12-140.32c99.57-35.78,59.71,90.15,59.71,90.15S1626.68,841,1623.18,850.72Z" transform="translate(0)"/><path class="cls-24" d="M1628.67,453.46s-20,2.36-28.4,13.91-11.2,29.21-13.07,35.05-27.73,60.93-29.43,62.31-25.32.45-39.51.85c-19.93.56-43.69.08-43.69.08l2.91,28.53s94.81,2.22,101.36-5.22c14.46-16.43,47.13-73.69,47.13-73.69S1660,468.85,1628.67,453.46Z" transform="translate(0)"/><path class="cls-27" d="M1652.11,444.71s-16.73,7.89-22.54,9.06-28.34,30.43-32.29,41.12,0,26.72,8.13,45.54.46,25.09,4.18,43.91,7,58.67,6.27,69.12,94,12.43,115.58-6.62c0,0-21.71-32.53-24.5-37.18s-.47-30,2.09-36.47,29.3-58.85,29.3-58.85,4.18-45.47-8.39-55.23c-10.92-8.48-40.68-11.5-46-13.36S1663,443.08,1652.11,444.71Z" transform="translate(0)"/><path class="cls-28" d="M1646.76,482l-10.16-11.91,8.83-31.33S1648.39,456.21,1646.76,482Z" transform="translate(0)"/><path class="cls-25" d="M1644.12,425.4s3.34,30.69,2.64,40.68c0,0,17.39,17.42,37.16-20.33,0,0-8.32-15.56-2.06-36.77S1644.12,425.4,1644.12,425.4Z" transform="translate(0)"/><polygon class="cls-25" points="1646.77 466.08 1646.77 482 1666.77 467.05 1646.77 466.08"/><polygon class="cls-28" points="1646.77 482 1655.07 471.71 1683.05 443.83 1692.1 452.55 1646.77 482"/><path class="cls-24" d="M1678.94,668.52c7.89,37.71,64.87-4.26,64.87-4.26s-37-62.08-22.28-111.7c.12-.4.23-.79.35-1.18.94-3.14,1.88-6.12,2.81-9,13.49-41,25.61-50.63,25.61-50.63s-17.13-37.67-33-40.11-30.35-5.18-30.35-5.18-23.48,35.63-24.6,51.31S1671.06,630.81,1678.94,668.52Z" transform="translate(0)"/><path class="cls-24" d="M1593.72,499.27s3.79,35.58,11,53.24c0,0,3,37.64,2.56,50.88s-3.6,63.31-3.6,63.31l16.31,9.56a4.6,4.6,0,0,0,6.9-4.53c-4.62-38.11-19.65-182.67,12.82-221.52l-13,3.84S1599.85,479.06,1593.72,499.27Z" transform="translate(0)"/><polygon class="cls-29" points="1636.6 470.09 1623.79 473.63 1645.43 438.75 1636.6 470.09"/><polygon class="cls-29" points="1655.07 471.71 1666.77 487.05 1690.68 447.19 1683.05 443.83 1655.07 471.71"/><path class="cls-26" d="M1598.86,556.86s-7.58-24-3.13-40.88c0,0-.6,14.94,8.34,34.65Z" transform="translate(0)"/><path class="cls-25" d="M1656.21,326.35c-12.24-1.18-39.74,3.71-45.47,36a101,101,0,0,0,2.36,15.8c1.81,7-5.33,27-3.76,28.08s8.15,2.67,8.15,2.67,6.11,22.53,13.91,22.7,37.57-4.51,52.76-31.45S1705.65,331.09,1656.21,326.35Z" transform="translate(0)"/><path class="cls-78" d="M1610.74,362.38s19.27,14.52,38.91,18.2,30.26,37.83,30.26,37.83,33-49.55,10.11-81.19S1608.23,324.3,1610.74,362.38Z" transform="translate(0)"/><path class="cls-25" d="M1657.91,380.06c.29-3.83,4.82-9.37,10.84-3.84s-3.27,23.32-8.32,21.29S1657.61,384,1657.91,380.06Z" transform="translate(0)"/><path class="cls-33" d="M1644.08,429.83c.45,2.39.9,5.18,1.28,8.13,16.47-9.4,25.1-21.36,25.1-21.36C1660.93,424.43,1644.08,429.83,1644.08,429.83Z" transform="translate(0)"/><polygon class="cls-81" points="1628.93 592.28 1698.27 712.38 1775.35 667.87 1709.03 546.03 1628.93 592.28"/><path class="cls-25" d="M1663.31,672a14.49,14.49,0,0,0,4.53-.65s2.43-1.41,4.21-2.3a13.15,13.15,0,0,1,1.4-.64,26.13,26.13,0,0,0,7.73-3.27c3.07-2.12,13.93-14.69,13.93-14.69l-5.13-7.8-3.76-8s-22.8,1.47-25.89,3.12a7.13,7.13,0,0,0-.85.52c-2.47,1.65-3.62,3.92-4.82,4.93-.44.38-4.55,4.4-4.41,6.11a5.63,5.63,0,0,0,2.73,4.73s.59,4.64,2.88,6.8c0,0,.4,4.3,4,6.18C1659.88,667.1,1660.78,671.41,1663.31,672Z" transform="translate(0)"/><path class="cls-24" d="M1708.36,451.06s23-2.93,35.06,20.27,12,33.11,13.62,44.44c1.52,10.7,8.39,39.9,9.09,42.92s16.26,39,9.13,51.56-80.06,49.83-79.6,52.62S1683,634.74,1683,634.74s29.49-16.43,34.32-21.49c7.85-8.23,24.4-17.08,21-27.28-4-12-16-52.4-18.78-58.31S1690.61,458.6,1708.36,451.06Z" transform="translate(0)"/><path class="cls-26" d="M1710.33,503.42c.86,22.29,11.55,48,11.55,48,.94-3.14,1.88-6.12,2.81-9C1718.67,525.59,1710.33,503.42,1710.33,503.42Z" transform="translate(0)"/><path class="cls-82" d="M1712,284.43c0-9.66-9.78-17.5-21.84-17.5a26.49,26.49,0,0,0-7.77,1.14A21.87,21.87,0,0,0,1662,254.88c-10.28,0-18.91,6.76-21.23,15.86a16.2,16.2,0,0,0-5.74-1c-8.56,0-15.5,6.59-15.5,14.73Z" transform="translate(0)"/><g class="cls-83"><path class="cls-12" d="M1442.16,961.16c233.24,0,422.11-188.81,422.11-422.15,0-232.52-188.26-422.11-422.11-422.11-233.41,0-422.11,189-422.11,422.11C1020.05,772.24,1208.83,961.16,1442.16,961.16Zm0-823.07c220.54,0,401,179.31,401,400.92,0,221.11-179.85,401-401,401s-401-179.86-401-401C1041.2,316.55,1222.37,138.09,1442.16,138.09Z" transform="translate(0)"/></g><path class="cls-82" d="M1897.05,371.62c0-16.07-16.25-29.09-36.3-29.09a44.17,44.17,0,0,0-12.93,1.9c-5.29-12.84-18.43-21.93-33.82-21.93-17.09,0-31.43,11.23-35.28,26.36a26.86,26.86,0,0,0-9.55-1.74c-14.23,0-25.77,11-25.77,24.5Z" transform="translate(0)"/><g class="cls-84"><path class="cls-12" d="M593.09,656.56C359.85,656.56,171,845.38,171,1078.71c0,232.53,188.26,422.11,422.11,422.11,233.41,0,422.11-189,422.11-422.11C1015.2,845.48,826.42,656.56,593.09,656.56Zm0,823.07c-220.54,0-401-179.31-401-400.92,0-221.11,179.85-401,401-401s401,179.85,401,401C994.05,1301.17,812.88,1479.63,593.09,1479.63Z" transform="translate(0)"/></g></svg>