<svg id="Layer_1" data-name="Layer 1" xmlns="http://www.w3.org/2000/svg" viewBox="0 0 360 360.01"><defs><style>.cls-1{fill:#82c341;}</style></defs><title>digital-marketing</title><path d="M482,139H470v-6h6a18,18,0,1,0,0-36h-6V67a5.83,5.83,0,0,0-2.46-4.81,6,6,0,0,0-5.28-1L385.1,85H344a6,6,0,0,0-6,6v6H326a6,6,0,0,0-6,6v24a6,6,0,0,0,6,6h12v6H302V85a6,6,0,0,0-6-6H176a6,6,0,0,0-6,6v54H158a18.05,18.05,0,0,0-18,18V349a18.06,18.06,0,0,0,18,18H296v18H260a6,6,0,0,0-6,6v24a6,6,0,0,0,6,6H380a6,6,0,0,0,6-6V391a6,6,0,0,0-6-6H344V367H482a18.06,18.06,0,0,0,18-18V157a18.05,18.05,0,0,0-18-18Zm-12-30h6a6,6,0,0,1,0,12h-6ZM392,95.45l66-20.34V154.9l-66-20.34ZM350,97h30v36H350Zm17.1,48-4.32,30H356V145ZM332,121V109h6v12ZM182,91H290v84H182ZM374,397v12H266V397Zm-66-12V367h24v18Zm180-36a6,6,0,0,1-6,6H158a6,6,0,0,1-6-6v-6H488Zm0-18H152V157a6,6,0,0,1,6-6h12v30a6,6,0,0,0,6,6H296a6,6,0,0,0,6-6V151h42v30a6,6,0,0,0,6,6h18a6,6,0,0,0,5.94-5.16L379.22,145h5.88l77.16,23.76A5.67,5.67,0,0,0,464,169a6.1,6.1,0,0,0,6-6V151h12a6,6,0,0,1,6,6Zm0,0" transform="translate(-140 -61)"/><path class="cls-1" d="M178.68,299H300.32a4.6,4.6,0,0,0,4.68-4.5v-72a4.59,4.59,0,0,0-4.68-4.5H178.68a4.59,4.59,0,0,0-4.68,4.5v72a4.6,4.6,0,0,0,4.68,4.5Zm4.68-9V230.56l53.69,31.78a4.83,4.83,0,0,0,4.9,0l53.69-31.78V290Zm11.85-63h88.58L239.5,253.22Zm0,0" transform="translate(-140 -61)"/><path d="M350,283h12v18a6,6,0,0,0,6,6H470a6,6,0,0,0,6-6V229a6,6,0,0,0-6-6h-6V205a6,6,0,0,0-6-6H350a6,6,0,0,0-6,6v72a6,6,0,0,0,6,6Zm114,12H374V235h90ZM356,211h96v12H368a6,6,0,0,0-6,6v42h-6Zm0,0" transform="translate(-140 -61)"/><rect x="246" y="186.01" width="12" height="12"/><rect class="cls-1" x="270" y="186.01" width="42" height="12"/><rect x="246" y="210.01" width="24" height="12"/><rect class="cls-1" x="282" y="210.01" width="30" height="12"/><path class="cls-1" d="M220.84,156.11a6,6,0,0,0,5.84.27l36-18a6,6,0,0,0,0-10.75l-36-18A6,6,0,0,0,218,115v36a6,6,0,0,0,2.84,5.1Zm9.16-31.4,16.59,8.3L230,141.3Zm0,0" transform="translate(-140 -61)"/></svg>