<?xml version="1.0" encoding="utf-8"?>
<!-- Generator: Adobe Illustrator 23.0.2, SVG Export Plug-In . SVG Version: 6.00 Build 0)  -->
<svg version="1.1" id="Layer_1" xmlns="http://www.w3.org/2000/svg" xmlns:xlink="http://www.w3.org/1999/xlink" x="0px" y="0px"
	 viewBox="0 0 4 89" style="enable-background:new 0 0 4 89;" xml:space="preserve">
<style type="text/css">
	.st0{fill:#82C424;}
</style>
<title>Path 6</title>
<desc>Created with Sketch.</desc>
<g id="Home" transform="translate(-650.000000, -1620.000000)">
	<path id="Path-6" class="st0" d="M650.5,1622c0-0.8,0.7-1.5,1.5-1.5s1.5,0.7,1.5,1.5v1c0,0.8-0.7,1.5-1.5,1.5s-1.5-0.7-1.5-1.5
		V1622z M650.5,1643c0-0.8,0.7-1.5,1.5-1.5s1.5,0.7,1.5,1.5v1c0,0.8-0.7,1.5-1.5,1.5s-1.5-0.7-1.5-1.5V1643z M650.5,1664
		c0-0.8,0.7-1.5,1.5-1.5s1.5,0.7,1.5,1.5v1c0,0.8-0.7,1.5-1.5,1.5s-1.5-0.7-1.5-1.5V1664z M650.5,1685c0-0.8,0.7-1.5,1.5-1.5
		s1.5,0.7,1.5,1.5v1c0,0.8-0.7,1.5-1.5,1.5s-1.5-0.7-1.5-1.5V1685z M650.5,1706c0-0.8,0.7-1.5,1.5-1.5s1.5,0.7,1.5,1.5v1
		c0,0.8-0.7,1.5-1.5,1.5s-1.5-0.7-1.5-1.5V1706z"/>
</g>
</svg>
