<svg id="Layer_1" data-name="Layer 1" xmlns="http://www.w3.org/2000/svg" xmlns:xlink="http://www.w3.org/1999/xlink" viewBox="0 0 360.08 357.46"><defs><style>.cls-1{fill:none;}.cls-2{clip-path:url(#clip-path);}.cls-3{fill:#82c341;}</style><clipPath id="clip-path" transform="translate(-139 -61.54)"><rect class="cls-1" x="139" y="61" width="361" height="358"/></clipPath></defs><title>email-marketing</title><g class="cls-2"><path d="M460.23,178.85l-29-108.41A12,12,0,0,0,416.5,62l-16.33,4.37a12,12,0,0,0-3.87,1.81L361.15,93.26l-30.36-26a18.12,18.12,0,0,0-23.57,0l-162,139.62A18,18,0,0,0,139,220.52V401a18,18,0,0,0,18,18H481a18,18,0,0,0,18-18V220.52a18,18,0,0,0-6.23-13.67Zm26.65,222.79L377.36,314,487,226.26V401c0,.21-.07.43-.12.64ZM151,401V226.26L260.67,314,151.13,401.64A4.84,4.84,0,0,1,151,401ZM315.23,285.7a6.1,6.1,0,0,1,7.52,0L474.36,407H163.63ZM419.59,73.54l31.05,115.91-11.59,3.1L408,76.64ZM313,139.4l12.42,46.37-34.8,9.32a24,24,0,0,1-12.42-46.4Zm9.73,59.51,10.87,40.57a6,6,0,1,1-11.58,3.1L311.14,202Zm14.76-14.47-13.37-49.92,73-52.2,29.68,110.77ZM315.07,76.32a6,6,0,0,1,7.88,0l28.14,24.11-36.46,26.06-38.1,10.21A37,37,0,0,0,249,178a36,36,0,0,0,44.79,28.6l5.8-1.55,10.71,40a18.77,18.77,0,0,0,5.83,9.6,18,18,0,0,0,28.71-7.72,18.88,18.88,0,0,0,.21-11.21l-10.59-39.56,98.72,9.61a12.06,12.06,0,0,0,4.27-.35L453.75,201a11.89,11.89,0,0,0,7.3-5.65l21.84,18.79L367.76,306.33l-37.53-30a18,18,0,0,0-22.48,0l-37.48,30L155.1,214.18Zm0,0" transform="translate(-139 -61.54)"/></g><path class="cls-3" d="M458.3,125.28a6,6,0,0,0,5.79,4.45,5.74,5.74,0,0,0,1.55-.21l23.19-6.21a6,6,0,1,0-3.11-11.59l-23.18,6.22a6,6,0,0,0-4.24,7.34Zm0,0" transform="translate(-139 -61.54)"/><path class="cls-3" d="M451.25,95.9a6,6,0,0,0,4.25-1.76l17-17a6.09,6.09,0,0,0,1.83-4.27A6,6,0,0,0,464,68.69l-17,17a6,6,0,0,0,4.24,10.24Zm0,0" transform="translate(-139 -61.54)"/><path class="cls-3" d="M464.09,157.89a6,6,0,0,0,4.25,7.35l23.18,6.21a5.79,5.79,0,0,0,1.55.21,6,6,0,0,0,1.56-11.79l-23.19-6.22a6,6,0,0,0-7.35,4.24Zm0,0" transform="translate(-139 -61.54)"/></svg>