<?xml version="1.0" standalone="no"?><svg xmlns="http://www.w3.org/2000/svg" viewBox="0 0 1440 320"><path fill="#f3f4f5" fill-opacity="1" d="M0,288L30,277.3C60,267,120,245,180,240C240,235,300,245,360,261.3C420,277,480,299,540,298.7C600,299,660,277,720,240C780,203,840,149,900,117.3C960,85,1020,75,1080,112C1140,149,1200,235,1260,229.3C1320,224,1380,128,1410,80L1440,32L1440,0L1410,0C1380,0,1320,0,1260,0C1200,0,1140,0,1080,0C1020,0,960,0,900,0C840,0,780,0,720,0C660,0,600,0,540,0C480,0,420,0,360,0C300,0,240,0,180,0C120,0,60,0,30,0L0,0Z"></path></svg>