<svg xmlns="http://www.w3.org/2000/svg" xmlns:xlink="http://www.w3.org/1999/xlink" viewBox="0 0 1000.46 651.99"><defs><style>.cls-1{fill:none;}.cls-2{isolation:isolate;}.cls-3{fill:#04101c;}.cls-4{opacity:0.67;}.cls-5{clip-path:url(#clip-path);}.cls-6{fill:#8a8a8a;}.cls-25,.cls-6,.cls-7{mix-blend-mode:overlay;}.cls-8{fill:#969696;}.cls-9{fill:#92aab0;}.cls-10{fill:#7cafbd;}.cls-11,.cls-30{mix-blend-mode:screen;}.cls-12{fill:url(#radial-gradient);}.cls-13{fill:url(#radial-gradient-2);}.cls-14{fill:url(#radial-gradient-3);}.cls-15{fill:url(#radial-gradient-4);}.cls-16{fill:url(#radial-gradient-5);}.cls-17{fill:url(#radial-gradient-6);}.cls-18{fill:url(#radial-gradient-7);}.cls-19{fill:url(#radial-gradient-8);}.cls-20{fill:url(#radial-gradient-9);}.cls-21{fill:url(#radial-gradient-10);}.cls-22{fill:url(#radial-gradient-11);}.cls-23{fill:url(#radial-gradient-12);}.cls-24{fill:url(#radial-gradient-13);}.cls-25{opacity:0.47;}.cls-26{fill:#5089de;}.cls-27{fill:#69ebff;}.cls-28{fill:#fff;}.cls-29{fill:#bafaff;}.cls-30{fill:url(#radial-gradient-14);}</style><clipPath id="clip-path" transform="translate(0.46 0)"><rect class="cls-1" width="1000" height="625"/></clipPath><radialGradient id="radial-gradient" cx="-5241.36" cy="4486" r="11.54" gradientTransform="translate(-11185.45 998.34) rotate(-141.37) scale(1.67)" gradientUnits="userSpaceOnUse"><stop offset="0" stop-color="#c4f3ff"/><stop offset="0.07" stop-color="#bcf1ff"/><stop offset="0.19" stop-color="#a5ebff"/><stop offset="0.34" stop-color="#80e2ff"/><stop offset="0.5" stop-color="#4dd6ff"/><stop offset="0.55" stop-color="#3dd2ff"/><stop offset="0.58" stop-color="#39c3ed"/><stop offset="0.7" stop-color="#257f9a"/><stop offset="0.8" stop-color="#154858"/><stop offset="0.89" stop-color="#0a2128"/><stop offset="0.96" stop-color="#03090b"/><stop offset="1"/></radialGradient><radialGradient id="radial-gradient-2" cx="-5398.25" cy="4705.56" r="11.54" gradientTransform="matrix(0.44, -1.61, 1.61, 0.44, -4499.84, -10324.23)" xlink:href="#radial-gradient"/><radialGradient id="radial-gradient-3" cx="-5155.86" cy="4535.45" r="6.61" gradientTransform="matrix(-1.47, -0.79, 0.79, -1.47, -10936.65, 3020.48)" xlink:href="#radial-gradient"/><radialGradient id="radial-gradient-4" cx="-5432.45" cy="4690.11" r="6.61" gradientTransform="matrix(-1.47, -0.79, 0.79, -1.47, -10936.65, 3020.48)" xlink:href="#radial-gradient"/><radialGradient id="radial-gradient-5" cx="-5329.77" cy="4693.38" r="6.61" gradientTransform="matrix(-1.47, -0.79, 0.79, -1.47, -10936.65, 3020.48)" gradientUnits="userSpaceOnUse"><stop offset="0" stop-color="#69e0ff"/><stop offset="0.1" stop-color="#63d8f7"/><stop offset="0.26" stop-color="#52c2e0"/><stop offset="0.46" stop-color="#369ebb"/><stop offset="0.55" stop-color="#288ba8"/><stop offset="0.58" stop-color="#247e98"/><stop offset="0.73" stop-color="#154858"/><stop offset="0.85" stop-color="#0a2128"/><stop offset="0.95" stop-color="#03090b"/><stop offset="1"/></radialGradient><radialGradient id="radial-gradient-6" cx="-5528.06" cy="4696.71" r="6.61" xlink:href="#radial-gradient-5"/><radialGradient id="radial-gradient-7" cx="-5460.37" cy="4708.24" r="6.61" xlink:href="#radial-gradient-5"/><radialGradient id="radial-gradient-8" cx="-5234.76" cy="4615.66" r="6.61" xlink:href="#radial-gradient-5"/><radialGradient id="radial-gradient-9" cx="-5252.61" cy="4657.41" r="6.61" xlink:href="#radial-gradient-5"/><radialGradient id="radial-gradient-10" cx="-5143.27" cy="4551.36" r="6.61" xlink:href="#radial-gradient-5"/><radialGradient id="radial-gradient-11" cx="-5098.04" cy="4427.7" r="6.61" xlink:href="#radial-gradient-5"/><radialGradient id="radial-gradient-12" cx="-5137.3" cy="4434.31" r="6.61" xlink:href="#radial-gradient-5"/><radialGradient id="radial-gradient-13" cx="-5350.37" cy="4630.82" r="6.61" gradientTransform="matrix(-1.47, -0.79, 0.79, -1.47, -10936.65, 3020.48)" xlink:href="#radial-gradient"/><radialGradient id="radial-gradient-14" cx="492.02" cy="683.1" r="759.94" gradientTransform="translate(-332.62 -208.07) scale(1.67)" gradientUnits="userSpaceOnUse"><stop offset="0.31"/><stop offset="0.36" stop-color="#020202"/><stop offset="0.39" stop-color="#08090a"/><stop offset="0.41" stop-color="#121518"/><stop offset="0.43" stop-color="#21262b"/><stop offset="0.44" stop-color="#333d43"/><stop offset="0.45" stop-color="#3c474f"/><stop offset="0.47" stop-color="#293036"/><stop offset="0.49" stop-color="#171b1e"/><stop offset="0.51" stop-color="#0a0c0d"/><stop offset="0.54" stop-color="#020303"/><stop offset="0.57"/></radialGradient></defs><title>global-background</title><g class="cls-2"><g id="Background"><rect class="cls-3" x="0.46" width="1000" height="625"/></g><g id="Objects"><g class="cls-4"><g class="cls-5"><path class="cls-6" d="M70.08,640.53C105,644,140,645.17,175,646.68c73.06,3.15,146.15,5.58,219.29,5.29s146.37-2.62,219.5-5.8c73.55-3.19,147.07-7.24,220.59-10.94,32-1.61,64-3.93,96-3.33A542.68,542.68,0,0,0,748,471.67c-246-133.38-549.22-57.8-705.81,166.2C51.53,638.68,60.83,639.62,70.08,640.53Z" transform="translate(0.46 0)"/><g class="cls-7"><path class="cls-8" d="M101.52,572.5l.18-.18c1.72-1.77,3.45-3.52,5.2-5.27l.11-.11-.8-.81h0c-2.37,2.39-4.11,4.16-5.5,5.57h0Z" transform="translate(0.46 0)"/><path class="cls-8" d="M47.08,638.3c.94-1.32,2-2.84,3.26-4.64l6.7-9.11v0c1.54-2,3.62-4.74,6.83-8.93h0c3.3-4.12,5.44-6.79,7-8.77h0c1.62-2,3.82-4.6,7.23-8.68s5.72-6.57,7.4-8.48,4-4.44,7.59-8.37l7-7.37-.82-.79h0l-.07.07q-2.34,2.43-4.65,4.87l-2.24,2.4,0,0h0l0,0,0,0h0l0,0-1.51,1.64-2,2.24q-1.69,1.86-3.38,3.74h0l-.64.72h0l-.63.69-.25.28h0L82,592c-1.56,1.77-3.11,3.56-4.67,5.38v0h0l-.11.13-.44.51h0l-.22.26h0l-.15.18-.28.34h0c-1.58,1.86-3.26,3.89-5,6-.2.24-.41.48-.61.74h0l-.46.57v0l-1,1.14h0c-1.3,1.59-2.55,3.16-3.77,4.69L63,614.91h0c-1.8,2.3-4.08,5.27-6,7.78h0c-.26.34-.53.71-.82,1.11l0,0h0c-.27.35-.51.68-.75,1h0l-.68.91c-1.9,2.55-3.36,4.56-4.27,5.82l-1,1.43h0l0,0c-1.59,2.21-2.61,3.63-3.66,5.14Z" transform="translate(0.46 0)"/><path class="cls-8" d="M915.48,612c1.85,2.35,4.24,5.43,8,10.32,3.26,4.39,5.41,7.3,7.07,9.55l1.43,0-.11-.15h0c-.81-1.14-1.51-2.11-2.17-3l0,0h0l0,0c-1.33-1.8-2.87-3.87-4.46-6l-.85-1.12h0l-.08.06.08-.06-3.27-4.27-.61-.79h0l-.24-.32-.43-.55c-1.09-1.4-2.16-2.75-3.51-4.41h0l-1-1.29h0q-2-2.43-3.6-4.44l-.94-1.15h0c-.78-.94-1.64-2-2.68-3.21v0h0l-.31.26.31-.26-.14-.16h0l-.69-.83c-.4-.46-.77-.91-1.13-1.33-1.64-1.94-3.48-4.06-5.39-6.23h0l-.85.75,7.35,8.55C911.13,606.7,913.58,609.7,915.48,612Z" transform="translate(0.46 0)"/><path class="cls-8" d="M60.77,639.61l2,.2a526.5,526.5,0,0,1,45.68-49.24A82,82,0,0,0,111,603.5Q97.76,622,85.91,641.93l2.23.18q11.17-18.75,23.59-36.22c3.46,11.29,9.38,23.8,17.93,37.53l.84,1.31,4,.2c-.79-1.23-1.58-2.46-2.34-3.68-8.84-14.19-14.84-27-18.18-38.54a497.93,497.93,0,0,1,46.74-55.77q9.87-7.26,20.06-14.06c43.68-2.7,105.82,7.6,182.11,31.73q-9.93,11.7-19.54,24.19A759.9,759.9,0,0,0,264.19,650l3.92.12a766.29,766.29,0,0,1,70.45-55q-19.8,26.31-38.14,55.88l3.64.08q20.32-32.67,42.46-61.4,15.62-10.48,31.66-20.11,24.72,8.2,51.24,18.27c45,17.09,90.5,37,135.33,58.94-.4.47-.8,1-1.21,1.42l3.55-.14a.39.39,0,0,0,.08-.1l.18.09c2.08-.07,4.15-.16,6.22-.24-1.47-.72-2.94-1.47-4.41-2.19q11.61-13.7,22.91-26.38c14.06,8.85,28.6,17.53,43.46,26L641,645c-16.08-9-31.79-18.36-46.94-27.9,20.44-22.83,40.06-43.07,58.66-60.51,29.52-27.67,55.38-47.24,76.74-57.79q-7.51,12.36-17.95,30.23c-17.12,29.36-39.23,68.3-65.69,115.75l3.92-.19c25.92-46.69,47.53-85.1,64.25-114.19q10.81-18.81,18.4-31.57l1.27.69q5.6,3,11.14,6.13c9.63,26.74,13.75,62.43,12.52,105.72-.25,9-.76,18.38-1.47,27.94l2.16-.11c.64-9.38,1.09-18.55,1.29-27.44,1-42.82-3.24-78.29-12.87-105.2q10.67,6,21.11,12.08c32.65,32.35,60.34,71.29,82.86,115.79l1.75-.1c-22-43.28-48.89-81.33-80.47-113.23,24.73,14.66,48.36,30,70.17,45.41q18.88,17.13,36.16,36a232.4,232.4,0,0,1,6.92,30.16l2.1-.08a235.55,235.55,0,0,0-6.14-26.88q11.53,12.8,22.33,26.35l1.76,0q-12-15.13-25-29.34c-1.07-3.47-2.24-6.86-3.47-10.18l.22.15a541.72,541.72,0,0,1,44.77,39.2l2.37,0a565.18,565.18,0,0,0-48.56-42.61,192.11,192.11,0,0,0-13.56-27.33l.1.08L860,559.11l0-.09h0a137.89,137.89,0,0,0-17.29-22h0l-.1-.11,3.12,2.63c4.89,4.31,9.27,8.17,14,12.52l.77-.84-.15-.14-.54-.5-.73-.68c-3.68-3.38-7.74-7-12.56-11.2l0,0h0l-.22.25.22-.26c-5.38-4.56-8.71-7.36-12.08-10.09h0c-1.86-1.52-3.62-2.93-5.67-4.55l-.2-.17h0l-.71-.56h0l-2.8-2.18h0l0,0-.09-.07-3.56-2.76-.13.17h0l.13-.17h0l-3-2.25c-2-1.5-4.14-3.08-6.17-4.56l-.74-.55h0l-1.23-.89-2.9-2.1c-1.84-1.3-3.89-2.74-6-4.19l-2.38-1.65-.1.14.09-.14-3-2-1.8-1.22-2.65-1.77-3-2-.87-.58h0l-2.91-1.87-3.35-2.15h0l-3.31-2.07h0l0,0,0,0-2.13-1.32v0h0v0c-1.53-.94-3.8-2.32-6.6-4l-1.47-.86-1.45-.86h0c-1.68-1-3.53-2.07-5.32-3.09-1-.57-2.1-1.19-3.49-2h0q-3.53-2-6.68-3.69l-1.57-.84v-.47l-.34.29-1-.51h0l-.67-.35-.72-.39h0l-.07,0h0c-4.08-2.17-7.46-3.9-9.91-5.15l-.11.22.11-.22c-2-1-3.48-1.76-4.84-2.43l0,0h0l0-.05-4.29-2.08-1.94-.91h0l-1.35-.66v0h0v0c-1.6-.76-3.35-1.59-5.08-2.39-1.39-.64-2.9-1.32-4.88-2.21l-.48,1h0c5.35,2.48,8.77,4.06,11.31,5.25h0c2.54,1.24,5.88,2.87,11,5.41h0l10.54,5.48.67.37a18.4,18.4,0,0,0-2.09,2.4c-2,2.63-5,7-8.82,13.14-15.65-18.57-33.13-33-52.21-43.35q-3.18-1.72-6.42-3.3l5.8,2.12.26.1h0l.39-1.08-.61-.22c-5.5-2-10-3.64-13.92-5l-.36-.13-.14.38h0l.14-.38-.52-.18-.16-.05-.9-.32-.23-.08-1.22-.42-.08.23h0l.08-.23h0l-.38-.13c-1.63-.56-3.2-1.1-4.77-1.61h0l0,.08c-.59-.21-1.18-.43-1.78-.63h0l-1-.31-.35,1.08a161.32,161.32,0,0,1,25.37,11.06c19.08,10.35,36.59,24.77,52.3,43.33a6.37,6.37,0,0,0-1.19-.09l0,0h0a460,460,0,0,0-45-27.91,440.28,440.28,0,0,0-83.64-34.8,170.16,170.16,0,0,1,32.64,3.23,161.09,161.09,0,0,1,15.78,4h0l.34-1.09-1-.3h0l0,0h-.09l-.31-.09-1.13-.35v0h0v0h0c-4.51-1.37-9.62-2.87-16.24-4.77l-.14.46.13-.47-7.11-1.89h0l-1.72-.43-2.93-.76h0c-1.26-.32-2.49-.62-3.79-.93h0c-4.27-1.06-8.29-2-15.07-3.46h0l-.07.31.07-.31c-6.32-1.33-9.43-2-14-2.79h0l-1.81-.34h0l-3.09-.54h0L580,414h0l-3.18-.52h0l0,.24,0-.24c-5.93-.93-8.67-1.35-13.29-1.94h0l-1.33-.18h0l-1.83-.23-7.64-.94h0l-2.59-.29h0l0,.18v-.18l-4.14-.44c-2.5-.25-5-.48-7.22-.67h0l-1.45-.12h0l-2.12-.19v0h0v0c-1.51-.12-3.09-.25-4.66-.36-1.73-.12-3.63-.25-6.11-.4v0l-3.11-.18c-3.3-.18-6.06-.3-8.32-.39h0l-1.07,0-1.61-.06c-2.28-.09-4.52-.15-6.73-.2v0h0v0l-4.16-.07v0l-5.11-.06h0c-1.91,0-3.81,0-5.54,0h0l-1.54,0h-1.48c-1.6,0-3.18,0-4.73.07-2.14,0-4.14.09-6,.15v.32h0l0-.32h-.17l-1.82.06c-2.94.1-5.37.21-7.14.29h0l-2.7.15h0l-.94.05H462c-3.32.17-6,.35-7.92.48l-3,.22h0l-3.94.31c-1.88.15-3.9.33-6.22.55h0l-.73.08-.46,0h-.16l-1.41.14h0l-.24,0h0q-4.31.43-7.92.85l-2.37.28h0v0l-2.55.3c-3.07.38-5.59.72-7.5,1h0l-1.49.22h0l-1.52.21h0c-3.09.44-6.11.9-9,1.37l-1,.16h0l0,.27h0l0-.27h0l-.16,0-.24,0-1.71.28c-2.58.43-5.26.9-8,1.39h0l-1.32.25h0l-1.44.26h0c-2.61.49-5,1-7.26,1.4l-2.65.55h0c-4.87,1-6.64,1.37-11.17,2.43h0l-.78.17h0c-4.11,1-7,1.65-9.44,2.25h0l-1,.25h0c-2.7.68-4.44,1.12-6.24,1.59h0l-2.86.77-1.94.54h0l-1.74.46h0l-5.27,1.47-4,1.16v0l-1.26.38h0l-.13,0h0c-3.15.93-5.67,1.71-7.33,2.23h0l-2.09.67h0l-3.17,1h0c-1.53.49-3.13,1-4.78,1.57l-2.81.95h0l0,.11,0-.11,0,0h0l-.63.21-.3.1h0c-3.91,1.33-5.64,1.93-9.67,3.42h0l-2.34.83v0h0v0l-3.31,1.22c-1.37.51-2.82,1.07-4.85,1.86l.06.15-.06-.15h0l-.09,0h0c-2.71,1.07-6.22,2.44-9.12,3.62h0l-1.13.47h0l-1.4.57h0c-2,.83-4.27,1.78-6.37,2.68h0l-2.51,1.09,0,.05,0-.05-.14.06h0l-.32.14h0q-4.62,2-8.45,3.76h0l-1.29.59h0l-1.35.62h0c-2.43,1.12-5.08,2.37-8.09,3.82l-.46.22-.09,0,.5,1h0l9.91-4.67h0l10.18-4.56h0l10.28-4.33,10.38-4.14h0l10.48-3.91,10.6-3.73h0l10.76-3.52h0c2.44-.76,5.7-1.76,10.79-3.31h.05c5.15-1.46,8.45-2.4,10.93-3.09l11.06-2.89h0l9.64-2.29c-59.23,15.68-114.23,43.3-163.55,82.22q-16.11,12.72-31.13,26.81c-17.17,1.77-31.19,5.75-41.76,11.93l1-.92h0c1.94-1.67,4.56-3.9,8.61-7.36v0h0c4.16-3.41,6.84-5.61,8.85-7.23s4.73-3.73,8.93-7h0c4.16-3.13,6.85-5.15,8.85-6.64h0l8.91-6.43,9-6.23h0l9.22-6.1c4.37-2.76,7.2-4.55,9.31-5.87h0l9.44-5.71,9.59-5.51c2.18-1.21,5.11-2.82,9.65-5.31h0l9.81-5.12h0c2.23-1.12,5.22-2.6,9.83-4.89h0l-.5-1-.08,0-.54.27q-4,1.93-7.82,3.87h0l-1.43.74-1.38.7h0q-4.06,2.08-7.9,4.14l-.57.31.13.25-.14-.25h0l-.3.16h0l-4.09,2.22-1.09.6-3.31,1.84h0l-.86.49h0l-.76.42-.12.07-3.17,1.8-1.75,1-3,1.77-.73.42-.05,0h0l-1.44.85c-1.62,1-2.87,1.71-4.14,2.48-1.11.67-2.28,1.4-3.84,2.37h0l-1.18.72h0c-3,1.88-5.75,3.62-8.14,5.17h0l-1.81,1.17h0c-1.39.9-3.5,2.29-6.12,4.05h0l-1.31.88-1.66,1.12h0c-1.56,1.06-3.68,2.52-6.22,4.29-.35.26-.73.52-1.13.8l0,0h0l-.75.52h0l-.07.06c-2.34,1.65-4,2.84-5.81,4.16l-2.29,1.7h0l-1.46,1.07h0l-2.71,2c-1.3,1-2.57,1.95-4.44,3.39h0l-.15.12-.1.07h0l.22.29-.22-.28c-3.91,3-5.32,4.08-9,7h0c-1.28,1-2.27,1.8-3.19,2.54l0,0h0l0,0-1.85,1.51-3.83,3.19,0,0,0,0-2,1.7,0,0h0l0,0c-1.68,1.42-3.48,3-5.37,4.6h0L133,541.08h0c-1.09.93-2,1.7-2.76,2.39l0,0h0l0,0c-1.09,1-2.23,2-3.39,3-.69.62-1.45,1.31-2.35,2.14l-.31.27h0c-2.38,2.18-4.8,4.43-7.09,6.58h0l-.91.87-1.84,1.74c-.91.87-1.79,1.71-2.6,2.5l0,0h0l0,0c-1,1-2.15,2.1-3.68,3.62h0l.11.11-.11-.11,0,0,0,0h0l-.65.66.81.8h0l.23-.24.46-.46h0l6.2-6c-.64,1-1.25,2-1.8,3-4.06,7.47-5.76,16.27-5,26.32A526.46,526.46,0,0,0,60.77,639.61ZM184.92,530.18a561.48,561.48,0,0,1,141.73-66.55,577.13,577.13,0,0,1,87.67-19.88c1,9.18,5.21,20,12.95,32.4,3.08,4.94,6.66,10,10.67,15.21a494,494,0,0,0-47.75,43.24Q377.35,547.79,365,562.21C290,538.47,228.7,528.05,184.92,530.18Zm466.89-70.72c19,8.31,38,17.33,56.78,26.87-43.83-6.68-90.93-4.84-140.21,5.07a559.66,559.66,0,0,0-99.23,30.07,318.47,318.47,0,0,1-27.15-30c24.88-19.53,50.16-35,75.58-46,5.46-2.37,10.88-4.51,16.28-6.46A550.86,550.86,0,0,1,651.81,459.46ZM537.29,437.78a227.78,227.78,0,0,1,34-9q18.5,5.9,38.74,13.58,16.4,6.24,32.9,13.28A552.44,552.44,0,0,0,537.29,437.78ZM515.73,444c-25.36,11-50.55,26.21-75.32,45.47-3.76-4.91-7.13-9.71-10-14.39-7.65-12.26-11.77-22.88-12.72-31.77a572,572,0,0,1,111.21-4.57C524.5,440.32,520.13,442.06,515.73,444ZM351.31,583.55q7.24-9.19,14.66-18c3,1,6.14,2,9.23,3Q363.14,575.82,351.31,583.55ZM368,563.18Q380.2,549,392.82,536a497,497,0,0,1,46.71-42.56,323.72,323.72,0,0,0,26.57,29.31A667.83,667.83,0,0,0,390,559.93q-5.76,3.27-11.47,6.67C375,565.44,371.48,564.29,368,563.18Zm198.72,81.25c-45-22-90.63-42-135.76-59.15q-25.58-9.72-49.5-17.69c3.31-2,6.62-3.89,9.95-5.79a665.85,665.85,0,0,1,76.28-37.49c31.29,30.54,73.95,63,122.25,93.6Q578.52,630.65,566.74,644.43Zm84.42-89.2q-28.21,26.14-59.24,60.5c-47.85-30.28-90.13-62.45-121.15-92.67A558.12,558.12,0,0,1,569.09,493c50.37-10.28,98.4-12.1,142.92-4.93q8.82,4.53,17.56,9.21C707.66,507.7,681.27,527.32,651.16,555.23Zm94.26-51.41c-.81-2.13-1.66-4.19-2.54-6.21h0l0-.1a13.94,13.94,0,0,0,2.3.61q8.61,7.26,16.8,15.09Q753.77,508.47,745.42,503.82Zm20.93,11.93q-9.24-9-19-17.27h0l-.44-.37a1.9,1.9,0,0,0,.42-.15,535.51,535.51,0,0,1,82.2,57.74C809.65,542.07,788.42,528.65,766.35,515.75ZM877,599.42q-12.84-13.86-26.58-26.77,12.15,8.83,23.44,17.7C875,593.3,876,596.34,877,599.42Zm-50.73-75.78,2.12,1.66c4.45,3.81,9,7.86,13.46,12.53a144.28,144.28,0,0,1,16.56,21.37,166.4,166.4,0,0,1,14.19,27.91q-15.84-12.36-33.37-24.7a537.61,537.61,0,0,0-90.91-65.22h0l-.25-.14a1.15,1.15,0,0,0,0-.19l.49.19-.89-1.43h0l-.11-.17h0a8,8,0,0,0-.89-1.05c27,2.37,46.45,9.37,61.21,17.37A149.2,149.2,0,0,1,826.27,523.64Zm-78.21-45.9c.65-1.57,1.1-2.79,1.37-3.67.07-.26.13-.48.18-.69l1.22.66,0,0,6.07,3.33,10.25,5.91c2.31,1.38,5.39,3.25,10.17,6.14,4.92,3.13,8.06,5.12,10.46,6.66s5.5,3.66,10.44,7c5.29,3.71,8.58,6,11.25,7.93h0L811,512.1c-.81-.46-1.6-.93-2.42-1.38-18.36-10-39.53-15.91-63.43-17.63h0a25.57,25.57,0,0,0-3.1-2h0Q746.17,482.34,748.06,477.74Zm-1.19-2.16c.26-.35.49-.68.71-1A168.26,168.26,0,0,1,741,490.5a26.23,26.23,0,0,0-2.61-1.18l-.28-.1C742,482.85,745,478.27,746.87,475.58Zm-11.37,18h0v0c.3.23.62.47,1,.7l-.06,0h0l-1.8.75C734.92,494.5,735.22,494,735.5,493.54Zm2.18,1.47q.68.42,1.38.81c.74.39,1.49.76,2.26,1.09.85,1.93,1.66,3.94,2.44,6q-4.6-2.55-9.24-5.08l-1.2-.65.24-.4C735,496.15,736.33,495.56,737.68,495Zm-6.57,1c-4.32-2.33-8.67-4.61-13-6.88q7.73,1.39,15.32,3.16C732.66,493.46,731.9,494.69,731.11,496Zm-16.59-8.73c-16-8.23-32.14-16.05-48.38-23.42a524.48,524.48,0,0,1,66.57,26.45,3.07,3.07,0,0,0,.31.71Q723.89,488.87,714.52,487.26Zm-25.36-25.48A461.5,461.5,0,0,1,733,488.88a1,1,0,0,0-.15.2l-.33-.15h0a527.33,527.33,0,0,0-75.82-29.35c-15.08-6.66-30.19-12.89-45.2-18.59q-19-7.22-36.46-12.85a190.3,190.3,0,0,1,26.32-2.4A440.69,440.69,0,0,1,689.16,461.78ZM511.8,408.27c2.85.13,6.58.31,12.47.61h0c6.1.44,9.94.71,12.88.94s6.77.64,12.79,1.23h0c6.35.76,10.31,1.24,13.41,1.64h0c3.11.43,7,1,13.26,1.93h0c6.71,1.14,10.82,1.85,14.15,2.45s7.39,1.46,14,2.78c7,1.6,11.34,2.57,15.08,3.46h0c3.52.87,7.24,1.84,12.87,3.32a175.47,175.47,0,0,0-31.86-2.37q-20.08-5.76-40.66-9.6a435.3,435.3,0,0,0-52-6.51Zm47.78,7.57q18.69,3.48,37,8.57a194.61,194.61,0,0,0-25,2.62c-31.2-9.89-58.5-16-81.17-18.4A435.37,435.37,0,0,1,559.58,415.84ZM456,409.14q6-.33,12-.5c25.45.12,59.34,6.37,99.85,19.06a234.26,234.26,0,0,0-35.53,9.74,572.19,572.19,0,0,0-114.79,4.24,27.21,27.21,0,0,1,2.93-15c2.63-4.86,7-8.77,12.93-11.71S446.93,410.07,456,409.14ZM207.3,504.92l-.33-.41.33.41C257.82,465,314.3,437,375.16,421.61A433.71,433.71,0,0,1,431,411.31h0c3.18-.35,5.57-.6,7.49-.8h0l3.1-.29a54.7,54.7,0,0,0-10.85,3.86c-6.16,3-10.72,7.13-13.5,12.25a28.52,28.52,0,0,0-3.08,15.82A576.47,576.47,0,0,0,326.26,462,561.2,561.2,0,0,0,181.4,530.37c-1.36.09-2.71.19-4,.31Q191.81,517.17,207.3,504.92Zm-93.94,95.37a78.09,78.09,0,0,1-2.26-12.19q15.81-14.79,32.94-28.41,4-3.15,8-6.23A502,502,0,0,0,113.36,600.29Zm2.47-39.14a40.84,40.84,0,0,1,7.63-10C134,542,150.22,536,171.62,533.66q-6.21,5.94-12.23,12.09-8.17,6-16.12,12.31-16.82,13.35-32.34,27.83C110.34,576.42,112,568.17,115.83,561.15Z" transform="translate(0.46 0)"/><path class="cls-8" d="M684.13,443.31c6.65,2.62,10.76,4.24,14.33,5.7h0c4,1.67,8.08,3.44,14.74,6.34l.46-1h0l-.3-.13h0c-6.47-2.85-10.07-4.41-14.42-6.19h0c-1.26-.53-2.53-1-3.86-1.58L694,446h0l-.42-.17h0c-2.48-1-5.29-2.09-8.85-3.47h0l-.14-.06h0Z" transform="translate(0.46 0)"/><path class="cls-8" d="M861,553.31h0c5.06,4.73,9.54,9.11,14.58,14h0c2.06,2.11,4.45,4.58,6.84,7.06l.06.06c2.32,2.41,4.62,4.83,6.59,6.91h0l6,6.63.85-.76h0c-1.45-1.63-2.86-3.2-4.17-4.63l-1.85-2-.25.23.24-.23c-2-2.11-4.32-4.56-6.67-7l-.06-.07c-2.37-2.46-4.74-4.91-6.79-7h0l-.22.22.22-.22c-5.08-5.06-9.36-9.18-13.32-12.88h0l-1.31-1.21-.77.83Z" transform="translate(0.46 0)"/></g><g class="cls-7"><path class="cls-9" d="M943.2,618l0,0-.06.08-.17,0c-.15-.18-1.43-1.8-1.75-1.86-.11.2,0,.31.12.61.28.53,3.82,6.4,5.2,6.84l0,0a.5.5,0,0,0-.08-.32l.63.22C947.2,622.85,943.53,618.39,943.2,618Z" transform="translate(0.46 0)"/><path class="cls-9" d="M538.67,575.45l.73.21c.08.23.18.54.26.78-1.35,1.79-1.35,1.79,11.61,12.44l1.65,1.13c-.2,1.85-.2,1.85.14,2.82a3.31,3.31,0,0,0,1.47.13c.32-1,.76-2.33,1.08-3.33,1.35,2.16,1.35,2.16,3.39,2.22.06.18.06.18,2.49,2.87.1.2.24.48.35.68a3.2,3.2,0,0,0,.59.6l.14.09.1.07.07,0,0,0,0,0h0l.48.22c.61.74.77,1.82,1.69,2.35,0,.35,0,.35,2.76,2l.8-.33L569,600l0,0,.07-.07.08-.08.09-.09.09-.09.08-.09.07-.07a5.29,5.29,0,0,0,.81-1.65l-.11-.88c-.07-.23-.16-.54-.22-.78l-.68-.33c.06-.24.14-.56.21-.79l.74-.35.58.49c.52-.17,1.23-.39,1.75-.57.12.21.27.5.39.72a3.8,3.8,0,0,1-1.13,1.13c.26.38.62.86.9,1.21a2.63,2.63,0,0,0-.75,1.36c1.84,1.07,1.88,1.17,2.27,2.06-.75,1.14-2.43,1.52-2.55,3.17.93.74.93.74,2.5.56a7,7,0,0,1,.81,1.34c-.51.57-.71,1.37-1.34,1.86.29.43.69,1,1,1.41-.91,1.08-1.63,1.93,1.51,5.36-.79.82-2.1,2.19-5.17.53,0-.25-.1-.57-.14-.82-3.26-.76-3.87,1.82-2.85,2.75s3.23,1.33,6.24.88l.88.1.16.76a4.55,4.55,0,0,1,1.54.4c.07.22.16.53.24.75a11.78,11.78,0,0,0-1,1.23c.42.83.7,1.38-.59,3.08.14.45.35,1,.53,1.48,1.8-.74,1.8-.74,2.31-.65,0,2-.68,2.17-1.44,2.41-.07,1.68,0,2,1.49,2.42-.07,2.85-2.23,5.48-.84,8.47-1.75,4.44-6.69,4.36-9.79,6.89l-.54.18h0c-4.07.33-10.53,1.47-10.54,1.48a2.3,2.3,0,0,0-.91,1.35q24.36-.88,48.7-1.93c0-.21-.08-.48-.11-.68,1.32-.94,1.32-.94,1.72-1.61-.35-1.24-1.59-2.14-1.34-3.59a4.27,4.27,0,0,1-1.28-1.91c.84-.6,1.93-.73,2.73-1.41.44,0,.44,0,2.14.85l.93-.42.29-.9c2.31.79,3.84,2.92,6.21,3.63,0-3.78-4.84-5-4.8-8.78l.64-.4c1.53.64,3.31.6,4.66,1.74,4.22-1,2.68-5.45,2.17-6.93-2.19,0-4.38,1-6.58.05,1.5-.72,1.51-.76,1.62-1.8l-.64-.46a8.41,8.41,0,0,1,4.44-.47c1.83-2-1.85-3.55-1.19-5.66a7.86,7.86,0,0,0-4.39-1c0-.23,0-.53,0-.76l.83,0,.13-.74c-.45-.24-.45-.24-4.08-.62a5.48,5.48,0,0,1,2.11-1.07c1.16-.91,1.52-1.26,1.41-2.76-1.27-.84-2.62,0-3.92-.19.05-.27.1-.63.15-.9,7.81-4.55-.52-8.06-.64-8.07l-3.24.31.41-.64c-1.08-.12-2.14.31-3.22.06.29-.35.59-.69.89-1,.11-.21.25-.5.35-.72l-.59-.51a18.2,18.2,0,0,1,1.83-1.59c-.52-.71-.83-1.14-3.49-1.55,0-.23,0-.55.07-.79,1.23-.59,2.76-.19,3.89-1.14l.14-.16.11-.12.08-.08.05-.06,0,0h0c.31-.71,1-2.19-1.84-2.61a4.49,4.49,0,0,0-.56-1.82l.64-.89.57-.91.24-1.12-.62-.82a4.24,4.24,0,0,0-1.39-.74c-.66-8.17-8.73-7.45-10.25-6.16-.18.15-.26.49-.37.7-1.75.36-1.75.36-4.34,3.25l-.79,0c-.41-1.33-.38-1.36,1.41-2.53l.71-1.7-.42-.71-.77.22L587,577l-.72-.2c-.1-.2-.23-.47-.34-.67.1-.22.23-.52.32-.74-2.69-.36-4.79,3-7.71,1.21,2.8-2.11,6.8-1.78,9.29-4.53.89-1,3.69-7.91,4.68-10.89-.12-.19-.12-.19-4-2.21,0-.24,0-.56,0-.79-1.18-.19-2.39-.15-3.58-.34l-.38-.68c-13.52-1.5-14.05-1.56-19.59,4.25.57,1.18,2,1.54,2.54,2.8l-1.3,1.28c-.18-3.75-7.08-.79-7.15-.68-.67,1.11-.67,1.11,1,5.31a11.51,11.51,0,0,0-1,1.53,4.56,4.56,0,0,1-2.32-.56c-.08-.85-.43-5.19,1-7-.48-1.31-.48-1.31,5.47-4.2a11.09,11.09,0,0,0-.06-1.91c.54-.7.54-.7,5.31-2.14,0-.27-.08-.63-.11-.9a2.21,2.21,0,0,1,1.29-.78c3.56-.35,7.15-.06,10.7-.42.6-2.67-1.23-3.94-2.57-4.86-11-6.29-40.13.72-38.11,11.87.17.91,2.28,2.76,3.41,3.54-1,0-1.49,0-3.27-1.11-1.14-.9-1.75-1.35-2.36-1.8-4,3.18-4,3.18-4.13,9.89a11.35,11.35,0,0,0,5.18,1.35A25.66,25.66,0,0,0,538.67,575.45Z" transform="translate(0.46 0)"/><path class="cls-9" d="M536.35,645.63a11.94,11.94,0,0,0-10.06,3.85l14.46-.47C539.54,646.16,538.68,646,536.35,645.63Z" transform="translate(0.46 0)"/><path class="cls-9" d="M495.38,470.35c-.26-.24-.4-.37-1.89-.63l-1.9-.75a7.22,7.22,0,0,0,.81-.33c0-.38,0-.38.61-1.14-.69-1-1.93-1-2.82-1.57a48.3,48.3,0,0,1,3.95-3.17c-.19-.24-.3-.38-2.41-.23-.25-1,.3-2.18-.35-3.18l.11-.28c-1.22-.62-2.65-.43-3.88-1,.15-.29.34-.56.47-.87-2.1-.58-2.45-1-2.9-1.51l-2.87,1.43c-5.18,2.42-6,2.31-7.91,2.09-4.33.28-4.33.28-8.73.32a21.36,21.36,0,0,1-5,.4l-3.17.27-3.59.65-7.61.27c0,.21-.1.48-.13.69,1.41,1.67,1.41,1.67,1.42,1.75-1.68,1.35-1.68,1.35-1.19,2.39l-3.66,1.45c-1,1.94-1,1.94-3,3-1.28.7-1.47.81-.79,1.63,2.82,1.42,6,1.54,8.94,2.55-.49,2,4,1.06,8.81,0a10.73,10.73,0,0,1,2.45-.32l9.53.68c.32,0,.62.14.93.2,6.81,1.38,13.32,4,20.25,4.87a6.22,6.22,0,0,0,1.85-.08c1.55-.3.82-2.08,1.29-3.09.6-1.27.71-1.32,3.49-2.72C496.52,474.16,495.23,471,495.38,470.35Z" transform="translate(0.46 0)"/><path class="cls-9" d="M516.56,501.18c-.81-1.09-5-1.15-5.4-1l-1.09,3.7c-.78.57-1.69.92-2.5,1.44l-.51-.15c.05-.71.05-.71,1.57-3.43-.06-.13-.14-.3-.19-.43-.66.08-1.3.27-1.95.37.33-1.65.33-1.65.22-2.15l.24-.37c-2.76-.72-3.78-.25-11.74,3.4-1.41.65-1.51,2.5-2.91,3.16a47.74,47.74,0,0,0-4.38,2.16c-1.15.9-4.1-.17-4.12-.18a1.79,1.79,0,0,0,0-.83,29,29,0,0,1,6.4-4.21c2.74-1.42,2.74-1.42,4.3-5.54l1.21-.91c.09-.42.09-.42-1.43-2.39-.48.1-.58.12-1.57.39-1.49,3.58-1.49,3.58-2.76,3.48a2.78,2.78,0,0,1-.21-.86c-1.94-.31-1.94-.31-2.09-.4l.17-.64c-4.37-.34-4.37-.34-4.75-1.08,5.78-.55,5.78-.55,6.1-2.82l-.29-.34.27-.31-.21-.36.21-.36c-.14-.42,0-.86-.11-1.28a1.46,1.46,0,0,1-.64-.46l.07-.44a1.74,1.74,0,0,1-.41-.71c-5.48-.18-5.48-.18-5.74,0l.14.42c-1.61.07-1.72,0-2.26-.52,0-.14.08-.32.11-.46-.9,0-.9,0-1.48-.36l.19-.41c2.76-.72,5.65-.39,8.42-1,2.55-1.06,3.72-1.54,3.66-2.76-4.73-1.11-4.73-1.11-5.24-1.5,0-.13,0-.31,0-.44-1.49-.44-2.94-1-4.47-1.37l-.18-.4c-1.33-.29-2.69-.42-4-.67h0l-.3-.13a8.47,8.47,0,0,1-1.15-.71c-.1-.06-9.53-2.35-9.53,1.43-2.65-.39-2.75-.4-3.4-.76h0l-.11-.06c-2.26-.69-4.45.39-6.68.3a2,2,0,0,1-1.43.75l3.07,2.76c0,.12,0,.29,0,.41A4.81,4.81,0,0,1,455,482c-.87,1-.86,1-.76,1.61a23.65,23.65,0,0,0,3.31,1.68s3.68,2,3.88,2.86l.75.4c-.34,0-.34,0-12-4.66-5.33-2.15-6,4.17-5.91,4.55l6.64,6.36a4.22,4.22,0,0,0,1.67,1.08l3.44,5.55c.81,2-1.74,2-3.57.9-.84-3.76-5.08-4-7-6.64.05-.13.11-.3.16-.42-.18-.18-.18-.18-5.55-4h0l-.28-.21c-1.52-.29-1.52-.29-1.84-.48-.29.09-.71.11-1,.18-.13,0-10.35,5.86-5.45,9.88-.23,2.18-.23,2.18-.09,2.31,1.51,0,1.51,0,1.75.07,0,.12-.06.28-.09.41a19.14,19.14,0,0,0,1.68,1.56c-.41,3-3.87,1.94-5.52,3.38a2.73,2.73,0,0,1-.82,2.23c.45.82.45.82.31,1.25,1.12,1.85,3.28,2.42,4.75,3.84.61-.25.77-.21,1.85.93a18.43,18.43,0,0,0,4.08,3.11A138.65,138.65,0,0,0,452.58,525c2.05-.06,4.07-.67,6.14-.33a10.3,10.3,0,0,0,.47.94c-.62.84-1.68.82-2.5,1.26a7.6,7.6,0,0,0,2.46,2.33c-.18,1.56-1.31,2.78-1.55,4.32,2.74,1.44,4.09,4.52,6.91,5.87,2.53,1.22,5.56,1.63,7.38,1-.67-1.71,2.12-2.38,1.25-4.15-1.28-.4-2.59-.09-3.88-.16.35-.36.35-.36,2.18-.91a2.66,2.66,0,0,0-.1-1l.22-.38c.28.1.28.1,1.12,1.44,1.33-.1,2.2-1.35,3.55-1.42.94,0,1.28,1,2.14,1.14.06.13.15.3.22.43-.67.57-.76.64-.37,1.25a2,2,0,0,1,.79.23l1.18,2.36a7.3,7.3,0,0,0,2.67-1.14c2.36-1.3,2.36-1.3,1.47-4.08.39-.67,1.16-1,1.45-1.77-1.49-.58-1.61-1-1.68-1.36a11,11,0,0,0,1.71-2,3.7,3.7,0,0,1-.48-.69c.4-.54.75-1.12,1.12-1.68-2.17-.09-2.17-.09-2.78-.35,0,0,0,0,3.13-4.18a11.42,11.42,0,0,1-1-1.08c1.09-2.52,3.68-1.26,5.47-2,1.23-.53,1.23-.53,5.29-4.34,3-2.8,6.64-4.73,9.64-7.5,1.42.92,5.54,2.58,13-2-.07-.58.36-1.15.1-1.74C518.39,502.51,517.26,502.13,516.56,501.18Z" transform="translate(0.46 0)"/><path class="cls-9" d="M604.88,498.51c0-.05,0-.05-.47,0-.42-.42.55-.78,1-.94,1.24-.46,1-.9,1-.9a1.72,1.72,0,0,0-.46-.29c-.32-.17-.77-.4-.71-.6l0-.1c.22-.36-.1-.71,0-1.08l.2-1.1-.08-.12s-1.58-.83-2-.7c-1.23.36-6.67,2.65-7.13,3.39.58,0,.58,0,.68,0s.12.38.25.54.26.1.35.22l0,.09-.72,1.26a14.16,14.16,0,0,1-1.83-1,.47.47,0,0,0,0,.68c.18.19,0,.32-.34.51a5.19,5.19,0,0,0-1.71,1.22c-.18.39.19.72.43.94.25,0,2.41.21,2.43.21l-.12.07v.06l-.19,0a.5.5,0,0,0,.14.77c.64.31,1.38-.08,2,.3,1.17.7,1.17.7,1.64.74,1.26.12,1.26.12,1.56,0,1.59-.56,1.58-.79,1.56-1.13s0-.51,2.17-.35h.07c0-.16.27-.29.84-.54a1.69,1.69,0,0,0,.57-.35C606.17,500.26,606.3,500.08,604.88,498.51Z" transform="translate(0.46 0)"/><path class="cls-9" d="M601,506.74c-.11-.18-.1-.41-.21-.59s-.48-.09-.49-.39c0-.15.14-.26.13-.41l-.16-.24c-1.22-.91-2.86-.79-4.08-1.68.12-.36.05-.45.05-.45-.13-.17-.35-.17-.51-.27s-.15-.3-.29-.4l-.14-.05s-2.87-.15-3.39.17c-.24.14-.39,1.3-.38,1.31,0,.35.46.19.62.41-.09.38-.57.42-.66.79,0,.13,0,.13,1.23.54a7.27,7.27,0,0,1,.91.5l.26.11c.77.28.77.28.87.4l0,.05.6,1.24,0,0c.23.16.55,0,.76.21.5.58.5.58,1,.78a5,5,0,0,0,2.82-.32,6.56,6.56,0,0,0,1.54-1.16C601.52,507,601.11,507,601,506.74Z" transform="translate(0.46 0)"/><path class="cls-9" d="M605,512.13a1.85,1.85,0,0,0-.86.25,3.48,3.48,0,0,0-1.56,1.45,1.27,1.27,0,0,1-1.26.56c-.23,0-.41-.07-.54.13l-.33.77.36.38h.05a4.39,4.39,0,0,0,1.14-.33,2.52,2.52,0,0,1,.71-.2c-.42.43-.47.6-.5.7l.05.09c.16,0,.3-.17.46-.05,0,.18,0,.18,0,.24.05.26.27.45.33.71s-.13.35-.08.55l.09.09c.36.23.78.13,1.17.2l.14,0a1.58,1.58,0,0,0,.84-.25,22.17,22.17,0,0,0,2.27-1.37c.21-.18.22-.27.27-.58,0-.15-.11-.25-.13-.38s0-.56,1.18-1c.31-.11.31-.11.39-.22l-.18-.24S606.35,512,605,512.13Z" transform="translate(0.46 0)"/><polygon class="cls-9" points="579.41 507.81 579.41 507.81 579.41 507.81 579.41 507.81 579.41 507.81"/><path class="cls-9" d="M614.55,550.39c.68-.8.68-.8.71-1.21A26.23,26.23,0,0,0,613,547c.09-1.72.09-1.72-.54-2.54l-.1-.07-.12-.08-.14-.1-.15-.1-.13-.09-.11-.07-.08-.05,0,0c.46-.35.46-.35.48-.74a5.52,5.52,0,0,0-1.31-.65,1.1,1.1,0,0,0,0-.51,18.37,18.37,0,0,0-4.58-.29c.63-1,.63-1,.65-1.23-.46-.19-.66-.34-.89-1.15-.27-.09-.42-.38-.72-.43-1.34-.26-2.69.11-4,0-1.08-.12-1.94-.9-3-1-2.11-2.52-3.18-1-3.46-.53a2.93,2.93,0,0,1-1.4-.77l.13-.23a10.75,10.75,0,0,1-.1-2.2c-1-1.2-2.61-1.26-3.79-2.12.06-.39.25-.73.34-1.11s-.45-1.17-1.66-.66c-.78-.31-1.2.5-1.86.58-.14-1.26,2-2.27,2.26-2.38a1.12,1.12,0,0,0,.77-1.23c0-.59-.65-.68-1-1.05.28-.39.76-.45,1.14-.67.06-.85.06-.85-1.87-1.48a2.07,2.07,0,0,1,1-.19,1.28,1.28,0,0,0-.33-1.16c1.53-.16,1.56-.16,2.13.44a.81.81,0,0,0-.18.51c.45.36,1,.53,1.48.85l.16.12.1.07.05,0,0,0h0l0,0,.05,0,.1.08a2.14,2.14,0,0,0,.74.41l1.38-.72c-.18-.81-.18-.81-1.15-1.69a7,7,0,0,0,0-1.86c.55-.49.55-.49,1.1-3-.21-.2-.39-.43-.61-.61,0,0-2.14-1.57-2.82-1.48s-1.45.19-1.95-1.19a6.69,6.69,0,0,0-1.24-.19,7.45,7.45,0,0,0,2-2s-.19-1.61-.46-1.83l-.2-.1c-.89-.37-1-.6-1-.69-.09-.27.24-.55,0-.81a3,3,0,0,1-.87-1.7,10.13,10.13,0,0,0-1.76-1.59,6.73,6.73,0,0,0-4.68-.08,7.57,7.57,0,0,0-1.74.81c-.3.29,0,.6,0,.9l.11.06c0,.12,0,.12-.08.29l0,0h0c-.35.95-.35.95.41,1.23,0,0,1.13.43-.79.58-.68.05-.7.11-.73.22s.07.17.27.31l.2.19c0,.28-.33.32-.32.57a.88.88,0,0,0,1,.37c.15,0,.15,0,.22,0-.1.28-.17.56-.26.84.1.13.33.1.38.3l-.09.15a1,1,0,0,0-.13,1c.09.29.66.5.37.81a6.25,6.25,0,0,0,.73.71s2.32.65,2.64.66a2,2,0,0,0,1.77-.82c.19-.2.31-.32.45-.32h1.21c-1.5.41-2.54,1.68-4.18,3.67a1.77,1.77,0,0,0,.46.4c-.06.32-.06.32-.42.67-.55.53,0,1.46-.71,1.93a10.12,10.12,0,0,0-1.77,1.3,7.57,7.57,0,0,1-.7.57c-.91.6-1.91,0-2.85.21-1.68.41-1.83.53-2.15.78l-4.36,4.33a2.35,2.35,0,0,1,.29.54,4.09,4.09,0,0,0-.45.56,1.42,1.42,0,0,0,1.71,2l1-.57.9.16c-1.27.83-1.27.83-1.75,2.47l.55.8.57.42c2.63,1.52,2.63,1.52,2.79,1.54,1.55.09,3.1-.4,4.66,0-.11.3-.16.41-2,1.46l-1.21,1.19c.87.5,1.56,1.23,2.41,1.75s2.07-.08,3,.5a2.5,2.5,0,0,0-.42.78c.23.46.52.62,1.19.67l.77.94c.73.17,1.49.18,2.24.28.11.26.09.55.19.82a1,1,0,0,0-.08.57,1.92,1.92,0,0,0,1.17-.23c.19.19.41.34.6.53a.63.63,0,0,0,.3.78l.83.1.9.49c0,.31-.07.63-.05.94a35.33,35.33,0,0,0,4.62,1.92c1,.09,1.2-1,2-1.34h0c.67.74.64.92-.21,1.4-1.3.72,2.89,5.21,3,5.25,1.77.29,1.77.29,5.87,1.86a24.73,24.73,0,0,0,2.69-2c1.57-1,2.25,1.77,3.82,1.06l0-.18c-.43-.47-.43-.47-.51-.85a3.54,3.54,0,0,0,.44-.65c.58-1.39,2.1-.88,3.06-1.53C616.11,551.81,616,551.68,614.55,550.39Z" transform="translate(0.46 0)"/><path class="cls-9" d="M600,488.5c-.1-.07-.1-.07-.9-.12s-.93-.06-1.05-.17c.61-.83,1.72-.94,2.41-1.64v-.29l.32-.28a3.67,3.67,0,0,0-.81-.94,1.92,1.92,0,0,0,.14-.33,20.84,20.84,0,0,0-3.32-.28c-.68,0-.68,0-.83,0,1.41-.69,3.1-.58,4.43-1.52l.17-.19c.1-.33-.2-.64-.07-1s.45-.47.54-.8v-.1c-.3-.15-.66-.07-1-.23-.87-.45-.87-.45-.9-.73,0-.09,0-.24-2.1-1.54a2.93,2.93,0,0,0-.82-.29c-.71-.11-3.24-.06-3.91.82.19.36.66.44.83.82l-.19.62a3,3,0,0,1-1.32,0,4,4,0,0,0-1.17.4,1.43,1.43,0,0,0,1,.76c1.63-.31,1.63-.31,2.17-.05,0,.34.44.27.54.53-.4.17-.84,0-1.25.11a10.08,10.08,0,0,0-1.5.67,2.69,2.69,0,0,1,.82.48v.12a13,13,0,0,1-1.81.75l.28-.2,0-.12c-.72-.37-.72-.37-.73-.48-.17,0-.17,0-.26.18a1.14,1.14,0,0,0,.2.38c-.15.06-1.43.58-1.51-.07-.09-.07-.2-.09-.28-.17.11-.61.92-.48,1.09-1-3-1.09-5-1.58-6.13.76.19.42-.35.55-.52.83a2.15,2.15,0,0,0,1.12.52c.38.11.33.59.66.74s.71,0,1.06.08l2.49.73c-.4.24-.91.28-1.24.65.47.05.45.18.41.58.23.23.6.08.83.31.75.75-.74,1.18-1.3,1.34.84.54.84.54,1,.4,1,.79.73.92-.15,1.35,0,.24,0,.24-1.08.81-.2.1-.2.1-.8,1-.39.57-.47.88,0,1.33h0l.06,0a3,3,0,0,0,.86.61c-.07.53-.21,1.64,3,1.33a2.37,2.37,0,0,0,.46-.11c0-.3,0-.3,2.37-1.16.29-.1.29-.1,1.22-1,0-.18,0-.42,0-.6,1.57-1.15,1.57-1.15,2.3-1.24,2-.24,2-.24,2-.3s.85-.61-.31-.84a2.42,2.42,0,0,1,1.45-.89,2.71,2.71,0,0,0,1.18-.49c-.1-.13-.29-.17-.37-.33S600.16,488.63,600,488.5Z" transform="translate(0.46 0)"/><path class="cls-9" d="M583.27,489.78a3.84,3.84,0,0,0-1.46-.46l-1.22.05-.24.1s-1,.65-.91.91l0,0c.09.1.23.13.34.21s.1.26.2.35.19.18.19.22c0,.3,0,.3,0,.34.27.21.45.51.73.69a3.32,3.32,0,0,0,1,.47l.22,0,1-.51a4.84,4.84,0,0,0,.86-1,1,1,0,0,0,0-.89Z" transform="translate(0.46 0)"/><path class="cls-9" d="M497.26,553.9a20.34,20.34,0,0,1-3-1.35c.05-.29.05-.29,0-.37-.49-.31-1.52.24-1.6-.56-.11-1,.95-1.2,1.36-1.85l-.85-2.65s-.44-.58-.66-.83c-1-.72-5.37.63-6.29,1.54a4.15,4.15,0,0,1-1.6.7,5.54,5.54,0,0,1-1.15-.12c-.49,0-.89.32-1.37.34a2.78,2.78,0,0,1-.57-.07s-.94-.53-1-1.06c-.06-.72-1.33-.76-1.35-.76-1.14.14-1.78,1.23-2.86,1.51a5.72,5.72,0,0,0,2.75,2.63c.48.15.48.15.6.3-.41.55-1.58.07-1.65,1s1.09,1.08,1.45,1.77c1.4,2.76,1.4,2.76,2,3.05.26.13.28.15.27.25a9.24,9.24,0,0,0-.11,1.75c.1.28.44.32.58.57s0,.57.18.84l.08.12a.86.86,0,0,0,.58.38,4.78,4.78,0,0,0,1.73.13,3.05,3.05,0,0,1,1.38-.33s2.66.57,3,1c.71,0,.71,0,.94.24a18.12,18.12,0,0,0,1.54-1.36c.2-.63-.52-.78-.73-1.2.19-.14.65-.48.69-.82l-.39-2.11c.77-.52,1.41-1.2,2.12-1.79l.17-.12c.65-.23,1,.44,1.47.56-.23.58-.78,1-.91,1.64-.07.4,0,.55.48.61.68.1,3.87-.54,3.82-1.41C498.37,556,498,554.24,497.26,553.9Z" transform="translate(0.46 0)"/><path class="cls-9" d="M538.89,516.83c-.08,0-1.92-.2-2.35.27.05.31.2.59.23.89-1.8,1.84-2.64.21-1.53-1.72a1.17,1.17,0,0,0,0-1.42c-1.21,0-1.21,0-1.31.15s-1.46.07-1.47.07c-.26-.09-.26-.09-.35-1.32-1.6-.47-1.6-.47-1.89-.37-2,.69-2,.69-2.4.52l.07-.18c-.42-.61-.54-.59-3.62,0l-.07.15.49.29c-.42,1-1.66,1.07-2.14,2,1.53,2.43,1.53,2.43,1.53,2.46s-.62,2.39-2,.72c-1.15-.11-1.23,1.16-2,1.55s-.8-.66-1.36-.69a13.81,13.81,0,0,1-2.22-.28.48.48,0,0,1-.36-.47c0-.06,0-.25.33-.61a23.47,23.47,0,0,0,2.67-3.95c-.2,0-.2,0-.51-.13,0,0-4-1.66-6.35.65,0,0-1,1.27-1.15,1.45L511,517a9,9,0,0,0-.53,1.77c-.19.55-1,.46-1.1,1.12-.17,1.32,1.74.9,2.06,1.93-1.07.67-1.07.67-1.1.88a1.09,1.09,0,0,0,.51.16c.91,1.7-1.35,2.42-1.35,3.87.47.36.47.36.47.44-.08.61-.62,1-.72,1.61-.29,1.77-.82,2.25-2.12,3.39-1,.9-.84,1.49-.72,1.92.22.75,1.08.32,1.48.74-.05.23-.05.24-.33.45,3.66-.12,3.66-.12,4.23-.55.93-.69,1.57-3.19,2.75-2.07v.17c-2.15,2.17-2.15,2.17-2.1,2.54a2.16,2.16,0,0,1,2.14.23,6.87,6.87,0,0,0,1.5.79c.37.06.37.06,2-.23.84-.16,1.46.7,2.31.53,0,0,3.36-1,4.63-2.53s3-1,4.43-1.66c1.73-.75,1.55-1.55,1.49-1.7a.55.55,0,0,1,.4-.76c1.21-.43,2.6-.15,3.73-.91.09-.07.09-.07.55-.82-.6-1.67-3.43-1.21-4.07,0,.13.22.37.34.46.6-.95,1-1.11,1-2.79.54l-.05-.15c2.48-2.38,2.48-2.38,2.6-3.46a31,31,0,0,1-3.84-.53.6.6,0,0,1,.16-.35,2.24,2.24,0,0,0,1,0c.72-.09,1.42-.31,2.15-.37.46,0,.91-.16,1.38-.19a10.22,10.22,0,0,1,2.39.35c1.22.21,2.25-.75,3.46-.57l.15.31c3.52-.13,3.54-2.22,3.54-2.91-.69-.52-.69-.52-.83-1a2.76,2.76,0,0,0,2.61-1.08,2.89,2.89,0,0,1-.8-.68C541.86,517.81,539.42,519,538.89,516.83Z" transform="translate(0.46 0)"/><path class="cls-9" d="M574.91,504.42c-.22-.55-.22-.55.18-1.07l0-.15a4.71,4.71,0,0,0-2.54-.56,1.84,1.84,0,0,1-1.38-.53c.1-.22-.15-.43,0-.65a1.74,1.74,0,0,1,.65-.37c1.87-.77,1.87-.77,1.89-.82-.25-.28-.76-.17-.91-.6l.08-.13c-.73-.1-1.89,1-2.19,0,.13-.24.37-.36.55-.55-.5-1.15-1.77-.31-2.58-.71v-.15c1.22-.44,1.22-.44,1.27-.49s-2.86-1.45-4-.2c.63,1.33.63,1.33-1.15,2.07l0,.15s1.14.67,0,1.85c-.85.9-.85.9-1.55,1.21s-.84.48-.63,1a4.43,4.43,0,0,1-.76.4c-.18-.2-.28-.32-.11-1.55.06-.47.42-.82.49-1.28l.26-.25c-.24-.9,1.69-2.39,1.71-2.41.23-.18.24-.21.3-.38-.29-.14-.67.13-.92-.2s0-.74,0-1.1c0,0-4.14-1.25-5.61,2.42.21.49.21.49.21.63-1.46.77-1.46.77-1.64,1.47-.14.52-.23.81-.52.74l-1-.92c0-.23,0-.23.74-.85v-.15h0c-.5-.59-.09-.71,1.68-1.22-1-.29-1-.42-1-.68l-.2-.18c.1-.17.1-.17.42-.35a25.39,25.39,0,0,0,3-2.1c.39-.37-.47-.69-.2-1.13s1-.18,1.25-.62l-.11-.14h0l-.08-.07-.05-.15c.26-.43.67-.76.9-1.22s-1.46-2.06-2.49-1.93a2.3,2.3,0,0,0-.49.15,7.33,7.33,0,0,0-3,1.92c-1.38,1.19-3.31.22-4.75,1.19a4.64,4.64,0,0,0,.78.3c.14.42,1.1.84,1.67,1.05-.72.78-1.84.66-2.67,1.19.78,0,.78,0,1,.12a1.33,1.33,0,0,0-1,.83l.67.58a.71.71,0,0,1,.54.32c-.11.22-.15.61-.36.71-.93.45-2,.45-2.94.88l-.05.23a9.86,9.86,0,0,0,1.05,1.35c1.47-.32,1.62-.35,2.81.35,0,.33-.33.54-.36.87a18,18,0,0,0,1.38,1.36c.66.3,1.36,0,2,.15s1.11.76,1.79.89a.93.93,0,0,1,.41.16,12.75,12.75,0,0,1-2.83,0c-2.08.15-2.08.15-3,1.19-.2.21-.34.36-1.93.83l-2,1c.78,1.58,1.41,1.94,1.64,2,2.39.85,2.39.85,2.94,1.67-.46,2.33,5.74,1.52,6.43,1.08l-.15,0c.06-.29.43-.32.51-.6-.53,0-.76,0-.61-.52a15.69,15.69,0,0,1,2.8-1c-.25.32-.25.32.22.65-.35.43-1,.52-1.21,1.11.12.2.54.59,1.7-.13,1.35-.83,1.35-.83,2.38-.91l.2-.06c0-.21.13-.56.94-1.15.46-.63.46-.63,6.6-3.13,0-.24,0-.24,3-1.51l0-.2C574.58,505,574.6,505,574.91,504.42Z" transform="translate(0.46 0)"/><path class="cls-9" d="M567.19,513.32a13.68,13.68,0,0,0-1.39-.28c-.44-.14-.8-.44-1.23-.57a1.21,1.21,0,0,0-.41-.07l-.3.07-.86.3s-.53.62-.43.82l.12.2c.07.17,0,.38.18.54s0,0,.44.09h0c1.31.17,1.31.17,1.6.23a4.91,4.91,0,0,1,.81.2l.27.08,1.29-.31C567.55,513.75,567.57,513.56,567.19,513.32Z" transform="translate(0.46 0)"/><polygon class="cls-9" points="563.66 514.4 563.73 514.41 563.73 514.41 563.73 514.41 563.66 514.4"/><path class="cls-9" d="M571.72,518.24c-.15,0-.15,0-.49-.71l-.22-.21.06-.33,0-.06c-.19-.27-.55-.13-.78-.32s-.3-.59-.54-.83c-.14-.09-.14-.09-1.43,0-.44,0-.86.14-1.29.16-1.75.08-1.75.08-2.22-.2a.93.93,0,0,0-.49-.07l-3.31.15-2.09.71c-.48.17-.7,1.54-.69,1.55l.19-.09.06.16c.11.69-.12,1.39,0,2.09.19,1.07,1.08,1.95.81,3.13a1,1,0,0,0,.07.7l1,.91a7.56,7.56,0,0,1,1.15.33c.2.12.12.39.27.53.32.32.32.32,3.9-.88a4.28,4.28,0,0,0,.9-.62l-.16.11c1.26-1.13,2.81-1.89,4-3.11.22-.22.14-.54.28-.79a13.52,13.52,0,0,0,1.23-1.76S572.07,518.19,571.72,518.24Z" transform="translate(0.46 0)"/><path class="cls-9" d="M556.38,520.83l-.16,0c-.1,0,0-.15-.08-.23s0-.05-.17,0c-.31.06-.58.21-.88.28s-.33,0-.49,0h0c-.06,0-.15.18.15.58.12.16,0,.25-.3.49l-.12.12v.06a1.86,1.86,0,0,0,.28.21,1.27,1.27,0,0,1,.35.4l.11.14c.07.05.14.05.27,0l.08,0,1.27-.72L557,522l.25-.19a.86.86,0,0,0,.15-.89A2.91,2.91,0,0,0,556.38,520.83Z" transform="translate(0.46 0)"/><path class="cls-9" d="M575.51,514.84h0c-.43-.22-1.75.44-1.81.48l-.42.59v.2a.48.48,0,0,0,.12.13c.17.13.37.22.54.35s.15.19.25.26l.34.14c.13,0,.17,0,.27-.12s.16-.23.25-.34l.25-.29a9.74,9.74,0,0,0,.68-.9h0Z" transform="translate(0.46 0)"/><path class="cls-9" d="M541.07,480.66l.69.27c.24,1.19-1.1,1.33-1.48,2.12-1.66.21-3.16-1.24-4.88-.48.24.78.24.78,0,1.28.2.36.58,1,0,1.43,0,0-3.41.46-3-.93-2.11-1-2.11-1-2.13-1.09.32-.26.75-.19,1.1-.34-.14-.25-.45-.4-.42-.75a6,6,0,0,1-2-1c1.25-.53,2.66-.52,3.91-1.08.4-.18.27-.69.56-.94-.1-.19-.49-1.19,1.37-2.3,0-.3-.2-.53-.27-.8.37-.54,1.22-.57,1.43-1.3-.42-.33-.58-1-1.25-1-.4-.51-1.06-.63-1.56-1,1.44-.64,3.24-.45,4.32-1.91,0,0-2.53-1.48-2.94-1.63a13.11,13.11,0,0,0-4.68-.51c-.3.15-.3.15.79,2.46-.19-.11-.19-.11-1.74-1.91h-.06c-.19-.24-.19-.24-.32-1-.53-.37-5.11-1.08-5.33.93a5.91,5.91,0,0,0,2.5,1.53c.79.18,1,.47.7.86-.94,1.14-4.35-2.87-4.36-2.94-.77-.45-3.91-.91-5-.35.14,1.06.25,1.9,3,2.68.49.14.94.35.93.93a14.15,14.15,0,0,0-3-.86c-1.46-.23-1.46-.23-1.82-.53.28-.88-.54-1.44-.62-2.21-4.08.08-4.08.08-5.26.67h0l0,0,0,.05.06.07.09.1.12.13v.32a1.89,1.89,0,0,0-.48.36c.32,1.3,2,.25,2.53,1.3-2,1.07-2,1.07-2,1.52,0,0,.93.3,2.15.66-.15.2-.21.28-1,.57l0,.23c1.15,1.18,1.15,1.28,1.16,1.64,1.45.52,2.79-.35,4.19-.36-.17.6-.17.6-.16.69,1.07-.09,2.1-.39,3.15-.56l.19.14c-.24.84-.28,1-3.75,1.17-2.39.13-1.37,1.78-1.36,1.8,1,0,1.83-1.13,2.94-.48,0,1.48,1.9.9,2.77,1.48-.3.43-.4,1-.7,1.4.07.08.07.08,2.43.52l-.05.21a19.64,19.64,0,0,1,3.15.91c-1.56.59-5.88-.32-6.59-1.4-1.92-2.89-11.14-3.83-11.2-3.79.15.59-.61,1.08-.17,1.69-.14.64-.94.93-.87,1.68s1,1.28,1.18,1.41c2.76,1.86,2.76,1.86,9.5,3.54l2.14.25-.12.19a.83.83,0,0,1,.37.27l-.17.15a12.1,12.1,0,0,0,2.29,1.31c1,.3,2.11-.05,3.14.27l-.45.15c2,0,1.92,1.42,1.88,2.45.76,0,1.52-.1,2.29,0,.51.05.51.05-1.15,1.33,2.39,1.87,2.39,1.87,3,2,1,.22,2,.38,3,.58,1.2.24,2.27-.56,3.45-.47,1.84.12,3.46-.8,5.21-1.11l-.21.12a8.4,8.4,0,0,0,3.11-.49c.76-.24,2.17-.69,2.61-1.53-.31-.88-.33-.93-.23-1.23-.63-.31-1.07-.93-1.81-1.06-1-.18-2,.36-3,.23.33-.33.42-.82.76-1.14-1-.42-2.2-.34-3-1.24a8.13,8.13,0,0,0,3,0,1,1,0,0,1,.31-.58c-.43-1.28-.43-1.28-.25-1.41.64-.49,1.41-.07,2.09-.3a12.1,12.1,0,0,0,1.67-1c2-1,4.51-.59,6.28-2.27a9.5,9.5,0,0,1-.91-1.08C551.82,479.7,542.11,479.38,541.07,480.66Z" transform="translate(0.46 0)"/><path class="cls-9" d="M524.63,464.93c-.25,0-.44-.22-.68-.25-.87-.12-1.75-.11-2.62-.19l-1.11-.19a32.43,32.43,0,0,0-6.48-.73,8.71,8.71,0,0,0-1.32,1.2l0,.05a.37.37,0,0,1,.31.26c.29.68,3,1.1,4.17,1.25,1.41.18,6.47-.08,6.5-.09a1.79,1.79,0,0,0,1.61-1.48C524.75,464.93,524.75,464.93,524.63,464.93Z" transform="translate(0.46 0)"/><path class="cls-9" d="M548.41,462.86c-1.29-.11-2.58.12-3.87,0-.13-.31.22-.61,0-.92-.49-.76-1.31-1.19-1.84-1.9l-.58-.44c-3.61-1.29-7.46-.95-11.16-1.61l.2,0c-8-1.21-8.41-1.62-8.74-1.94-.92-.92-1.27-1.27-6-1l-.1.18h0l.07.11c-.11.19-.22.4-2.27.38,0,0-2.08,0-2.31.88,1.07.29,2.27.1,3.21.85-.16.22-.44.35-.52.65a1.69,1.69,0,0,1,.56.42l0,.23a2.09,2.09,0,0,1-.48.22l-.09.2a5.45,5.45,0,0,0,1.83,0c.76-.11,1.5-.32,2.27-.36l-.13.14c.07.16.07.16.47.37-1.31,1-3.27.13-4.42,1.57.23.6,2.86,1.59,5,1.26l-.09-.18a8.61,8.61,0,0,1,2-.54l.13.15a9,9,0,0,0-.66,1,19.21,19.21,0,0,1,4.09,0h0l.12.12a5.5,5.5,0,0,0,2.8-.35h4.64c.52,0,.52,0,.69.09-1.64,2.33-4.86.32-6.6,2.39-.63.76,1.55,1.28,1.58,1.29,1.44.24,2.82-.34,4.24-.3.58.82,1,1.47,3.92,1.34a6.8,6.8,0,0,0,2-.77c.72-.26,1.42.25,2.14.05a23.45,23.45,0,0,0,2.15-1.1,13.9,13.9,0,0,0,4.84,1,5.39,5.39,0,0,0,2.46-1.44,2,2,0,0,1-.18-.54C548.52,463.29,548.52,463.29,548.41,462.86Z" transform="translate(0.46 0)"/><polygon class="cls-9" points="516.82 459.16 516.5 459.2 517.3 459.1 517.32 459.1 517.18 459.11 516.82 459.16"/><path class="cls-9" d="M543.57,470.56l-.26-.2h0c-.21-.22-.56-.19-.77-.41s-.15-.45-.34-.62l0,0a.83.83,0,0,0-.46-.14s-1.85-.16-2.48.74l0,.16c.05.19.29.21.34.4s-.17.34,0,.53l.37.43c.26.22.64.15.92.34s-.06.28.09.37.15.09,1.83-.06h0l1.23-.43A2.59,2.59,0,0,0,543.57,470.56Z" transform="translate(0.46 0)"/><path class="cls-9" d="M560.44,465.8a4.93,4.93,0,0,0-1.8-.35,5.18,5.18,0,0,1-.65,0l-.16-.05a7.44,7.44,0,0,0-1.07.18c-1.72.5-1.55.66-1.4.8.84.8.64,1.16.51,1.4s.28.2.44.23c.39.08.79.11,1.19.19a6.45,6.45,0,0,0,.75.22,2.81,2.81,0,0,0,.73-.05c.54-.08.6-.13.68-.2.45-.38.45-.38.46-.56l0-.27c.28-.32.67-.52,1-.81s.08-.24,0-.3A1.15,1.15,0,0,0,560.44,465.8Z" transform="translate(0.46 0)"/><path class="cls-9" d="M568.4,472.82a5.47,5.47,0,0,0-1.72-1.08c-.53-.29-1.23,0-1.7-.51-.31-.35.46-.51.48-.88l-1.86-.5c-.58-.14-1-.61-1.54-.78l-1.55-.2a47.21,47.21,0,0,0-5.85.85c-1.08.19-1.29.42-1.34.51-.16.32-.16.32.74,1.25.41.43-.67.54-.76,1l.85.57.88.4,1.12.58,0,.19c.38.57,1.06.24,1.55.5s1,.63,1.48.89a4.34,4.34,0,0,0,2.19.34,19.28,19.28,0,0,1,2-.44l.75-.5c.19-.32.09-.68.14-1a3,3,0,0,1,2,.23c.19.15.7,0,.65.33s-.06.46.34.58a6.4,6.4,0,0,0,2.09.06l.32-.06.05-.08C568.81,474.56,569,473.48,568.4,472.82Z" transform="translate(0.46 0)"/><path class="cls-9" d="M578.9,470.85c-.71-.59-4.16-1.11-4.19-1.12-2.23-.33-2.82-1-2.83-1a.12.12,0,0,0-.08-.18c-.26-.1-.47-.32-.78-.34a7.26,7.26,0,0,1-1.21-.28v-.07c-.38-.23-3.13-.75-4-.2,0,.07,0,.07.73.37.35.15.17.51.26.76.55.16,1.13.15,1.68.32a2.27,2.27,0,0,1,.68.42l0,.16.21.23c-.33.56-.33.56-.39.6-.23.17-.38.28-.23.4.67.54,1.44.08,2.14.22l-.05,0s0,0,.65.3l0,.07c-.3.11-.33.12-.39.21a.47.47,0,0,0-.05.47c.16.36.65.34.82.7s-.21.87.27,1.14c1.19.67,1.82.74,3.76.41a9.08,9.08,0,0,0,2.09-.58,6.17,6.17,0,0,0,.92-1.12c.51-.85.51-.85.81-1v-.08C579.44,471.39,579.15,471.14,578.9,470.85Z" transform="translate(0.46 0)"/><path class="cls-9" d="M573.56,483.29c-.64-.51-4.08.48-4.21.54s-2,.94-2.34,1.22a6,6,0,0,0-1.54,1.7l-.15.24c-.17.18-.42.27-.58.46s0,.28,0,.3c.23.21.55.22.82.35s.33.38.53.53c.72.56.72.56.89.53a9.66,9.66,0,0,0,1.58-.78c.18-.14.23-.39.41-.53s.71-.38,1-.64l.19-.17a3.27,3.27,0,0,1,.84-.62,5.52,5.52,0,0,0,1.21-.72l1-1.22C573,484,573.86,483.79,573.56,483.29Z" transform="translate(0.46 0)"/><path class="cls-9" d="M543.35,496.66a9.17,9.17,0,0,0-3.44,0c-2.45.56-2.76,1.11-3,1.51s0,.36.16.49a1.41,1.41,0,0,1,.42.32c.11.14.1.33.2.48.55.79.6.82.7.86a9.41,9.41,0,0,0,2.66-.3l2.4-1,.23-.18A2.7,2.7,0,0,0,543.35,496.66Z" transform="translate(0.46 0)"/><path class="cls-9" d="M603.77,570.6c-.21,0-.41-.11-.64-.77l-.4-1.6c-4-.71-4.08-.72-4-1.22a1.87,1.87,0,0,0-.27-1.53l-.1-.13c-.37-.42-1,.18-1.35-.33a1.72,1.72,0,0,1-.06-.64,1.6,1.6,0,0,0-.55-1.14l-.26-.22c-1.9-1.15-4.65,2.86-4.67,2.9l.78,1.3c.19.23.27.34.16.87a2,2,0,0,1-.85,1,3.24,3.24,0,0,0-1.29,2.09c.05.31.37.53.32.89-.08.51-.61.79-.66,1.32s.8.59.82,1.16c.17.1.26.12,1,.24.4.06.63.41,1,.55.75.29.75.29,3.09.37,1.38,0,1.38,0,1.68.4l.08.08a5.63,5.63,0,0,0,1.17.67c.23.13.19.21.17.25-.27.56.51.83.52.83s.06,0,.19-.27c.14,0,.24,0,1,1.08,1.76,2.54,2.62,2.74,3,2.83h0c1.39-3,2.11-4.53,2.11-4.53l-.07-3.15C605.73,573.26,604.83,570.73,603.77,570.6Z" transform="translate(0.46 0)"/><path class="cls-9" d="M477.74,630.5a13.35,13.35,0,0,0,2.53.64c1.05.2,2.05.39,2.14.89.46,2.45-3.22,1.78-3.69,3.78,0,0,1,3.77,1.4,4,1,.64,11.14-1.13,14.7-3.1a1.19,1.19,0,0,1,1.27-.07,1.58,1.58,0,0,1,.84,1.11c.48,1.48-.44,3,.24,4.5.76,1.67,2.25,3,2.31,5,0,.64,1.09,2,2.12,3l6.54-.19a21,21,0,0,0,1.3-3.63c-.06-.33-.43-.47-.79-.6-.8-.29-3.43-1.34-3.72-2.48-.7-2.66,3-4.08,1.92-6.85-.37-.93-1.46-1-2-1.63-.12-.14-.38-.44-.16-4.27a7.22,7.22,0,0,0-.5-3.18l-.12-.34c-.48-1.3-2-.12-2.85-.7-1.89-1.28,2.45-3.15.84-4.76-2.14.36-2.11.09-1.93-1.37l-.21-.06c3.28-3.71,3.7-4.18,2.53-5.45-1.16-.74-5.16-2.77-8,2-1.36,2.32-1.47,2.51-2.53,3.21-2,1.31-4.39,1.52-6.4,2.71a3.91,3.91,0,0,0-1.16,3c0,.87-2.24,1.74-2.26,1.75a3.72,3.72,0,0,1-2.6-.09l-4.54-.72S473.47,628.85,477.74,630.5Z" transform="translate(0.46 0)"/><path class="cls-9" d="M192.43,591.44c1.13-3.19,4.26-5.2,5.07-8.58a1.21,1.21,0,0,0-.37-1.24c-.62-.62-.69-.69-.69-2.41a11.19,11.19,0,0,0-.15-2.56c-.06-.36-.47-.55-.47-.95a7.33,7.33,0,0,1,.61-2.27,5.75,5.75,0,0,0,.41-1.58,1.14,1.14,0,0,0-.22-.57,5.09,5.09,0,0,0-2.28-1.65l-.27.14c.36,2.43.07,2.58-2.7,4l.16.09c-.79.65-.79.65-.87.84-.22.48.09,1-.07,1.46s-.72.93-.9,1.5v.23c.94.63.31,3.14,1.69,2.63-.86,2.46-1.15,2.67-2.37,3.53-1.59,1.14-1.8,1.41-1.9,1.76-.35,1.24,1.14,1.77,1.13,2.89,0,.47,0,.47-1.2,1.93a3.31,3.31,0,0,0-.88,1.71c.07,1,.95,1.77,1.17,2.76-1.89,1.19-1.89,1.19-2,2-.17,1.25,1.55,1.28,1.57,2.42,0,1.75-1.49,3.26-.84,5.11l2.62-.4c.76-.13.76-.13,2.28-3.82.11-.25.25-.59.35-.85a2.19,2.19,0,0,0,.12-1.68A59.4,59.4,0,0,1,192.43,591.44Z" transform="translate(0.46 0)"/><path class="cls-9" d="M218,534c-.08-.35-.64-.23-.64-.65s.4-.86.46-1.33l0,0c-.74-.18-7.68,3.91-6.84,5.43-.2.4-.2.4-1.81,1.1-.31.14-.82,1.38-.14,1.64l.05.13c-.88.77-2,1.21-2.75,2.16l-.21.29a1.94,1.94,0,0,1-.63.61,29.26,29.26,0,0,0-1.89,2.62,12.18,12.18,0,0,1-1.81,2.63,10.48,10.48,0,0,0-1.89,3.63,6.31,6.31,0,0,0,1.5-.6,3.2,3.2,0,0,0,.77-.64,1.3,1.3,0,0,0,.25-.87c0-.64,0-.64,1.59-2.69.84-1.12,2.76-1.22,2.85-3-.11-.07-.11-.07-.42-.11,0-.16,0-.25,1.37-1.07.14-.08.14-.08,5.85-4.51.31-.24.43-.26,1.63-.47,2-.34,3.08-.73,3.28-1.15-.2-.42-.58-.73-.65-1.21C217.83,535.19,218.17,534.59,218,534Z" transform="translate(0.46 0)"/><path class="cls-9" d="M237.91,517.6a10.76,10.76,0,0,1-3.32,3,5.3,5.3,0,0,1-1.61.75c-.71.19-1.3.65-2,.84-.49.13-1,0-1.49.08a1.14,1.14,0,0,0-.37.17,6.75,6.75,0,0,0-.91,1,21.66,21.66,0,0,0-1.57,3.21c-.55,1.06-1.87,1.32-2.41,2.38-.65,1.29-1.42,3.72.39,3.05a7.29,7.29,0,0,0,1.79-1.42c5.29-4.93,5.29-4.93,6.11-5.94a4.45,4.45,0,0,1,1.24-1c1.82-1.2,1.83-1.38,1.88-2a1.61,1.61,0,0,1,.48-1.1c.4-.49,1-.73,1.43-1.19a11.76,11.76,0,0,0,1.08-2.5C238.5,516.93,238.37,517.05,237.91,517.6Z" transform="translate(0.46 0)"/><path class="cls-9" d="M254,499.06c-.45-.33-1.07-.08-2.49.62a9.7,9.7,0,0,1-1.47.66c-.21.06-.45-.07-.66.06s-.16.11-.71.83a9.71,9.71,0,0,1-1.94,2,16.92,16.92,0,0,1-3.35,2.3,3.34,3.34,0,0,0-.65.4c-.1.08-.39.34-.39.59h.13a23.31,23.31,0,0,0,2.41-1.41c.31-.15.67-.15,1-.3,1.06-.52,2.28-.46,3.35-.93h0s2.14-1,2.3-2.14c.07-.54,1.7-.49,2.67-.46a11.3,11.3,0,0,0,.29-2C254.38,499.33,254.38,499.33,254,499.06Z" transform="translate(0.46 0)"/><path class="cls-9" d="M250.07,505.27s-1,1.2.17,1.32a7.45,7.45,0,0,1-1.35,1c-.77.39-1.66.29-2.43.63-.44.19-.59.71-1,.89l-.14,0c-.25.4-.87,1.72-.88,1.73s.18.06,1.12-.22c.68-.2,1.29-.57,2-.78s1.48-.28,2.2-.51c.24-.08.57-.19.8-.29.82-.36,1-1.25,1.59-1.83a11.83,11.83,0,0,1,2.24-1.4l.33-1.83Z" transform="translate(0.46 0)"/><path class="cls-9" d="M243.61,506.86c-.59.26-1,.82-1.47,1.17s-1.26.67-1.86,1.06a9.44,9.44,0,0,0-2.63,2.22c-.57.75-.57.75-.76.9s-.74.23-1,.47l-.35.28s-1.44,1.5-1.6,1.78a9.68,9.68,0,0,0,2.28-.69l5-2.93c1.16-.86,2.55-1.37,3.63-2.34,1.89-1.69,1.92-1.8,1.65-2.39S246.09,505.78,243.61,506.86Z" transform="translate(0.46 0)"/><path class="cls-9" d="M241.42,514.16a2.21,2.21,0,0,0-.88.83l-.08.25.12.24c0,.13-.05.35-.26.66a4,4,0,0,0-.43.73c-.22.52.08.56.28.54a1.8,1.8,0,0,0,.68-.18c.23-.11.37-.32.59-.45.5-.3,1.09,0,1.61-.23l.13-.08c.19-.21.32-.46.51-.67s.67-.61,1-.95l.23-.29c.46-.64.38-.94.35-1C245,513.13,242.67,513.37,241.42,514.16Z" transform="translate(0.46 0)"/><path class="cls-9" d="M243.46,511.57c-.49-.47-4,1.63-4.41,1.87a22.09,22.09,0,0,0-2.41,2.22c-1.36,1.1-3.07,1.58-4.49,2.56l-.21.16-.13.21c.18,0,5.86-2.5,5.91-2.53s5.58-3.14,5.77-4.45Z" transform="translate(0.46 0)"/><path class="cls-9" d="M215.19,545c-1.22,1.57-2.34,3.82-2.2,4.22.13.06.21.1.8-.27,1.82-1.13,1.84-1.25,2-1.93.3-1.67,2.65-4.76,2.67-4.79C215.58,544.46,215.58,544.46,215.19,545Z" transform="translate(0.46 0)"/><path class="cls-9" d="M216,456.62a2.4,2.4,0,0,0,.89-.09l.17,0c-.22.33-.58.51-.81.82l0,0a7.14,7.14,0,0,0,1.67-.69,19.31,19.31,0,0,0,3-1.8c.08-.1.08-.24.18-.34s.23-.2.32-.32l0-.1C221,453.88,216.31,455.84,216,456.62Z" transform="translate(0.46 0)"/><path class="cls-9" d="M244.55,458.23c-.43.09-.43.09-.54,0,.16-.35.57-.47.74-.81l-.07-.07a4.58,4.58,0,0,0-1.3.27,6.73,6.73,0,0,0-1.08.17,28.9,28.9,0,0,0-2.79,1.61c-3,1.78-3,1.78-3.21,1.65,0-.08.22-.34,2.11-1.52.65-.4,1.73-1.06,1.58-1.54-1.75-.39-7.14,2.33-8.82,4.82-.25.37.83,1.19,4.11.14.74-.23,1.52-.09,2.26-.28a8.69,8.69,0,0,0,1.53-.65c1.78-.9,3.41-2.09,5.27-2.84.56-.23,1.1.2,1.66.07,0,0,1.31-.41,1.42-.83C247.38,457.65,247.22,457.69,244.55,458.23Z" transform="translate(0.46 0)"/><path class="cls-9" d="M281.32,426.1c-.2,0-.32,0-.37,0s-.08-.1-.58.11a31.45,31.45,0,0,0-2.92,1.43s-2.27,1.61-2.33,1.74a1.92,1.92,0,0,0,.55-.15c.45-.15,6.83-2.61,7.67-3.22l.05-.07c-.06,0-.07,0-.25,0C282.53,425.94,281.93,426,281.32,426.1Z" transform="translate(0.46 0)"/><path class="cls-9" d="M565.69,622a9,9,0,0,0-3.69-1,39.43,39.43,0,0,0-4.13,1.5c-1.73.73-2.44,2.46-3.67,3.68l-.42.42c-.14.15-.38.35-.41.56-.09.55,3.37,4.7,5,4.92a10.14,10.14,0,0,0,8.3-3.12c2.25-2.16,2-3.93,2-4C568.6,624.49,567.47,623.26,565.69,622Z" transform="translate(0.46 0)"/><path class="cls-9" d="M564.3,605.79l-.2-.21c-.73-.42-5.71.79-5.76.81-1.24.34-2,.83-2.26,1.45-.47,1.11,2.11,1.14,3.24,1.1a9.44,9.44,0,0,0,2-.33l3.28-1.07c.31-.13.48-.26.41-.5Z" transform="translate(0.46 0)"/><path class="cls-9" d="M569,602.49l-.15-.14c-1-.48-4.09.8-4.36,1.83-.13.51.33.89,1.15,1l1.77.07a2.6,2.6,0,0,0,.54,0,4,4,0,0,0,1.6-.6c.09-.07.38-.29.28-.61Z" transform="translate(0.46 0)"/><path class="cls-9" d="M570.73,608.87c-1.19-.72-3.21.71-3.37,1.41-.06.27.14,1,1.12,1.59,1.82,1,2.31.63,2.52.46A2.49,2.49,0,0,0,570.73,608.87Z" transform="translate(0.46 0)"/><path class="cls-9" d="M573.51,621.63a2,2,0,0,0-1.51,0,3.6,3.6,0,0,0-.8,1.61c0,.39.82.34,1.84-.73C573.73,621.78,573.64,621.71,573.51,621.63Z" transform="translate(0.46 0)"/><path class="cls-9" d="M575.07,633.21c-.66-1.21-1.79-2.06-2.52-3.22-.24-.38-.35-.83-.61-1.21l-.16-.15a3.26,3.26,0,0,0-1.83.2s-.73,2.1-.86,2.5a1.19,1.19,0,0,0-.06.37c0,.45.16.72,1.74,1.68.64.39,1.31.71,1.91,1.16.31.23.4.66.77.83s1.49-.9,1.5-.91C575.4,634,575.35,633.73,575.07,633.21Z" transform="translate(0.46 0)"/><path class="cls-9" d="M563.09,598.09a1,1,0,0,0-.32-.49c-.89-.51-1.86.38-2.74-.17-.36-.23-.31-.84-.82-.93-.25,0-.43.17-.55.36a10.37,10.37,0,0,0-.59,2.38.79.79,0,0,0,.33.79c.1.08.29.22,1.58.35l3.48.14c.13,0,.38-.09.27-.55Z" transform="translate(0.46 0)"/><path class="cls-9" d="M516,591.72a3.36,3.36,0,0,0-1,.75c-.24.29-1.13,1.79-1.13,1.8-.11.44,1.12.86,1.48.85a7.26,7.26,0,0,0,3-1c.58-.43,2.42-2.52,1.8-3.28C519.54,590.53,516.84,591.25,516,591.72Z" transform="translate(0.46 0)"/><path class="cls-9" d="M536.33,575.25c-.71-.48-1.36-.57-1.52-.21a1.87,1.87,0,0,0,.12,1.13l.13.18c.29.35.6.66.88,1s.49.66.75,1l.11.12c.07.07.2.19.32.13h0a2.18,2.18,0,0,0,.46-1.74A3.2,3.2,0,0,0,536.33,575.25Z" transform="translate(0.46 0)"/><path class="cls-9" d="M492.57,650.44c-1.05-.44-4.65-1.75-4.69-1.76-.42-.15-.88,0-1.31-.12s-.83-.62-1.38-.65a40.25,40.25,0,0,0-4.57.82,3.9,3.9,0,0,0-1.48,1.16,1.22,1.22,0,0,0-.16.9Z" transform="translate(0.46 0)"/><path class="cls-9" d="M687.29,629.48c-.47-.24-2.14-.31-1.91.46a1,1,0,0,0,.4.49,11.79,11.79,0,0,0,1.06.67c.37.24.7.54,1.07.79l.23.14c.24.13.79.44,1,0C689.68,631.08,688,629.87,687.29,629.48Z" transform="translate(0.46 0)"/><path class="cls-9" d="M689.94,634.61a.41.41,0,0,0-.24,0,1,1,0,0,1-.68-.19c-.3-.19-.56-.43-.86-.6a1.42,1.42,0,0,0-.57-.19l-1.4.35-.18.11c.34.45,1.07.48,1.23,1.14a.53.53,0,0,1-.42.63c-.49,0-.68-.49-1.06-.68a.51.51,0,0,0-.6,0l-1.24,1.46-.07.15c0,.51,1.27.44,2.2.39.38,0,.4.08.09.52-.15.21-.37.54-.31.73.17.49,2.16-.32,4.09-3.56l.08-.21Z" transform="translate(0.46 0)"/><path class="cls-9" d="M223.62,538.34c-.17.11-.17.11-.72,1l2-1.3-.14,0C223.81,538.21,223.81,538.21,223.62,538.34Z" transform="translate(0.46 0)"/><path class="cls-9" d="M415,459.06c0-.13.19-.21.1-.35l-1.49-.69a5.07,5.07,0,0,0-.87-.13c-.34-.06-.47-.17-.45-.39s0-.19-.09-.23v0a3.37,3.37,0,0,1,.32-.19c-2,.51-4.09,1-6.15,1.59,1.57.42,5.49,1.33,8.13.87.56-.1.59-.15.64-.25C415,459.12,415,459.12,415,459.06Z" transform="translate(0.46 0)"/><path class="cls-9" d="M931.67,600c1.74,3.55,2,3.71,3.63,4.79-.06,1.25-.13,2.67,13.68,19.82,0,.06,2.65,3.49,6.13,8.34l6,.34c-9.67-13.82-21.36-29.3-21.47-29.44a17.64,17.64,0,0,0-1.43-1.3c1.51,2.27,3.31,4.32,4.88,6.54,0,0-1.91-2.16-4-4.53h0l.22.42c1.25,1.79,2.61,3.49,3.78,5.33-9.47-11.36-9.59-11.39-11.6-11.94a15.85,15.85,0,0,1,1.51,2.85Z" transform="translate(0.46 0)"/><path class="cls-9" d="M175,646.68c73.06,3.15,146.15,5.58,219.29,5.29l4,0a2.9,2.9,0,0,1,.36-.78c1.22-1.79,1.53-1.73,1.68-1.71h.09c.1-.11.1-.17.09-.6-.54-5.18-2.37-5.45-4.5-5.77,0-1,.13-2.66,2-7l1.35-.2a5.84,5.84,0,0,0,1.22-.63l.21-.18.22-.2.23-.2.25-.22.28-.25.3-.27.35-.3c19.91-11.75,19.91-11.75,22.86-11.55,3.6.23,3.74.24,5.36-2.06a2,2,0,0,0,.47-.06l1,.17,1.36-1.1.93-.45c-.65.55-1.3,1.08-1.95,1.64a15.82,15.82,0,0,0,3.18.45c1.59-.78,1.56-1.05,1.49-2,.91-.93.91-.93,5.28.83,1.07-1.87,1.07-1.87,1.34-2.26,1.32.66,1.61,2.34,2.93,3,1,.47,1,.47,3.55.18l1.28.74a4.38,4.38,0,0,0,2-.88l-.1-.7c-.35-2.26,1.76-5.18-1.05-6.77,0-.19,0-.43-.07-.61.31-.26.69-.62,1-.91-.08-.16-.17-.36-.24-.52-.89-.28-1.81-.38-2.71-.62.88-1.6.11-3.35.46-5a17.45,17.45,0,0,0,2.36,3.83,2.36,2.36,0,0,0-1,.61c4.06,1.22,2.73,6.53,6.21,8.18.72-.31.81-.3,2.49.24,5-3.14,5-3.14,5.19,0l1,.76c4.05,1.56,4.05,1.56,6.73,1.54l2.09.47c1.94-1.35,4.5-1.11,6.44-2.47l3-.34,1.36-.9,2.33-2.26-1-.72a13.77,13.77,0,0,0-1.19-2c3.93,3.06,17,.49,16.29-3.2a11.57,11.57,0,0,0-.81-1.66c1-1,1-1,2.8-.48.55,1.49.55,1.49,2.57,1.82-.15,6.22-.15,6.22,3.21,5.69,0,.05,2.56,3.58,3.55,2.52.37-.39.44-.81.93-3.57.07-.6.07-.6.31-3.57-1.2-.81-1.2-.81-1.45-1,.82-.33,1.57.26,2.37.2l0,.11c-.94,2.33-.08,6.39-.06,6.42-.62,1.72-.75,2.08-.13,4.44a2.74,2.74,0,0,0,.5-1.34c.21-.17.21-.17,6,0a2.83,2.83,0,0,0,.58-1.21c1.7.65,1.7.65,4.44-.48,1.18.43,3.15,1.15,7.76-2.12a6.29,6.29,0,0,0,.47-.43c-.08-9-.08-9,2.44-12,.64.36,1.3.69,1.93,1.08a1.66,1.66,0,0,0,.48,1c2-.5,4.23.2,6.15-1-.4-1.64-.4-1.64-1.25-1.69-.33-1-.08-1.22.41-1.66a11.72,11.72,0,0,0,2.51.22l1.27-1.79c-.65-1.65-3.7-3-2.06-4.9,0-.16-.07-.37-.11-.53-.33-.17-.78-.38-1.12-.54.59-.66.59-.66,1.64-.49a13.82,13.82,0,0,0,1.14-1c-.92-1-2.51-.59-3.37-1.68.74-3-6.5-6.23-6.57-6.26a1.84,1.84,0,0,0-.23-1.18,4.5,4.5,0,0,0-1.83.5c0,.17.1.4.15.58l-1.76,2.16a4.62,4.62,0,0,1-1.08.72c-.06.19-.14.46-.21.65a2.09,2.09,0,0,0,.85.68c.06.17.15.4.21.58-1.6,3.23-1.6,3.23-.83,3.84-.08.06-2,1.35-5.5-.26,0-.16-.06-.38-.09-.54l-.49-.27-7.63,5.33c-1.22.07-2.44,0-3.66.14s-1.21.09-6.05,3l-1.63-.73c-3.1-.21-3.1-.21-5.43,1.23,3.29-4.14,2.54-11.36,9.61-12.62l.33.62-.28.63c2-.09,2.54-1.38,3.28-3l1.53-1.23.77-1.58.86-1.52-1.17-.45-.14-1.67-.55-1.18c.64-3.53-5.66-1.16-5.72-1.13a6,6,0,0,0-1.19,1c-1.73-.56-4.11.63-6.22,1.69,0,0,3.27-3.92,6.08-3.69l.55-.48a7.35,7.35,0,0,0-.91-2.23c1.42-1.17,1.42-1.17,3.2.28.6-.6,1.23-1.17,1.83-1.78-.28-1.25-.28-1.25-.13-1.78-1.21-1.31-.13-2.74-.22-4.11a1.48,1.48,0,0,0-1.69.71c-2.51.27-3.75-2.75-3.33-3.34a2.33,2.33,0,0,1,.51-.38l-.56-.11c6.56-.09,6.72,0,7.34.29,0,.17,0,.38,0,.55l.47.3c1.48-.65,2.76-1.21,2.63-3.55-1.24-1,.13-4.2,1.5-6.66,1-1.73,3.22-2,4.23-3.63a33.22,33.22,0,0,1,1.88-4.2c-1.44-2-1.44-2-1.34-3.82,4.52,1,4.52,1,7.06.35l2.81-.26.76-1.08c1.29-1.15,1.59-1.42,3.78-.33,2.31.91,2.31.91,2.5,1.42s.69,1.82,3.36,1.72c1,0,1,0,4.57-2,.76-.42.76-.42,1.76-.18.26.06.63.11.63.11l3.59-.48,4.46-1.4a6.33,6.33,0,0,0,1.29-1.09,8.6,8.6,0,0,0-.67-2.14l-3-2.22a5.09,5.09,0,0,0-.93-.47l-.11,0a1,1,0,0,0,.32-.8c0-.27-.34-.33-.42-.56s.28-.84-.16-1.17a5.29,5.29,0,0,0-.72-.4l-.15-.07c-8.8-4.06-8.8-4.06-11.43-2.34-.14-.39-.34-.91-.49-1.29-9.12,3.21-14.37,13.67-25.29,13.53a23.73,23.73,0,0,1-2.2,2.17c-1.26-1-4.2-3.32-11.47,1.6-.12.87-.27,2-.36,2.9-4.69.43-9.93,3.39-7.16,7.62l.66,1.34a8.6,8.6,0,0,0,1.37,3.88c-2.48,2.05-7.63,3.81-7.67,3.81l.2,1.47c1.63.27,1.63.27,4.6-.7-3.22,5.26-8.19,4.32-15.06,3-6.39-1.21-8.69,5.34-13.49,7.13,2.93-3,2.93-3,3.17-3.26a8.66,8.66,0,0,1-1.29-2.51c1.22-2.07,2.2-2,3.83-1.79a4,4,0,0,0,1.16-.29l.21-.14.22-.15.48-.33.22-.15.21-.14.17-.12a9.73,9.73,0,0,0,2.23-1.81c-.25-.36-.58-.84-.82-1.21l.23-1.07-1.42-.22c-.16-.38-.38-.89-.54-1.28a10.78,10.78,0,0,0,1.47-2.44c-.4-.44-.4-.44-5.33-1.29a4.94,4.94,0,0,0-1.7-2c-.51,1.8-.79,2.79-7.4,4.48-.08-.42-.18-1-.25-1.4l1.35-.76c-3.89-2.12-7.73-4.35-11.63-6.45.05-2.17-2.93-3.91-1.1-6.29-.07-.41-.17-1-.24-1.38a14.26,14.26,0,0,1-3.38-2.65c1.83-6.58,1.83-6.58,5.44-9.69-2-5.35-17-6.76-18.46-4.93a5,5,0,0,0-.51,1.36c2.53,1.8,2.53,1.8,3.67,1.86l.07.07.05,0,0,0,0,0v0h0c3.55-.05,6.18,2.95,9.72,2.9l-1,1.14c-5.14-.2-9.85-3.07-15.12-2.43-1.78,2.82-7,7.91-7,7.94-.18-.38-.43-.9-.62-1.28-1,.18-1,.18-3.88,2.13l.62-1.59a3.79,3.79,0,0,1-.11-2.53c5.3-.78,5.3-.78,6.9-2.54a4.9,4.9,0,0,0-2.22-1.67c1.28-2.28,1.4-2.34,3.36-3.19-1.07-2.26-.87-2.61,0-4.08-.21-.39-.5-.91-.72-1.3-1.51-.28-1.51-.28-3.9-1.72-1.87.52-3.63,1-6.83-3.76-2.18-.32-2.52-.81-2.71-2.56l-1.2-.91a14.17,14.17,0,0,1,.93-2.68l-1.24-.69h0c-.13-.41-.32-1-.46-1.37,3.06-1.16,5.51,3.21,8.69,1,2.75-1.95,5.3-7.34,3-9.22-1.49-1.2-3.52-1.52-4.81-3,.7-8.17.7-8.17-.68-9.69a17.79,17.79,0,0,1,2.26-2.25c-2-8-2-8-2.32-8.31-2.46-2.23-5.71.88-8.19-1.23,2.69-1.58,9.42-3.57,9.49-3.58-.13-.4-.3-.92-.44-1.31-4.12-.63-8,1.37-12,1.24,4.5-3.84,12.55-3.49,13.54-11.47-9.2,2.92-9.2,2.92-13.07,1.76-.46-2-.6-2.57-6-2.93-1.48.39-2.95.81-4.42,1.21l-.06-.1,4.06-1.13-1-.06a20.39,20.39,0,0,1-2.32-.38l.81-.61c0-.11,0-.23,0-.36a18.91,18.91,0,0,0,4.87.78c2.06-.55,4.12-1.08,6.18-1.61-1.74-.8-4-.16-5.37-2-2.87-.37-5.56-1.68-8.51-1.61,0-.28,0-.65,0-.92l-2-.4c3.35-.49,3.35-.49,4.11-1.93-1.27-.46-2.61-.15-3.9-.4-1.34-2.16-1.34-2.16-9.78,1l1.2-1.32c.15-.25.36-.57.52-.82.26-.6.3-.61.33-.62l0,0c-1.62-2.7-1.62-2.7,4.62-7.27l2.4-.46-.32-.66v0l-.86-.28c-.17-1.71-.17-1.71-.94-2.47-.29-.46-.31-.46-.33-.45l0-.05v-.05c2.3-2,4.93-3.57,7-5.86-.47-1.21-.47-1.21-2.19-1.81a5.79,5.79,0,0,1-.08-1.81c1.21-.42,2.25-1.2,3.49-1.56a3,3,0,0,0-1.68-2.2c3.9-4.7,3.9-4.7,4.11-6.3l.92-.33c-.62-.19-1.45-.47-2.05-.71,3.3-1.47,3.3-1.47,3.6-1.94,3.37-.53,3.37-.53,5.09-1.44l-.65-.79.27-.86-.93-.15a24.47,24.47,0,0,1,3.74-1.12c-.48-.41-.48-.41-2.78-.7,2.56-1.45,5.76-.64,8.28-2.27-2.25-.41-4.6-.05-6.78-.9a3.1,3.1,0,0,1,.47-1.7c-2.2-.83-4.66-.17-6.84-1.17l.9-.6c-5.67-4.17-11.64-.17-17.44-.62l.47-1-.72-.17.55-.5c-1.52-.29-1.52-.29-29.23,7.48-.12.24-.28.57-.41.81l1,0c-2.46,1.49-5.36,1.72-8,2.71l.05.22c0,.27.08.63.11.9l-.87.39-1.81.36.78-.52c-1.24-.23-2.57.32-3.75-.43l.2-1a3.41,3.41,0,0,0,1.17-1.41c2.4-1,5.08-.84,7.44-1.92.07-.28.15-.65.22-.92-3.44.05-3.44.05-4.75.39l.72-.57.1-.23h0c-9.64-1-23,5.94-23.15,7.26a26.39,26.39,0,0,1-3,2.35,19.26,19.26,0,0,1,3.7.66c-2,1.9-17.51,4.75-17.63,4.74l.59-.79c-.23-.14-.23-.14-3.44-.1.6-.8.6-.8,2.44-1.55l.44-.36,0,0,0,0,0,0,0,0,0,0,0,0,0,0c-.09,0-16.83,3.26-22.62,5.78a7.87,7.87,0,0,0,2.94-.35l-1.31.47c-.07,0-6.79,1.68-7.62,3.76a22.35,22.35,0,0,1-3.1,1.14,16.67,16.67,0,0,1,1.82-1.07l-.92.23a9.06,9.06,0,0,1,2.51-1.27c-2.2-.19-12.77,5.13-13.29,6,2.67.4,4.91-1.17,7.4-1.6-.05,0-16.45,6.82-21.74,8.78l.63.77h1a18.94,18.94,0,0,1-1.43,1.26l.07.42c-2.05,1-2.05,1-5.83,3.18l.45.16,3.19-1.24.81-.12c1-.32,2-.77,3-1.13-2,1.71-4.59,2-6.72,3.34l1,.22.69-.13.5.19a12.59,12.59,0,0,0,3.07-.54c-5.26,3.31-11.75,3.22-17.12,6.22a3.63,3.63,0,0,0-1.82-.09,8.16,8.16,0,0,0-1.77,2.74c.36-.95.75-1.88,1.19-2.79-1.25.32-2.31,1.17-3.64,1.24-.32,0-.35,0-.47-.08.11-.16.29-.21.44-.33-.58-.41-1,.19-1.51.24-.33,0-.64-.14-1-.13h-.09a2.51,2.51,0,0,0-.4.11c-1.14.35-1.63.47-1.9.28-1.06.42-2,1.2-3.18,1.27a4.07,4.07,0,0,1,.58-.51l-.07,0c0-.35.77-.53.46-.86,0-.06,0-.06.17-.21-.37-.22-3.37.81-4.31,1.26a4.24,4.24,0,0,1-1.09.41l.06-.18-.34.09,0-.17.14-.11a12.46,12.46,0,0,0-3.75,2.29c.56,0,.9-.61,1.48-.54l-1.51.87,1.08-.37,0,.07s0,0,3.44-1.2c.08.23,0,.3-.28.43,0,0-1.26.66-1.46.82.14.19.27.14.57,0l-.55.59c-.87.53-1.06.65-1.26.8a10.08,10.08,0,0,0,2.74-1l.26.24,1-.42c-.43,1-1.51.86-2.24,1.32v.1l.17.13.9-.33.86-.25h1.29c-.08.14-.06.32-.19.44l.06.06h.17l0,.09a12,12,0,0,0,1.65-.58v.09l.09,0A20,20,0,0,1,229,457a11.92,11.92,0,0,1,2.66-.17l.16,0c0,.09,0,.09-.27.24.32.05.61-.16.92-.15l0,.09c.86.23.94.25,4.1-.81l.17-.06,1.72-.81.81.47a8.5,8.5,0,0,1,2.57-.13l.79-.14.76.19.54,0c1.88.84,3.47-1.32,5.34-.53,6.22-.75,11.44-4.81,17.74-5.27.38-.13.72-.27,1.07-.41,3.86-1.41,7.93-.73,11.88-1.24,0,.29-.06.68-.09,1a5.59,5.59,0,0,0,2.86.59c-1.78,1.4-4.26,1.33-6,2.83a3.05,3.05,0,0,0-.34-1.73,4.37,4.37,0,0,1,1.41-1.19c-2.94-1.4-19.17,4.66-21,5.6l-.16.11v0h0v.2c.29.66,1,2.22,7.39,1.9,5,5.17,9.63-4.1,15.05-2.58l-2.3.63c-.56.25-1.29.61-1.84.89l1,.18a8.37,8.37,0,0,0,1,1.56,9.42,9.42,0,0,1-3,2.65c-.77-.15-.77-.15-2.77.52.1.27.25.63.35.9A12.87,12.87,0,0,0,270,463.7l.11.19c1.17.6,2.49.45,3.72.77-2.41.28-2.41.28-6.7,3.71a6.74,6.74,0,0,0,1.08,1.62l-.71.7c.08.36.19.84.28,1.2l.5.18.45.2.33.46a4.83,4.83,0,0,1-.57,1.69l.84.64c-3.94,3.9-3.94,3.9-3.67,5.13a5.67,5.67,0,0,1,2.86.53,3.13,3.13,0,0,1-1.21,1.48c-8.56-3-7.45,10.63-13.47,13.68,1.45,2,2.61,1.41,3.23,1.08l.63-.3h0c1,0,1.89-.59,2.87-.77-3.89,4.88-3.89,4.88-3.84,5.11,2.09-.51,3.69-2,5.62-2.79-13,14.44-13,14.44-14.33,15,.84,1.65,1.78,3.33,2.77,5-1-1.7-2-3.38-2.87-5a1.5,1.5,0,0,0-1.23.54c-.64.82-.79,1.88-1.34,2.74l-3.05,3.29c-.1.08-.23.2-.32.29a10.37,10.37,0,0,0-1.26,1.73l-.09.17c-.3.55-1,.76-1.25,1.3s.23,1.12-.3,1.57c-.26.21-.54.08-.82,0-.93-.43-2.61.63-2.93.84,0,0,.24,1.31,1.38,1.35a1,1,0,0,1,.86,1l-2.52,2.7c-.61.4-1.31,0-1.94.24a1.58,1.58,0,0,0-.4.15c-.94.7-.68,2.12-1.68,2.78a1.25,1.25,0,0,1-1.37.23c-.15,0-.6-.22-2.14,1a5.42,5.42,0,0,0-1,1.17c.08.22.32.3.42.5l-.08.09-.06,0h0l-.2.13-1.15.86a26,26,0,0,0-2.53,1.47l-.86,1.14.1.06h0l1.12.33v0l0,.05,0,.06.05.08,0,.09.05.08,0,.07,0,0c-.14.43-.32,1-.45,1.42a5.06,5.06,0,0,1-2.78-.18c-.78.53-.78.53-3.8,6.15l0,0a16.23,16.23,0,0,0,3-.4c0,.45,0,1,0,1.49-5.85,2.47-9.73,11.26-9.75,11.35-.21,1.08-.24,1.1-.26,1.11l-.06,0,0,0,0,0h0l1,.59h0l.08,0c.19.42.45,1,.65,1.39l-1.44.28-.54-.51,0,0c-2.72.26-5.54.54-6.08,2.54h0l1.35.48c-5.93,3-5.93,3-5.87,5.59v0l.37,0c-.1.48-.46,1.21-.21,1.63l0,.05,1.44.12c.11.43.25,1,.35,1.44a6.74,6.74,0,0,1-2.36,1.59c.46,4,.49,4.2,2.75,5.4l0,0a18.33,18.33,0,0,1-2.38,2.11c.11.42.25,1,.35,1.4-2.47,2.33-2.47,2.33-2.65,3.6a6.09,6.09,0,0,0,.65,1l.5.75c-2,2.55,0,7.32-4.29,8.47-.47.46-.44.49-.42.52-1,1.7-.35,4-1.87,5.47l-1.48-.15-.88,1.32c-4.16-.79-3.93-3-3.53-7l-1.13-.91c-10.26,4.74-13.92,16-22.23,22.61-10.58,8.17-19.29,15.4-26.37,22.57C148.44,645.58,161.72,646.11,175,646.68Zm278.49-43.94c-2.57,2.08-5.13,4.2-7.69,6.32l0,0C448.36,606.92,450.92,604.82,453.49,602.74ZM392.35,455A46.11,46.11,0,0,1,398,456.7c-2.42.12-4.89.77-7.2-.4a10.6,10.6,0,0,0-2,.7C390,454.52,391,454.38,392.35,455Z" transform="translate(0.46 0)"/><path class="cls-9" d="M601,523.59c-.59,1.13-2.9,1.54-2.12,3.15a4.11,4.11,0,0,0,2.91-.21c.05.32.05.32-.29,1.76,1.37,1.13,1.37,1.13,4.23,1-.27.5-.77.84-1,1.4.5.68,1.6,2.08,1.67,2.14a15.61,15.61,0,0,0,2,.74,7.4,7.4,0,0,0,.85-.83l.57.05a2.72,2.72,0,0,0,.6,1.56c1-.18,1.81-.9,2.82-1.07a1.75,1.75,0,0,1-.67.89,4.92,4.92,0,0,0,0,1.15A5.47,5.47,0,0,0,614,536l.44-.09c.1,1.32-.82,2.56-.35,3.92,1.92.86,5.19-.06,4.61-1.67,0,0-.29-.89,1-1.35l.41.5c-.6,2-.6,2,1.21,3.78l-.13.55c-2.46,1.15-2.46,1.15-2.71,1.44.15.89.15.89,1.67,1.28,3-.19,6,.72,9,.31l.3.48-.45.52-.24.46h0c4.87.33,5.33-.73,6.68-3.86l-.24-.42c-1-.07-2,.36-3,.32a6.32,6.32,0,0,1-.66-2.25c1.71-.18,3.14-1.34,4.88-1.42,0,0,3.77,2.22,6.29-2.07.42-.71.42-.71,4.51.81.61,1.44,3.43,1.66,5.06,1.66a7.4,7.4,0,0,0,.87-.7c.14-.15.28-.39.42-.54.82-.91,3-1,2.49-2.68,1.41-.37,2.5,1.26,4,.65l.5-.56a4.07,4.07,0,0,1,1.1.23,22.54,22.54,0,0,1-.25-2.72c-.61-.62-.61-.62-.82-1.68l.44.17c3.37,1.36,3.37,1.36,4.76-.21-.16-.77-.16-.77-3.27-3.51,0-.72,0-.72.9-1.25,1,1,1.64,2.45,2.92,3.27l1.46.1a11.1,11.1,0,0,0,2.74,1.21c3.43,4.13,7.21,8,10.92,11.87a6.11,6.11,0,0,0-1.06.06l-.6.23-.56.42-1.16.17c-2.47-.26-2.47-.26-2.76-.87-.58,0-1.1-.35-1.68-.46l-.67.14a2.69,2.69,0,0,1-1.8-.2c-1.3-1.08-1.35-1.09-2.6-.47l-.51.3a8.17,8.17,0,0,1-.84.14,3.51,3.51,0,0,1-.37-.72l-1-.13-.68.27-.86.77-.88.28-.36.14c-.49.51-.49.51,0,2.83l-.25.39a43.76,43.76,0,0,0,3.56,5.6l.25.17,0,0,0,0,0,0,0,0,0,0,0,0,0,0a2.14,2.14,0,0,0,1,.11l-.13,1a6.46,6.46,0,0,0,.18.76c-.57.62-.57.62-.69,1,.71.63.71.63.83.82.9.17,1.8-.43,2.7,0,0,.35,0,.7,0,1.05a6.8,6.8,0,0,0,2.29,1c.4.73.4.73,3.46-.17a4.65,4.65,0,0,1,1.09,3.69l-.83.13h-.16c-1.37.4-1.37.4-7.4-3.34a2.92,2.92,0,0,0-1.38-.23h0c-3.35,1.09-5-2.44-7.86-2.81l-.41.05c4.2,2.6,8.48,5.15,12.78,7.69l-.08,0c-4.33-2.54-8.64-5.09-12.89-7.68-1,.1-1,.47-1.11,1.2a2.44,2.44,0,0,1,.19,1.68l.06.42.52.3c.42.3.42.3,2.61.31l.15.44-.7.17-.53.65v.75l0,.56a28.2,28.2,0,0,0,2.68,1.77l.1.33h0l0,0,.05,0,0,0,.05,0,.07,0,.06,0c1.62,1,1.62,1,1.46,1.83l-.63.33-1.09-.36-.31-.48-.26-.09-.38-.21c-.38.1-.38.1-2-.07l-.64.26-.54.35.22.38a3.36,3.36,0,0,0-.37,2.52c.92,1.88.92,1.88.91,2.25.56.82,4,3,4.9,2.87,0-1.79.45-2.07.92-2.37a1.59,1.59,0,0,0,.77.85c-.26,1.37-.26,1.37-.08,1.8l.37.13c2-1.55,2-1.55,3-.13l-.49.61a9.24,9.24,0,0,0-.36.92l0,.06h0c1.31.87,2.88.56,4.3,1,.41-.36,1-.41,1.41-.72,1.22.37.81,1.67,1.37,2.4a9,9,0,0,0,3.27-1.22c.36.2.36.2,1.2,2.18,1.91,1.59,1.91,1.59,2.2,1.71,0,.78.07,1.3,1.8,2.09,1.58.73,1.58.73,2.77,3.37.3.59.3.59,1.76,1.16a7.43,7.43,0,0,1,.72,3.45l.7.73.79.6.68.4c-.07.19-.15.45-.21.64s-.17.67-.23,1l0,.22h0a2.52,2.52,0,0,1,.28,1.09c-.15.59-.18.62-1,1.43l-.35,1c-.19,2-.19,2-.21,2.59,2.54,3.91,2.54,3.91,2.13,6.55l.29.6c1,2.59,1,2.59,1,3.57-1.78.33-1.49,4.69-1.38,6.55,0,.27,0,.22,0,.16a8.64,8.64,0,0,1-.71,3.43c-.08,1.06,1,1.83.73,3-.41,1.53-1.72,2.45-2.54,3.71l.62,0c.37.79.41.88,1.82,1.57.13.67.13.67-.29,1.87-1.49,3.35-1.49,3.35-.32,4.41,0,.51,0,.63-.59,1.09h0l-.19-.38-.4-.12a24.64,24.64,0,0,0-2.51,2.16l-.72.53c-.73.36-1.5.63-2.24.95,0,.12,0,.28-.06.4,1.32,1,2.37-.46,3.58-.4l-.13.73c-.3.24-.74.52-1.07.73l-.91.21a4,4,0,0,1-2.21.38l-.82-.06c-1.69,0-2.08.63-2,1.37l11.14-.54c-.08-.89-.19-3.17.66-3.89,0,.14.12.33.18.47a5.77,5.77,0,0,0-.63,3.41c47.22-2.35,94.42-4.87,141.63-7.24,35.66-1.8,71.37-4.48,107.07-3,3.81.15,7.63.34,11.44.55-1.75-2.1-4.15-4.94-7.84-9.32a13,13,0,0,1,.49,3c-1.21-4-5.58-7.5-14.29-14.47l.89,1.24-1,1.11c-23.87-24.09-27.67-26.75-28.92-27.63l.43,1.62-1.52-.1c.76,1.89,1.17,3.9,1.95,5.79l-1.42-.46c1,3.68,2.48,4.19,3.76,4.64l.5,1.42c-2.29,1.49-2.29,1.49-3.37,3-8.6.6-7.16-9.91-11.67-14.09l-1,1.13c-5.8-1.62-7.06-11.49-14.88-9l-1.28-.7h-.09l-1-.5a4.81,4.81,0,0,1-.46-3,16.55,16.55,0,0,1-2.35-1.9c.14.84.27,1.69.4,2.54a2.62,2.62,0,0,0-.63-.46c-.2-1-.41-2-.64-2.95a6.75,6.75,0,0,0-3.23-1.26c-.77-2.19-1.35-4.44-2.23-6.58a27.35,27.35,0,0,1,2.69,2.1c-1.39-3.38-4.9-4.67-7.13-7.22l.43-1.62-1.15-1.2c-2.33-1.63-5.15-2.36-7.43-4.06-12.16-7.17-12.16-7.17-14.22-7.8l-.86.19c-3.6-3.5-4-3.66-10.49-6.29a5.3,5.3,0,0,0-1.36,2.95,5.19,5.19,0,0,1,2.54,1.91c-2.88-2-2.88-2-4.76-1.79-5.65-4.89-8-3-9.31-2,0,0-8.74-5.86-11.4-8.52l-1.4-1-.93-.83c-6-3.57-6-3.57-6.6-3.9l-1.58-1-.75-.45c-1.64-1.17-1.64-1.17-12-3l-.94,1.43c.29,1,.66,2.32.91,3.32-2.67-.38-5-2.41-8-1.39-.17.47-.39,1.1-.55,1.57l-1.68-.22c2-2.25,2.17-3.71-2.43-6.47l-.24-.11-1.35-.59-1.89-1.45-1.52-.65-1.34-.56a8,8,0,0,0-3.54-1.8l-2.22-.92-2.26-1.27-1.82-1c-2.06-1.26-4.36-2.11-6.31-3.58-1.35-.81-1.35-.81-3.67-3.92a28,28,0,0,0-4.52,2.45c-4.09-2.59-10.64-.26-12.9-6.49a35.87,35.87,0,0,1,5.41-1.61c.08-.52.2-1.2.28-1.72-5-5.33-12.75-5.2-18.52-9l-.06,0-.14-.08-.22-.11-.26-.13-.28-.15-.28-.14-.26-.14a9.84,9.84,0,0,1-1.08-.66c-10.1-4.76-10.1-4.76-65.39-12.32a19.72,19.72,0,0,1-2.62,2.29L635.47,478a21.7,21.7,0,0,0-3-1.64,16,16,0,0,0,2.84-2l1.69-.79c-11.27-5.53-11.27-5.53-30.66-5.86a11.58,11.58,0,0,0,2.83,1.79,13.08,13.08,0,0,0,.25,3.53c2.53,1.58,5.32,2.68,7.78,4.36a7.91,7.91,0,0,0-3,1.87c.19.42.45,1,.64,1.38l-1.71.49,1,1.35-1.74.19a8.45,8.45,0,0,0,3.1,1.4c0,.15.07.33.11.5a4.67,4.67,0,0,0-1.07.67c0,.07.07.19.58.24.29,0,.33.05.35.14s-.16.3-.33.48a2.71,2.71,0,0,0-.3.34c-.12.17,0,.9.34,1a9.45,9.45,0,0,0,2.62-.31,13.8,13.8,0,0,0,2-.74h-.06a3.68,3.68,0,0,0,.81-.81c2.48.73,7.31,1.86,12.44,3-.39.06-.94.11-1.8.2-.34.46-1,1.13-1.37.42-.66-1.16-2.94,0-3,0,.6.52,1.09,1.15,1.72,1.63a2.23,2.23,0,0,1-.3.57,1.76,1.76,0,0,1,1,1.24c.75.09,1.51-.24,2.26.09-1.8.28-4,.62-5.89-2,.62-.66.62-.66.6-.8-.4-2-6.21,2.77-6.26,2.81,1.1,1.4,3.66,1.71,4.16,1.76l.11.18c-1.76,1.29-3.62-1.11-3.63-1.14-2.57-.23-3.22,2.29-3.43,3.12a17,17,0,0,0,3.33.4,7.76,7.76,0,0,1-1.86.74s4.74,1,5.65.68a4.15,4.15,0,0,1,.17,1.32c-.28.2-.67.24-.89.56.45.44,1.1.36,1.61.64l-.08.17c-.44.11-1.1.28-2.72-.79a1.67,1.67,0,0,0,.05-.39,12.11,12.11,0,0,0-1.26.73c.15.2.15.2.5.37,2.91,1.4,2.91,1.4,2.93,1.62a7.61,7.61,0,0,1-2.32-.25,49.81,49.81,0,0,1-4.52-3c-.92.13-.92.13-1.16.08l0-.39c-.68-.52-.68-.52-.69-.9-2.87,2.19-2.29,3.47-2.26,3.52a3.25,3.25,0,0,0,.85.09l.1.18c-.6.54-1.55.54-2,1.3.18.2.18.2,2.27,1.06,0,.92,0,.92.1,1-.45.34-2.17-.41-2.52-.66,0-.22,0-.45,0-.67-2.69-.34-1.91,2.31-1.49,3.74a4.41,4.41,0,0,0-.69.86c.42.73,1.72.89,2.1.92,1.1.08,1,.36.81,1.69l.18.07c.9-.44,1.46-1.37,2.44-1.7.21-.07,1.32-.11,1.31.49,0,.94-1,1.21-1.35,1.87,1,.53,1.61-.52,2.44-.71a14.17,14.17,0,0,0-.64,2.29c2.32,1.61,4.3-3.21,6.1-.92-.11.1-.11.1-1.07.53v.22a3.81,3.81,0,0,0,2-.68c.66-.46,1-1.25,1.6-1.72a5.17,5.17,0,0,1,2.91-1.22c.18.28.5.4.73.63-1.29.71-3,.54-4,1.7a3.29,3.29,0,0,1,.09.43,30.23,30.23,0,0,0,4.36-.09c2.24,0,4.37.75,6.58.88.69,0,1.37-.07,2,0l-.42-.18a9.06,9.06,0,0,0,1.21-.12s3.1-2.34,2.55-3.07l.1-.17-.08-.18a9.42,9.42,0,0,1-1.81.46c0-.51.47-.78.61-1.22-.54-.73-1.48-.62-2.17-1,.85-.6,2.19-.32,2.71-1.5l-.31-.17c.42-.86,1.66-.51,2.07-1.39s.44-1,.31-1.36a1.7,1.7,0,0,1-1-.26h0l-.09-.07c2.55.33,2.65.28,2.86.17.47-.23,1.92-1.12,1.14-2.63-.18-.35-2.69-.14-3.22.87a1.88,1.88,0,0,1-1.8,1c-.07-1.68-.07-1.68,3.11-2.93.43-.17.43-.17.6-.43-.34-.35-.09-.87-.36-1.24s-.94-.53-1.27-1l-.16-.25a10.66,10.66,0,0,0,2.55-1.72c-.12-.14-.11-.15,2.36-3,2,.4,3.21.65,3.27.65.73.08.9.09,2.3-1.75l.09.39c3.6.47,3.6.47,4.22.78l-.36.45c-3.86-.6-3.86-.6-4.5-.05,0,.16.1.37.15.53,1.41.71,3.07.46,4.48,1.17-2.66,1.25-7-2.58-8.33,1.17.07.16.18.36.25.52a4,4,0,0,1,1,.42c-4.85,3.92-.41,5.27-.36,5.28,2.24.6,4.49-.36,6.74-.07l.21.28c-2,.52-4.1.25-6.1.79l-.07.57c2.53,2.93,2.53,2.93,9.11,3.13-.49.76-1.46.91-2,1.6a21.76,21.76,0,0,0,2.35,1.62,3.88,3.88,0,0,0-1.72,1.52c-3.38-.51-3.59-.27-4.13.34a1.69,1.69,0,0,1,0,.38,6.35,6.35,0,0,0-1.56.05c.45-1.52.82-4.49-2.77-5.3-.88-3.54-5.07-1.54-5.88-.36-2,3-2,3-1.49,3.81a3.67,3.67,0,0,1,.34,1.73c-.86,2.11-2.7,3.81-2.61,6.31.05,1.39.53,1.54,4.27,2.73-.09.14-.21.33-.29.48a7.2,7.2,0,0,1-4.42-.93c.76,2.29-1.74,2.23-1.77,2.22a3.1,3.1,0,0,1-.5-.29c-.31-1.22.9-2.28.34-3.51-.73-1.63-2.44-2.3-3.53-3.57l-.57,0c-2.42-2.14-11.51-1.8-12.57,1.11l.29.54-.49.34c0,.18.08.42.11.6.69.18,1,.27,3.1-.07,0,.17.1.38.14.54A12.62,12.62,0,0,0,624,519c.94,3.72,5.41-1.3,8.14-.07-2.3,1.5-2.3,1.5-2.56,1.94a2.33,2.33,0,0,1,0,1.2c-2.13.7-4.17-2.57-6.18-.45l.2.51a2.79,2.79,0,0,1,1,.45c-1,1.16-2.75.52-3.74,1.65a3.75,3.75,0,0,0,.77.77l.1.07,0,0,0,0,0,0,0,0,0,0,0,0,0,0c3,2.67,3.22,2.62,5,2.13,4.31-1.2,4.31-1.2,4.92-1,0,.17.06.4.09.57-14.16,4.22-13-2.51-13-2.59.81-1.53.53-3.28,1-4.89-4.25-3.57-5.58-2-8.77,1.77a2.27,2.27,0,0,1,.9,1.59c-1,.88-1.37,1.25-2.78-.19s-9.11-4.11-12.74,1.19C596.74,524.45,597,525.42,601,523.59Zm34.18-33.18-.06-.2c.59-.49.9-.74.92-.92l1.27.28a1.89,1.89,0,0,1,.44.57C637,491,635.34,490.46,635.16,490.41Zm19.58-.65.77-1c2,.42,3.06.68,3.82,1.48A15,15,0,0,0,654.74,489.76Zm7.6,35.42c.78.08.82.2,1,.73l-.05,0a22.91,22.91,0,0,0-3.07-.26h-.09v0C660.37,525.12,662.32,525.18,662.34,525.18Z" transform="translate(0.46 0)"/></g><path class="cls-10" d="M1.16,635.84l1-1.62,2.59-4h0l1.93-2.94h0l6.57-9.76,1.29-1.89h0l4.83-6.88h0l.08-.11.85-1.19h0l7.12-9.68.88-1.2h0l6.41-8.35h0l5.21-6.51h0l3.25-4,0-.05.43-.52,6.22-7.48h0l0,0h0l7.89-9.05.89-1h0l7.13-7.83h0l0-.05,8.27-8.7,1.1-1.15h0l5.84-5.92h0l1.5-1.5h0l8.63-8.35L92.32,525h0l7.74-7.17h0l9-8h0l3.67-3.21h0l3-2.52h0l2.52-2.12h0l9.4-7.68h0l2.2-1.78h0l3.55-2.8h0l3.8-2.92h0l9.41-7.06h0l1.5-1.11h0l8-5.75h0l9.65-6.64.75-.52h0l9-5.95h0l9.93-6.26.7-.45,9.31-5.61h0l7.2-4.15h0l5.25-2.94.38-.21,1-.54,6.56-3.62h0l.1-.06,3.39-1.8-6.62,29,.08.23h0l.09.24v0l3.39,8.79-.05,0,0,.09-47.42,23h0l-.2.11h0l-3.13,1.68L49.78,581.51l-.07,0,0,0h0l0,0h0l0,0h0l-.28.28-2.86,2.85L5.54,635.87H7.28l40.19-50.19.72-.71c-1.11,2.38-2.89,6.07-5.21,10.79-4.79,9.77-11.91,24.05-20.27,40.7l1.49.08c3-6.06,5.92-11.8,8.57-17.12,5.52-11,10.08-20.26,13.24-26.74,1.58-3.24,2.8-5.8,3.61-7.56.25-.52.45-1,.62-1.36l0,0a11.87,11.87,0,0,0,1.44.9,116.17,116.17,0,0,0,13.78,5.6c16.33,5.82,40,12.9,44.43,14.21l-15.22,38.1,1.43.11,14.71-36.82,15.51,38.62,1.5.08-16.23-40.41,50.66-62.51L217,474.19l0,0,.06-.08,0,0h0l0,0,15.58,32.93,0,0,27.42,42.45.55.78,2.72,3.87.63.88,2.75,3.85.16.23h0l38.22,51.3-17.69,6.61-63,31.58,2.83.11L288,618.34l15.41-5.75L264.66,650l1.9.06,39.23-37.93,7.31,39.1,1.4,0-7.43-39.73,130.79,13.28L471,628.21l89.34,20.11,5.31-.2-94.43-21.26L308.43,610.34,401,557.89l116.14-50.17,6.55-2.41.76-.27h0l27.16-9.51h0l1.21-.41,6.26-2.09h0l21.4-6.94,0,.16.33-.18L707,641.75l1.69-.08L582.28,485.72l165.66-21.28L749,519.7,746,639.77l1.37-.07,3.07-120v0L749.33,466h0l103,155.55,8.12,12.27,1.59-.09-36.4-55L749.81,464.25,789.12,461l14.34-1.18,6.22,4.12h0l6.41,4.29h0l10.09,7.08.24.17,67.7,156.77,1.47,0-67-155.12,11.32,8.38h0l3,2.37h0l13.78,11h0l2.12,1.73,7.71,6.51h0l.08.06.25.22h0l5.16,4.53,3.78,3.34h0l.4.35,1.07,1,.31.3h0l14.1,14.38,26.95,100.59h1.41L893.58,533l1.88,1.94,25.27,96.88h1.42L896.94,535.2h0l.8.78h0l.87.88h0l10.53,10.85h0L919.52,559l6.77,7.76h0l3.05,3.53h0l1.68,2,.44.52.58.69,1.32,1.56,13,17.49,14.91,40.76,2.06.12L950,596l2.83,3.74h0l2,2.76h0l7.73,10.79h0l1,1.48h0l5.77,8.44h0l.13.2.48.72.24.36,4.67,7.19h0l1.62,2.54,1.69.1-2.16-3.38h0l-4.64-7.14h0l-.27-.41-.49-.73-.13-.2h0L964.78,614h0l-1-1.48h0L956,601.67h0l-2-2.76h0l-4.82-6.38h0L943.24,585l-4.07-5.13h0l-4-4.81h0l-.55-.66h0l-.19-.27-1.35-1.59-.59-.69-.44-.52-1.68-2h0l-3.06-3.54h0l-6.8-7.79-10.38-11.25-10.55-10.88h0l-.86-.88h0l-.8-.8h0L893,529.5h0l-5.94-5.7h0l-5-4.7-.17.17-3.34-3.4-.31-.3-1.1-1-.4-.36h0l-3.79-3.34-5.16-4.54h0l-.25-.22-.07-.06h0l-7.73-6.51h0l-2.12-1.73h0l-13.79-11h0l-3.07-2.4-13.2-9.77h0l-.06,0-.08-.06h0l-.37-.27-10.1-7.08h0l-6.42-4.3h0l-4.77-3.16h.07L804,458.53l-.14-.09h0l-9.19-5.82h0l-.17-.1h0L785,446.8h0l-1.19-.69-10.89-6.28h0l-9.84-5.34h0l-8.17-4.31h0l-.24-.13-.21-.11h0l-.07,0h0l0,0-.22-.11-2.87-1.49-.49-.26h0l-6-3-5.88-2.86-.1,0h0l-.16-.07h0L726,417.14h0l-.16-.05h0l-1.37-.43h0l-.43-.13h0l-1.59-.47-.18-.06h0l-4-1.1h0l-.37-.09-1.38-.35h0l-5.52-1.32-.21-.28-.24.13L635.9,386.75l-.86-.25-.58-.16h0l-29.6-7.77.13-.27-1,0-.45-.12,0,.09-143.59-9.77-3-1.81-.62,0h0l-9.46.63h0l-.56,0h0l-10.59.91h0l-1.3.13h0l-12.53,1.34h0l-.44.05h0l-6.82.89-.25,0-.48.06-7.79,1.08h0l-8.73,1.32h-.08l-10.68,1.84h0l-1.43.27h0l-12.07,2.34h0l-10,2.16h0l-1.92.45h0L349,383.18h0l-1.48.38.27-.16-4.89,1.34-.29.07h0l-8.48,2.33h0l-8.56,2.41h0l-10.16,3.09h0l-1.36.43h0l-11.39,3.73-.07,0h0l-1.08.36h0l-8,2.81h0l-2.19.8h0L280,405h0l-.16.06h0L270.08,409h0l-1.19.5-11,4.62h0l-.14.06h0l-7.07,3.18-.8.36-.53.24-5.51,2.52h0L236.39,424h0l-1.57.76-.46.23h0l-10.17,5.13h0l-2.82,1.44v0l-1.36.72-.23.12h0l-4.43,2.34-.1.06-.1.06h0l-6.47,3.57-1,.54-.38.21-5.25,2.94h0l-7.2,4.14,0,0h0l-9.29,5.6h0l-.74.46-9.93,6.26h0l0,0h0l-9,6h0l-.76.51-9.66,6.66,0,0-8,5.74h0l-1.51,1.12h0l-9.41,7.06h0l-3.8,2.93h0L129,491.44h0l-2.2,1.78h0l-9.4,7.68h0L114.85,503h0l-3,2.53h0l-3.68,3.22h0l-9,8h0L91.38,524h0l-1.1,1.06-8.64,8.36h0l-1.52,1.5h0l-5.84,5.92h0L73.15,542l-8.28,8.72h0l0,0h0l-7.15,7.86h0l-.89,1-7.91,9.05h0l0,0h0l-6.22,7.48-.43.52,0,.05-3.25,4h0l-5.21,6.51,0,0h0l-6.42,8.35h0l-.9,1.21-7.12,9.69h0l-.85,1.2-.08.11h0l-4.83,6.89h0l-1.29,1.91L5.55,626.5h0l-1.93,2.94h0l-2.58,4H1l-1.49,2.38ZM110.6,603.29l-1.65-.5c-4.68-1.39-16.52-5-28.35-8.82-5.92-1.93-11.83-3.92-16.84-5.75a98.86,98.86,0,0,1-11.39-4.72l0,0a8.61,8.61,0,0,1-1.49-1l-.05,0,115.46-84,3-1.64h0l.18-.1,45.27-21.94Zm195.27,5.89h0l-10.52-14.12L268,558.38l-.16-.23-2.75-3.85-.62-.88-2.73-3.86-.52-.76-27.39-42.39-15.7-33.16,169.72-56.18,6.39-1.33,1.65-.34-62.36,97-.39,1h0L331,518.82h0l-.58,1.54h0l-1.93,5.22h0l-.58,1.61h0L326,532.66h0l-.43,1.27h0l-2,6.05h0l-.21.64v0l-10.52,37.08v0l-.08.31h0l-1.63,6.76h0l-.77,3.33-.5,2.23h0ZM230.39,463.42h0l1.66-1.27,56.29-36.87,0,0h0l6.28-3.45h0l1.83-1h0l4.73-2.5,27.21-13.06,1.56-.68h0l4.68-2h0l4.55-1.9h0l1.87-.76,97.63-24.72-17.19,9.2L399,409.92l-2.12,3.87-2.94.61-6.47,1.35L220.65,471h0l6.48-5.07h0Zm328.24,28.31h0l-6.27,2.1-1.21.4h0L524,503.75h0l-.77.28-6.59,2.42L400.39,556.66l-93.18,52.8,4-18.77.5-2.23.77-3.32h0l1.63-6.76h0l.08-.29,10.51-37.05.21-.64h0l2-6.06h0l.43-1.26h0l1.91-5.45h0l.58-1.61h0l1.93-5.23h0l.58-1.54h0l2.12-5.46h0l.33-.85,62.89-97.8,126.19,44.84,55.26,25Zm195.84-60.26,8,4.21,9.77,5.3h0l10.89,6.29,1.19.7h0l9.44,5.72.14.09h0l7.66,4.85-15,1.23-37.17,3.06,1-7.49.16-1.26,0-.26h0l2.4-17.13h0l0-.17h0l.09-.55.05-.27h0l.12-.64h0Zm-38.38-15.7h0l1.36.35.37.09h0l4,1.09h0l.19.05,1.59.47h0l.43.14h0l1.37.42h0l.14.05h0L738,423.26l.15.07h0l.08,0,5.88,2.87,6,3,.49.26,2.61,1.36-1.34,4,0,.11-.12.65h0l0,.27-.1.55h0l0,.18v0l-2.4,17.14h0l0,.26-.17,1.26-.82,6.5-.28-.42v.26l-35.67-46.76Zm31.25,47.37L644.41,476.36l-60,7.71L710.31,414.6ZM604.23,379.81l29.86,7.84h0l.56.17.83.24,73.34,25.8L581.47,484.14l-7.74-41.05,18.34-38ZM572.3,442.9l5.76,30.5,2,10.63-55.71-25.24L399.48,414.43l91.15-29.67.75-.16h0l5.82-1.15h0l.75-.14,52-1.78,52.8-1.8Zm18.2-64.12L497.78,382l-.85.16h0l-5.82,1.16h0l-.77.16h0l-91.51,29.79,1.37-2.51,22.21-25.22,19.22-10.29,18.14-5.33Zm-247.4,7.31,6.22-1.59h0l11.91-2.83h0l1.92-.45h0l10-2.15h0l12.08-2.34h0l1.42-.27,10.67-1.84h0l8.72-1.32h0l7.8-1.08.47-.06.25,0,6.81-.9h0l.44,0h0l12.53-1.34h0l1.29-.13h0l10.58-.91h0l.56,0h0l9.46-.63h.2l1.39.83L340.63,398.62l-2,.8h0l-4.56,1.9h0l-4.68,2h0l-1.55.67,0,0L300.6,417.11h0l-4.74,2.5h0l-1.83,1h0l-6.28,3.46h0l0,0h0L231.26,461l-1.7,1.29h0l-3.27,2.5h0l-5.14,4,16.21-20.93,1-1.09h0l.81-.89ZM221,433.26l3.84-2h0l10.15-5.12h0l.46-.22,1.55-.76h0l7.45-3.51h0l5.51-2.52.53-.24.8-.36,7.07-3.17h0l.12-.06h0l10.95-4.62,1.2-.5h0l9.69-3.85h0l.15-.06h0l11.19-4.18h0l2.18-.8h0l8.05-2.82h0l1.08-.37h0l.07,0,11.39-3.73h0l1.35-.44h0l10.16-3.09h0l8.56-2.41h0l3.44-.94-99.62,57.36-.07.08-.88,1h0l-1,1.11,0,0L217.4,471.47l-3.21-8.32,0-.09Z" transform="translate(0.46 0)"/><g class="cls-11"><circle class="cls-12" cx="306.23" cy="610.8" r="19.24" transform="translate(-102.54 63.64) rotate(-10.17)"/></g><g class="cls-11"><circle class="cls-13" cx="710.5" cy="413.72" r="19.24" transform="translate(145.21 1010.3) rotate(-76.73)"/></g><g class="cls-11"><path class="cls-14" d="M210.55,465.2A11,11,0,1,1,215,480.13,11,11,0,0,1,210.55,465.2Z" transform="translate(0.46 0)"/></g><g class="cls-11"><path class="cls-15" d="M738.65,458.27a11,11,0,1,1,4.44,14.93A11,11,0,0,1,738.65,458.27Z" transform="translate(0.46 0)"/></g><g class="cls-11"><path class="cls-16" d="M590.81,371.93a11,11,0,1,1,4.43,14.93A11,11,0,0,1,590.81,371.93Z" transform="translate(0.46 0)"/></g><g class="cls-11"><path class="cls-17" d="M884,524.55a11,11,0,1,1,4.43,14.93A11,11,0,0,1,884,524.55Z" transform="translate(0.46 0)"/></g><g class="cls-11"><path class="cls-18" d="M794,453.89a11,11,0,1,1,4.43,14.93A11,11,0,0,1,794,453.89Z" transform="translate(0.46 0)"/></g><g class="cls-11"><path class="cls-19" d="M389.87,410.34a11,11,0,1,1,4.43,14.93A11,11,0,0,1,389.87,410.34Z" transform="translate(0.46 0)"/></g><g class="cls-11"><path class="cls-20" d="M449.17,363.35a11,11,0,1,1,4.43,14.93A11,11,0,0,1,449.17,363.35Z" transform="translate(0.46 0)"/></g><g class="cls-11"><path class="cls-21" d="M204.74,431.87a11,11,0,1,1,4.43,14.93A11,11,0,0,1,204.74,431.87Z" transform="translate(0.46 0)"/></g><g class="cls-11"><path class="cls-22" d="M40.25,577.13a11,11,0,1,1,4.43,14.93A11,11,0,0,1,40.25,577.13Z" transform="translate(0.46 0)"/></g><g class="cls-11"><path class="cls-23" d="M103,598.64a11,11,0,1,1,4.43,14.93A11,11,0,0,1,103,598.64Z" transform="translate(0.46 0)"/></g><g class="cls-11"><path class="cls-24" d="M571.3,480a11,11,0,1,1,4.43,14.93A11,11,0,0,1,571.3,480Z" transform="translate(0.46 0)"/></g><g class="cls-25"><path class="cls-26" d="M840.76,322.62a9,9,0,1,1-12.23,3.32A9,9,0,0,1,840.76,322.62Z" transform="translate(0.46 0)"/><path class="cls-26" d="M227.4,219.8a9,9,0,1,1-12.23,3.31A9,9,0,0,1,227.4,219.8Z" transform="translate(0.46 0)"/><path class="cls-27" d="M383.38,509.82a3.06,3.06,0,1,1-4.14,1.23A3.06,3.06,0,0,1,383.38,509.82Z" transform="translate(0.46 0)"/><path class="cls-27" d="M133.05,554.63a3.05,3.05,0,1,1-4.14,1.23A3,3,0,0,1,133.05,554.63Z" transform="translate(0.46 0)"/><path class="cls-27" d="M748.41,333.85a3.06,3.06,0,1,1-4.15,1.23A3.06,3.06,0,0,1,748.41,333.85Z" transform="translate(0.46 0)"/><path class="cls-27" d="M346.37,329.7a3.05,3.05,0,1,1,3.57-2.43A3,3,0,0,1,346.37,329.7Z" transform="translate(0.46 0)"/><path class="cls-27" d="M876,357.55a3.05,3.05,0,1,1,3.57-2.43A3.07,3.07,0,0,1,876,357.55Z" transform="translate(0.46 0)"/><path class="cls-27" d="M472,549.41a4.25,4.25,0,1,1-2.93-5.25A4.25,4.25,0,0,1,472,549.41Z" transform="translate(0.46 0)"/><path class="cls-27" d="M720.44,542.11a4.25,4.25,0,1,1-2.93-5.24A4.24,4.24,0,0,1,720.44,542.11Z" transform="translate(0.46 0)"/><path class="cls-27" d="M226.38,509a6.53,6.53,0,1,1,9.21-.66A6.53,6.53,0,0,1,226.38,509Z" transform="translate(0.46 0)"/><path class="cls-27" d="M744.5,623.35a6.53,6.53,0,1,1,9.21-.65A6.53,6.53,0,0,1,744.5,623.35Z" transform="translate(0.46 0)"/><path class="cls-27" d="M744.27,485a6.53,6.53,0,1,1,9.21-.66A6.53,6.53,0,0,1,744.27,485Z" transform="translate(0.46 0)"/><path class="cls-27" d="M550.12,276.76a6.53,6.53,0,1,1,9.21-.66A6.54,6.54,0,0,1,550.12,276.76Z" transform="translate(0.46 0)"/><path class="cls-28" d="M127.07,616.66a9.76,9.76,0,1,0-11.85-7.08A9.76,9.76,0,0,0,127.07,616.66Z" transform="translate(0.46 0)"/><path class="cls-28" d="M406.92,250A9.76,9.76,0,1,0,395.07,243,9.75,9.75,0,0,0,406.92,250Z" transform="translate(0.46 0)"/><path class="cls-28" d="M795.25,137.72a9.76,9.76,0,1,0-11.84-7.07A9.75,9.75,0,0,0,795.25,137.72Z" transform="translate(0.46 0)"/><path class="cls-29" d="M635.39,359.38a3.32,3.32,0,1,0-4-2.5A3.31,3.31,0,0,0,635.39,359.38Z" transform="translate(0.46 0)"/><path class="cls-29" d="M967.7,326.14a3.33,3.33,0,1,0-4-2.51A3.32,3.32,0,0,0,967.7,326.14Z" transform="translate(0.46 0)"/><path class="cls-29" d="M819.45,569.57a3.32,3.32,0,1,0-4-2.5A3.32,3.32,0,0,0,819.45,569.57Z" transform="translate(0.46 0)"/><path class="cls-29" d="M60.26,409.86a3.33,3.33,0,1,0-4-2.51A3.33,3.33,0,0,0,60.26,409.86Z" transform="translate(0.46 0)"/><path class="cls-29" d="M194.67,498.32a3.33,3.33,0,1,0,3,3.6A3.32,3.32,0,0,0,194.67,498.32Z" transform="translate(0.46 0)"/><path class="cls-29" d="M476.13,274.41a3.33,3.33,0,1,0,3,3.59A3.33,3.33,0,0,0,476.13,274.41Z" transform="translate(0.46 0)"/><path class="cls-29" d="M564,475.69a4.63,4.63,0,1,0-4.62,4.63A4.62,4.62,0,0,0,564,475.69Z" transform="translate(0.46 0)"/><path class="cls-29" d="M599.91,195.71a4.63,4.63,0,1,0-4.62,4.63A4.64,4.64,0,0,0,599.91,195.71Z" transform="translate(0.46 0)"/><path class="cls-29" d="M289.62,541.62a4.63,4.63,0,1,0-4.62,4.63A4.62,4.62,0,0,0,289.62,541.62Z" transform="translate(0.46 0)"/><path class="cls-27" d="M55.32,527a7.11,7.11,0,1,0,9.46,3.4A7.11,7.11,0,0,0,55.32,527Z" transform="translate(0.46 0)"/><path class="cls-27" d="M314.82,389.38a7.11,7.11,0,1,0,9.46,3.4A7.11,7.11,0,0,0,314.82,389.38Z" transform="translate(0.46 0)"/><path class="cls-27" d="M806.45,347.05a7.11,7.11,0,1,0,9.46,3.4A7.09,7.09,0,0,0,806.45,347.05Z" transform="translate(0.46 0)"/></g></g></g><rect class="cls-30" x="0.46" width="1000" height="625"/></g></g></svg>