<svg id="Capa_1" data-name="Capa 1" xmlns="http://www.w3.org/2000/svg" viewBox="0 0 512 432.9"><defs><style>.cls-1{fill:#82c424;}</style></defs><title>graphic</title><path class="cls-1" d="M181.94,457.43H164.79v-45H268.13a7.52,7.52,0,0,0,7.51-7.51h0a7.51,7.51,0,0,0-7.51-7.51H184.49l-50-84.07,44.81-75.27a7.51,7.51,0,1,0-12.9-7.69l-47.1,79.11a7.5,7.5,0,0,0,0,7.68L167,397.45h-9.74a7.51,7.51,0,0,0-7.51,7.51v60a7.51,7.51,0,0,0,7.51,7.51h24.66a7.51,7.51,0,0,0,0-15Z" transform="translate(0 -39.55)"/><path d="M504.49,288.75H487.77A232.48,232.48,0,0,0,341.09,79.92H450a31.16,31.16,0,1,0-.35-15H286.76V47.06a7.51,7.51,0,0,0-7.51-7.51H231.92a7.51,7.51,0,0,0-7.51,7.51V64.91H61.57a31.17,31.17,0,1,0-.35,15H170.08A232.48,232.48,0,0,0,23.4,288.75H7.51A7.51,7.51,0,0,0,0,296.26v47.33a7.51,7.51,0,0,0,7.51,7.51H54.84a7.51,7.51,0,0,0,7.51-7.51V296.26a7.51,7.51,0,0,0-7.51-7.51H38.42a217.3,217.3,0,0,1,186-207.83V94.39a7.51,7.51,0,0,0,7.51,7.51h11l-61,102.53a7.51,7.51,0,0,0,12.9,7.68l53.26-89.45v139a30,30,0,1,0,15,0v-139L376.64,313.38l-50,84.07H298.16a7.51,7.51,0,0,0-7.47,6.74,6.79,6.79,0,0,0,0,.78,7.51,7.51,0,0,0,7.51,7.51h48.22v45H212a7.51,7.51,0,1,0,0,15H353.89a7.51,7.51,0,0,0,7.51-7.51V405a7.51,7.51,0,0,0-7.51-7.51h-9.74l47.68-80.24a7.5,7.5,0,0,0,0-7.68L268.21,101.9h11a7.51,7.51,0,0,0,7.51-7.51V80.92a217.3,217.3,0,0,1,186,207.83H457.16a7.51,7.51,0,0,0-7.51,7.51v47.33a7.51,7.51,0,0,0,7.51,7.51h47.33a7.51,7.51,0,0,0,7.51-7.51V296.26A7.51,7.51,0,0,0,504.49,288.75ZM47.33,336.08H15V303.77H47.33ZM480,55.57a16.15,16.15,0,1,1-16.15,16.14A16.16,16.16,0,0,1,480,55.57ZM31.16,87.86A16.15,16.15,0,1,1,47.31,71.71,16.16,16.16,0,0,1,31.16,87.86ZM270.6,290.76a15,15,0,1,1-15-15A15,15,0,0,1,270.6,290.76Zm1.14-203.88H239.43V54.57h32.31V86.88ZM497,336.08H464.67V303.77H497Z" transform="translate(0 -39.55)"/></svg>