<svg id="Layer_1" data-name="Layer 1" xmlns="http://www.w3.org/2000/svg" viewBox="0 0 376.5 299.94"><defs><style>.cls-1{fill:#82c341;}</style></defs><title>photography</title><path class="cls-1" d="M377.34,263.94A58.09,58.09,0,1,0,319.25,322a58.08,58.08,0,0,0,58.09-58.09Zm-107.18,0A49.09,49.09,0,1,1,319.25,313a49.1,49.1,0,0,1-49.09-49.09Zm0,0" transform="translate(-131 -91)"/><path d="M322,163.77a100,100,0,0,0-75.59,31.39,4.5,4.5,0,1,0,6.54,6.17A91.11,91.11,0,1,1,236.79,225a4.52,4.52,0,0,0-1.72-5.81h0a4.5,4.5,0,0,0-6.4,1.93A99.51,99.51,0,0,0,219.1,267c1.59,53.05,44.88,96,98,97.1a100.21,100.21,0,0,0,5-200.35Zm0,0" transform="translate(-131 -91)"/><path d="M472.37,129.28h-57A42.85,42.85,0,0,0,372.84,91H265.66a42.85,42.85,0,0,0-42.55,38.28h-57A35.16,35.16,0,0,0,131,164.41v191.4a35.17,35.17,0,0,0,35.12,35.13H472.37a35.17,35.17,0,0,0,35.13-35.13V164.41a35.16,35.16,0,0,0-35.13-35.13ZM498.5,355.81a26.16,26.16,0,0,1-26.13,26.13H166.12A26.16,26.16,0,0,1,140,355.81V164.41a26.16,26.16,0,0,1,26.12-26.13h61.25a4.49,4.49,0,0,0,4.5-4.5A33.82,33.82,0,0,1,265.66,100H372.84a33.83,33.83,0,0,1,33.79,33.78,4.49,4.49,0,0,0,4.5,4.5h61.24a26.16,26.16,0,0,1,26.13,26.13Zm0,0" transform="translate(-131 -91)"/><path class="cls-1" d="M471,161.51H425.06a4.51,4.51,0,0,0-4.5,4.5v23a4.51,4.51,0,0,0,4.5,4.5H471a4.5,4.5,0,0,0,4.5-4.5V166a4.5,4.5,0,0,0-4.5-4.5Zm-4.5,23H429.56v-14H466.5Zm0,0" transform="translate(-131 -91)"/><path d="M178.83,161.86a16,16,0,1,0,16,16,16,16,0,0,0-16-16Zm0,23a7,7,0,1,1,7-7,7,7,0,0,1-7,7Zm0,0" transform="translate(-131 -91)"/><path d="M161.84,257a4.5,4.5,0,0,0-4.5,4.5v9.2c0,6,9,6,9,0v-9.2a4.51,4.51,0,0,0-4.5-4.5Zm0,0" transform="translate(-131 -91)"/><path d="M161.84,281.61a4.5,4.5,0,0,0-4.5,4.5v60.68c0,6,9,6,9,0V286.11a4.51,4.51,0,0,0-4.5-4.5Zm0,0" transform="translate(-131 -91)"/></svg>