<svg id="Layer_1" data-name="Layer 1" xmlns="http://www.w3.org/2000/svg" xmlns:xlink="http://www.w3.org/1999/xlink" viewBox="0 0 360 366"><defs><style>.cls-1{fill:none;}.cls-2{clip-path:url(#clip-path);}.cls-3{fill:#82c341;}</style><clipPath id="clip-path" transform="translate(-140 -57)"><rect class="cls-1" x="140" y="57" width="360" height="366"/></clipPath></defs><title>smmm</title><path d="M350,375H338V316.2a6,6,0,0,0-12,0V375H170V255h49.92a6,6,0,0,0,0-12H164a6,6,0,0,0-6,6V375H146a6,6,0,0,0-6,6v12a30,30,0,0,0,30,30H326a30,30,0,0,0,30-30V381a6,6,0,0,0-6-6Zm-6,18a18,18,0,0,1-18,18H314v-6a6,6,0,0,0-12,0v6H194v-6a6,6,0,0,0-12,0v6H170a18,18,0,0,1-18-18v-6H344Zm0,0" transform="translate(-140 -57)"/><path d="M452,99h12a6,6,0,0,0,0-12H452a18,18,0,0,0-18,18v6h-6a6,6,0,0,0,0,12h6v18a6,6,0,0,0,12,0V123h6a6,6,0,0,0,0-12h-6v-6a6,6,0,0,1,6-6Zm0,0" transform="translate(-140 -57)"/><path d="M482,63H410a18,18,0,0,0-18,18V93a6,6,0,0,0,12,0V81a6,6,0,0,1,6-6h72a6,6,0,0,1,6,6v72a6,6,0,0,1-6,6H410a6,6,0,0,1-6-6V117a6,6,0,0,0-12,0v36a18,18,0,0,0,18,18h72a18,18,0,0,0,18-18V81a18,18,0,0,0-18-18Zm0,0" transform="translate(-140 -57)"/><path d="M422,303a24,24,0,1,0,24-24,24,24,0,0,0-24,24Zm36,0a12,12,0,1,1-12-12,12,12,0,0,1,12,12Zm0,0" transform="translate(-140 -57)"/><path d="M482,249H410a18,18,0,0,0-18,18v72a18,18,0,0,0,18,18h72a18,18,0,0,0,18-18V327a6,6,0,0,0-12,0v12a6,6,0,0,1-6,6H410a6,6,0,0,1-6-6V267a6,6,0,0,1,6-6h72a6,6,0,0,1,6,6v36a6,6,0,0,0,12,0V267a18,18,0,0,0-18-18Zm0,0" transform="translate(-140 -57)"/><g class="cls-2"><path d="M274.82,134.1a6,6,0,0,0,3.18.9,5.92,5.92,0,0,0,2.7-.66l36-18a6,6,0,0,0,0-10.68l-36-18A6,6,0,0,0,272,93v36a6,6,0,0,0,2.82,5.1ZM284,102.72,300.56,111,284,119.28Zm0,0" transform="translate(-140 -57)"/><path d="M290,165a54,54,0,1,0-54-54,54,54,0,0,0,54,54Zm0-96a42,42,0,1,1-42,42,42,42,0,0,1,42-42Zm0,0" transform="translate(-140 -57)"/></g><path d="M350,189a6,6,0,0,0,4.8-2.4l18-24a6,6,0,0,0-9.6-7.2l-18,24A6,6,0,0,0,350,189Zm0,0" transform="translate(-140 -57)"/><path d="M363.2,210.6a6,6,0,0,0,8.4,1.2l24-18a6,6,0,0,0-7.2-9.6l-24,18a6,6,0,0,0-1.2,8.4Zm0,0" transform="translate(-140 -57)"/><path d="M422,223.8a6,6,0,0,0-7.2-4.8l-30,6a6,6,0,0,0,1.2,12h1.2l30-6a6,6,0,0,0,4.8-7.2Zm0,0" transform="translate(-140 -57)"/><path d="M146,225h72a6,6,0,0,0,6-6V123a6,6,0,0,0-6-6H146a6,6,0,0,0-6,6v96a6,6,0,0,0,6,6Zm6-96h60v84H152Zm0,0" transform="translate(-140 -57)"/><path d="M194,141H182a6,6,0,0,0,0,12h12a6,6,0,0,0,0-12Zm0,0" transform="translate(-140 -57)"/><path d="M194,165H170a6,6,0,0,0,0,12h24a6,6,0,0,0,0-12Zm0,0" transform="translate(-140 -57)"/><path d="M194,189H170a6,6,0,0,0,0,12h24a6,6,0,0,0,0-12Zm0,0" transform="translate(-140 -57)"/><path class="cls-3" d="M344.72,223.2a6,6,0,0,0-10.44,6L360.74,275l-96,36h-.9l-15.6,9-10.38,6a12,12,0,0,1-16.38-4.38l-12-20.76A12,12,0,0,1,214,285l20.76-12,15,26a6,6,0,1,0,10.44-6L244.7,266.22l75.3-62.1,2.46,4.26a6,6,0,0,0,8.22,2.22,6.06,6.06,0,0,0,2.81-3.65,6,6,0,0,0-.59-4.57l-6-10.38a6.08,6.08,0,0,0-9.06-1.62l-84,69.24-25.56,14.76a24,24,0,0,0-11,27.18l-6,3.42a18,18,0,0,0,9,33.6,18.34,18.34,0,0,0,9-2.4l6-3.42a23.28,23.28,0,0,0,10.5,6.24,22.73,22.73,0,0,0,6.3.84,23.64,23.64,0,0,0,12-3.24l5.22-3,12,20.82a18,18,0,1,0,31.14-18l-10.92-19,90-33.78A6,6,0,0,0,374.6,275ZM203,325.74a6,6,0,1,1-6-10.38l5.22-3,6,10.38Zm79,16.8a6,6,0,0,1-10.38,6l-12-20.82,10-5.7H270Zm0,0" transform="translate(-140 -57)"/></svg>