<svg id="Layer_1" data-name="Layer 1" xmlns="http://www.w3.org/2000/svg" viewBox="0 0 511.78 512"><defs><style>.cls-1{fill:#82c341;}</style></defs><title>ux</title><path class="cls-1" d="M170.05,255H64A256.32,256.32,0,0,0,306.69,496V390A150.85,150.85,0,0,1,170.05,255Zm0,0" transform="translate(-64 16)"/><path d="M336.73,389.64V495.78A256.31,256.31,0,0,0,575.78,255h-106a150.87,150.87,0,0,1-133,134.62Zm0,0" transform="translate(-64 16)"/><path d="M306.69,90V-16A256.32,256.32,0,0,0,64,225H170.05A150.85,150.85,0,0,1,306.69,90Zm0,0" transform="translate(-64 16)"/><path class="cls-1" d="M469.73,225h106a256.33,256.33,0,0,0-239-240.76V90.36A150.87,150.87,0,0,1,469.73,225Zm0,0" transform="translate(-64 16)"/><path d="M290.85,225v20c0,4.51-.75,7.8-2.11,10.09-1.8,3-4.69,4.31-8.37,4.31S273.8,258.05,272,255c-1.36-2.29-2.11-5.58-2.11-10.09v-37H246.77v37.71a42.83,42.83,0,0,0,1,9.4c3.3,14.73,14.81,23,32.42,23,11.77,0,20.82-3.71,26.51-10.57,4.49-5.42,6.89-12.79,6.89-21.85V207.91H290.85Zm0,0" transform="translate(-64 16)"/><path class="cls-1" d="M371.57,207.91,360.32,225l-.11.16-.11-.16-11.55-17.07h-26l23.9,34L337.09,255l-.36.5-15,21h26.35l11.56-18.31,11.85,18.31h26.45L382.63,255l-10-14,11.53-16,12.27-17.07Zm0,0" transform="translate(-64 16)"/></svg>