<svg id="Capa_1" data-name="Capa 1" xmlns="http://www.w3.org/2000/svg" xmlns:xlink="http://www.w3.org/1999/xlink" viewBox="0 0 480 400"><defs><style>.cls-1{fill:url(#linear-gradient);}.cls-2{fill:#82c424;}</style><linearGradient id="linear-gradient" x1="32" y1="344" x2="448" y2="344" gradientUnits="userSpaceOnUse"><stop offset="0" stop-color="#fff"/><stop offset="0.08" stop-color="#cdcdcd"/><stop offset="0.17" stop-color="#9d9d9d"/><stop offset="0.26" stop-color="#737373"/><stop offset="0.36" stop-color="#505050"/><stop offset="0.46" stop-color="#333"/><stop offset="0.57" stop-color="#1c1c1c"/><stop offset="0.68" stop-color="#0c0c0c"/><stop offset="0.82" stop-color="#030303"/><stop offset="1"/></linearGradient></defs><title>video-animation</title><path d="M222.75,291.14a4.91,4.91,0,0,0,5.47.05l88-56.7a6.81,6.81,0,0,0,2.09-8.58,5.87,5.87,0,0,0-2.09-2.39l-88-56.69c-2.64-1.73-6-.67-7.5,2.35a7.15,7.15,0,0,0-.72,3.13V285.7A6.54,6.54,0,0,0,222.75,291.14Zm8.25-108L302.26,229,231,274.93Z" transform="translate(-16 -56)"/><polygon class="cls-1" points="160 320 144 320 144 336 32 336 32 352 144 352 144 368 160 368 160 352 448 352 448 336 160 336 160 320"/><path class="cls-2" d="M256,360A128,128,0,1,0,128,232,128,128,0,0,0,256,360Zm0-240A112,112,0,1,1,144,232,112,112,0,0,1,256,120Z" transform="translate(-16 -56)"/><path d="M472,56H40A24,24,0,0,0,16,80V432a24,24,0,0,0,24,24H472a24,24,0,0,0,24-24V80A24,24,0,0,0,472,56Zm8,376a8,8,0,0,1-8,8H40a8,8,0,0,1-8-8V80a8,8,0,0,1,8-8H472a8,8,0,0,1,8,8Z" transform="translate(-16 -56)"/><rect x="32" y="32" width="16" height="16"/><rect x="64" y="32" width="16" height="16"/><rect x="96" y="32" width="16" height="16"/></svg>