<svg id="color" enable-background="new 0 0 24 24" height="512" viewBox="0 0 24 24" width="512" xmlns="http://www.w3.org/2000/svg"><path d="m16 22h-2v-2h-4v2h-2c-.552 0-1 .448-1 1s.448 1 1 1h8c.553 0 1-.448 1-1s-.447-1-1-1z" fill="#90a4ae"/><path d="m22.25 4h-20.5c-.965 0-1.75.785-1.75 1.75v12.5c0 .965.785 1.75 1.75 1.75h20.5c.965 0 1.75-.785 1.75-1.75v-12.5c0-.965-.785-1.75-1.75-1.75z" fill="#607d8b"/><path d="m22 18h-20v-12h20z" fill="#fff"/><path d="m12 20h-2v2h-2c-.552 0-1 .448-1 1s.448 1 1 1h4z" fill="#7d8f97"/><path d="m12 4h-10.25c-.965 0-1.75.785-1.75 1.75v12.5c0 .965.785 1.75 1.75 1.75h10.25v-2h-10v-12h10z" fill="#546d79"/><path d="m12 6h-10v12h10z" fill="#dedede"/><g fill="#ffc107"><path d="m15.25 14.5c-.173 0-.346-.059-.488-.181-.314-.27-.351-.743-.081-1.058l1.081-1.261-1.082-1.262c-.27-.314-.233-.788.081-1.058.315-.27.788-.233 1.058.081l1.5 1.75c.241.281.241.695 0 .977l-1.5 1.75c-.148.173-.358.262-.569.262z"/><path d="m8.75 14.5c-.211 0-.421-.089-.57-.262l-1.5-1.75c-.241-.281-.241-.695 0-.977l1.5-1.75c.27-.313.743-.351 1.058-.08.314.27.351.743.081 1.058l-1.081 1.261 1.082 1.262c.27.314.233.788-.081 1.058-.142.12-.316.18-.489.18z"/><path d="m11.082 15.981c-.404-.093-.655-.496-.563-.899l1.5-6.5c.093-.403.495-.654.899-.563.404.093.655.496.562.899l-1.5 6.5c-.09.396-.484.656-.898.563z"/></g><path d="m17.5 12h-1.738l-1.082 1.262c-.27.314-.233.788.081 1.058.142.122.315.181.488.181.211 0 .421-.089.57-.262l1.5-1.75c.121-.141.181-.315.181-.489z" fill="#dea806"/><path d="m8.238 12h-1.738c0 .174.06.348.181.488l1.5 1.75c.148.173.358.262.569.262.172 0 .346-.06.488-.181.314-.27.351-.743.081-1.058z" fill="#dea806"/><path d="m12.77 12h-1.54l-.711 3.082c-.093.403.159.806.563.899.057.013.113.019.169.019.348 0 .652-.24.73-.581z" fill="#dea806"/></svg>