<svg id="Capa_1" enable-background="new 0 0 512 512" height="512" viewBox="0 0 512 512" width="512" xmlns="http://www.w3.org/2000/svg"><g><path d="m0 467c0 24.853 20.147 45 45 45h422c24.853 0 45-20.147 45-45v-15h-512z"/><circle cx="256" cy="286" r="30"/><path d="m482 151h-61v-8.789l30-30v-23.974c17.422-6.213 30-23.707 30-43.237 0-24.814-20.186-45-45-45s-45 20.186-45 45c0 19.53 12.578 37.024 30 43.237v11.552l-30 30v21.211h-90v-8.789l30-30v-23.974c17.422-6.213 30-23.707 30-43.237 0-24.814-20.186-45-45-45s-45 20.186-45 45c0 19.53 12.578 37.024 30 43.237v11.552l-30 30v21.211h-30v-21.211l-30-30v-11.552c17.422-6.213 30-23.707 30-43.237 0-24.814-20.186-45-45-45s-45 20.186-45 45c0 19.53 12.578 37.024 30 43.237v23.974l30 30v8.789h-90v-21.211l-30-30v-11.552c17.422-6.213 30-23.707 30-43.237 0-24.814-20.186-45-45-45s-45 20.186-45 45c0 19.53 12.578 37.024 30 43.237v23.974l30 30v8.789h-61v271h452zm-166 135c0 5.55-1.002 10.822-2.419 15.927l27.849 16.08-15 25.986-27.691-15.991c-7.502 7.632-17.075 13.094-27.739 15.866v32.132h-30v-32.131c-10.664-2.772-20.237-8.234-27.739-15.866l-27.691 15.991-15-25.986 27.849-16.08c-1.417-5.106-2.419-10.378-2.419-15.928s1.002-10.822 2.419-15.927l-27.849-16.08 15-25.986 27.691 15.991c7.502-7.632 17.075-13.094 27.739-15.866v-32.132h30v32.131c10.664 2.772 20.237 8.234 27.739 15.866l27.691-15.991 15 25.986-27.849 16.08c1.417 5.106 2.419 10.378 2.419 15.928z"/></g></svg>