<svg xmlns="http://www.w3.org/2000/svg" viewBox="0 0 690.92 375.21"><defs><style>.cls-1{opacity:0.2;}.cls-2{fill:#82c424;}.cls-3{fill:#e6f3d3;}.cls-4{fill:#734e4f;}.cls-5{fill:#ff9d2e;}.cls-6{fill:#f5b0b5;}.cls-7{fill:#161616;}.cls-8{fill:#00d2bc;}.cls-9{fill:#f9cacc;}.cls-10{fill:#491f06;}.cls-11{fill:#f07058;}.cls-12{fill:#004b45;}.cls-13{fill:#008da2;}.cls-14{fill:#ffd01b;}</style></defs><title>why_exmyb</title><g id="BACKGROUND"><g class="cls-1"><path class="cls-2" d="M720.36,341.92a62.58,62.58,0,0,0-18-40.62c-.31-.33-.64-.65-1-1-11.51-11.5-25-19.84-38.94-27.48-10.58-5.83-21.39-11.24-31.72-17.36-2.59-1.53-5.15-3.1-7.67-4.74-4.87-3.16-9.93-6.68-13.11-11.62a19.43,19.43,0,0,1-2-4c-4.14-11.23,2.86-23.62,10.88-32,5.24-5.52,11.25-10.66,15.77-16.76a36.27,36.27,0,0,0,5.58-10.68,37.51,37.51,0,0,0,.31-19.23,57.69,57.69,0,0,0-2.91-9.15,72.05,72.05,0,0,0-12.33-19.94c-10.65-12.27-25.06-21-40.41-26.32a111.92,111.92,0,0,0-15.93-4.26c-17.08-3.27-35.9-2.89-50.23,7.67l-.07,0-1.82,1.44c-15,12.27-22.79,33.83-39.67,42.85a33.51,33.51,0,0,1-19.41,3.61h0a35.23,35.23,0,0,1-19.19-8.31,119.58,119.58,0,0,0-14.27-19.67,80.27,80.27,0,0,0-4.8-7.1q-.23-.27-.45-.57a57.14,57.14,0,0,0-14.93-13.53A47.39,47.39,0,0,0,375,96.32a47.39,47.39,0,0,0-29.09,6.89A57.14,57.14,0,0,0,331,116.74q-.23.3-.45.57a80.27,80.27,0,0,0-4.8,7.1,119.58,119.58,0,0,0-14.27,19.67,35.23,35.23,0,0,1-19.19,8.31h0a33.51,33.51,0,0,1-19.41-3.61c-16.88-9-24.72-30.58-39.67-42.85l-1.82-1.44-.07,0C217,93.89,198.14,93.51,181.06,96.78A111.92,111.92,0,0,0,165.13,101c-15.35,5.3-29.76,14-40.41,26.32a72.05,72.05,0,0,0-12.33,19.94,57.69,57.69,0,0,0-2.91,9.15,37.51,37.51,0,0,0,.31,19.23,36.27,36.27,0,0,0,5.58,10.68c4.52,6.1,10.53,11.24,15.77,16.76,8,8.43,15,20.82,10.88,32a19.43,19.43,0,0,1-2,4c-3.18,4.94-8.24,8.46-13.11,11.62-2.52,1.64-5.08,3.21-7.67,4.74C108.91,261.62,98.1,267,87.52,272.86c-13.92,7.64-27.43,16-38.94,27.48-.33.31-.66.63-1,1a62.58,62.58,0,0,0-18,40.62c-1.05,18.82,6.18,38.1,20.83,52.57,18,17.78,44,25.15,68,24,13.3-.63,499.8-.63,513.1,0,24,1.13,50-6.24,68-24C714.18,380,721.41,360.74,720.36,341.92Z" transform="translate(-29.54 -65.06)"/></g></g><g id="OBJECTS"><ellipse class="cls-3" cx="345.46" cy="361.14" rx="322.86" ry="14.07"/><path class="cls-4" d="M597.24,168.09c-1,1.41-2,2.84-3,4.1Q595.86,170.21,597.24,168.09Z" transform="translate(-29.54 -65.06)"/><path class="cls-5" d="M650,149.25c-2.32-7.91-7.16-17.79-5.26-26.18l-21.31-7.89c-3.52.08-6.88,8.3-8.26,11.17-6.39,13.21-9.78,29.19-18,41.74,2.42-3.34,5.12-6.62,8.7-7.53,0,2.39-1.65,4.85-2.2,7.25a36.87,36.87,0,0,0-.93,9.05c.18,6.93,2,13.48,3.94,20.08a130,130,0,0,0,10.44,24.27c4,7.63,11.69,16.42,12.48,25.28,4.92-8.26,8.93-17.22,13.61-25.67,4.86-8.77,8.25-17.95,12.51-27a82.56,82.56,0,0,1,.87,14.74.1.1,0,0,0,.2,0c1.13-6.85,3.27-13.82,3.35-20.77C660.37,174.27,653.73,161.9,650,149.25Z" transform="translate(-29.54 -65.06)"/><path class="cls-6" d="M606,147.85l-39.89,40.57s10.25,6.1,10.64,5.71,32.69-28.74,32.69-28.74Z" transform="translate(-29.54 -65.06)"/><path class="cls-7" d="M588.48,321.53c.08-6.18,7.71-86,7.71-86l24.46-1.35-12.12,92.14c13.07,10.64,30,50,39.89,81.26l-5.74,4.65-48.5-71.68A33.13,33.13,0,0,1,588.48,321.53Z" transform="translate(-29.54 -65.06)"/><path class="cls-7" d="M609.58,342.24c.74-4,1.9-37.59,3-59.59l2.67-55.46,22.51.39s9.1,24,4.84,35.47c-2.65,7.15-5,19.86-5,19.86L627,347.21c5.28,18.05-6,70.13-6,70.13l-8,.42C616.19,391.48,608.49,348.17,609.58,342.24Z" transform="translate(-29.54 -65.06)"/><path class="cls-5" d="M597.22,430.4c19.88-2,28.72-3.23,23.9-13a.18.18,0,0,0,0-.09s-4.76,0-7.44.14L596.77,426C592.21,428,594.44,430.66,597.22,430.4Z" transform="translate(-29.54 -65.06)"/><path class="cls-5" d="M632.57,423.35l7.18-2.9,2.93-8.27s4.36-3.47,5.74-4.65c0,0,4.25,2.84,4.69,4.6.78,3.12-1.68,7.19-6.37,12.41a4.24,4.24,0,0,1-2.22,1.3c-2.54.58-11.32,1.52-11.32,1.52h0A2.09,2.09,0,0,1,632.57,423.35Z" transform="translate(-29.54 -65.06)"/><path class="cls-8" d="M641.63,238.87,595.24,242l4.3-29.4a48.05,48.05,0,0,0,.21-12.22l-1.32-12-3.1-4.07A13.38,13.38,0,0,1,593.85,169L606,147.85s1.81-.35,4.7-.62c.44,0,.94-.08,1.41-.12h0l.36,0L613,147c.55,0,1.13-.07,1.72-.09l1.13-.07,0-1a1.56,1.56,0,0,1,1-1.54,1.46,1.46,0,0,1,.68-.14l9.79.28h.07a1.6,1.6,0,0,1,1.49,1.5l.1,1.93.06,0c.6.12,1.2.25,1.8.4s1.27.35,1.91.54h0a11.25,11.25,0,0,1,7.79,9.88c.86,12.31-4.41,28.31-6.82,37.23a26.44,26.44,0,0,0-.1,13.31C635.61,217.23,639,230.12,641.63,238.87Z" transform="translate(-29.54 -65.06)"/><path class="cls-6" d="M626.9,136.3l-10.51.58.42,7.49a1.46,1.46,0,0,1,.68-.14l9.79.28h.07Z" transform="translate(-29.54 -65.06)"/><path class="cls-9" d="M636.41,135.79c1.87-2.16,2.94-5.75,1-7a3.9,3.9,0,0,0-2.29-.49c2.21-7.8,1.21-18.35-3.66-21.53-6.38-4.15-13.93-4-24.21,12.8-4.07,6.63-3.3,16.33,2.65,21,4.46,3.51,13.05,1.29,18.76-2.85C631.16,138.23,634,138.52,636.41,135.79Z" transform="translate(-29.54 -65.06)"/><path class="cls-10" d="M611.44,127.55l-.11,0c-.84-.28-2-.74-1.94-1.58.05-1.17,2.51-1.89,3.56-2.15a.42.42,0,0,1,.5.31.41.41,0,0,1-.3.5c-1.49.36-2.91,1-2.93,1.37,0,0,0,.33,1.37.76a.41.41,0,0,1,.27.52A.43.43,0,0,1,611.44,127.55Z" transform="translate(-29.54 -65.06)"/><path class="cls-10" d="M611.59,131.9a6.15,6.15,0,0,1-.6-.25.4.4,0,0,1-.16-.54.38.38,0,0,1,.53-.16c.18.09,4.4,2.25,7.1-1.64a.4.4,0,0,1,.55-.1.39.39,0,0,1,.1.55A6.1,6.1,0,0,1,611.59,131.9Z" transform="translate(-29.54 -65.06)"/><path class="cls-10" d="M621.87,125.31a1.39,1.39,0,1,1-.67-1.94A1.45,1.45,0,0,1,621.87,125.31Z" transform="translate(-29.54 -65.06)"/><path class="cls-10" d="M613.31,121.71a1.39,1.39,0,1,1-.68-1.94A1.46,1.46,0,0,1,613.31,121.71Z" transform="translate(-29.54 -65.06)"/><path class="cls-10" d="M626.94,123.83a.47.47,0,0,1-.31-.4,3,3,0,0,0-3-3,.47.47,0,1,1,0-.94,3.88,3.88,0,0,1,4,3.83.47.47,0,0,1-.43.51A.34.34,0,0,1,626.94,123.83Z" transform="translate(-29.54 -65.06)"/><path class="cls-10" d="M616.39,116.93a.41.41,0,0,1-.42-.09,2.5,2.5,0,0,0-3.54-.23.4.4,0,0,1-.56,0,.39.39,0,0,1,0-.56,3.26,3.26,0,0,1,4.63.25.4.4,0,0,1,0,.56A.42.42,0,0,1,616.39,116.93Z" transform="translate(-29.54 -65.06)"/><path class="cls-5" d="M638.89,105.86a20.17,20.17,0,0,0-19.15-6.11,12.23,12.23,0,0,0-7.54,4.58c-4.6,6.44-1.7,10.32-1.7,10.32-.22.22,3.07-3.07,5.14-5.11-.17,2,.28,6.22,1.29,7.91a26.66,26.66,0,0,1,3.1-6.4,20.91,20.91,0,0,1,1.31,10l3.55-7.84c2.81,3.3,5.71,6.81,6.53,11.07a16.7,16.7,0,0,1-.86,8.59,94.34,94.34,0,0,1-4.82,11.34c7.68-2.37,11.21-8,14.83-12,3-3.41,4.12-8.23,3.82-12.79a22.81,22.81,0,0,0-4.5-12.33C639.57,106.66,639.24,106.25,638.89,105.86Z" transform="translate(-29.54 -65.06)"/><path class="cls-6" d="M606.84,131.16c-.35-1.45-6.52,1.54-11.21,2.37a16.46,16.46,0,0,0-6.66,2.65c-2.8,2-4.43,4.48-5.45,10.27h0l-17.45,42a5.89,5.89,0,0,0-.19,4h0a5.89,5.89,0,0,0,8.59,3.39h0a13,13,0,0,0,6.14-8.37l5.56-24.68h0l3.58-13.61c.53,0,4.12.9,4.87-4,0,0,3.79,1.56,4.68-1.16a2.27,2.27,0,0,0,1.34-2,2.21,2.21,0,0,0,.09-2.7l-3.62-3S607.19,134.4,606.84,131.16Z" transform="translate(-29.54 -65.06)"/><path class="cls-5" d="M546.82,149.27q.66-11.29,4.83-17.84a59.27,59.27,0,0,1,11.4-12.82,66.84,66.84,0,0,0,9.55-9.07A16.55,16.55,0,0,0,576,99.78a11,11,0,0,0-3.18-8.69,11.72,11.72,0,0,0-7.77-3.81q-6.67-.39-10.87,3.66a28.55,28.55,0,0,0-2.69,3,11.12,11.12,0,0,1-14.1,3h0a11.1,11.1,0,0,1-3.56-16.43l.55-.74A40.64,40.64,0,0,1,547.92,69q8.67-4.56,20.67-3.86,15.58.91,24.8,9.36t8.27,24.54q-.66,11.13-4.54,17.26a44.84,44.84,0,0,1-8.22,9.91q-4.35,3.78-5.62,4.91a45.3,45.3,0,0,0-9,10.64q-3.24,5.49-3.76,14.39l-.21,3.59-24-1.4Zm-.56,42a11,11,0,0,1-3.43-9.05,11.51,11.51,0,0,1,4.55-8.66,14.47,14.47,0,0,1,10.23-3,13.83,13.83,0,0,1,9.63,4.17,11.74,11.74,0,0,1,3.34,9.13,11.27,11.27,0,0,1-4.29,8.6q-4,3.12-10.13,2.76A15.08,15.08,0,0,1,546.26,191.25Z" transform="translate(-29.54 -65.06)"/><path class="cls-9" d="M632.29,149.65a8.82,8.82,0,0,0-9.51,4.78L607.29,186l-29.06-30.14-.08-.08-1.92-2s.57-9.45-2.57-10.93a4.32,4.32,0,0,1-1.2,1.69l0,0c-3.36,2.39-7.39-6.21-7.39-6.21-2.17-4.42-3.25-3.59-3.25-3.59-1.12.59,1.77,6.14,3.57,9.37l-.63-.37-5.11-7c-1.08-2.16-1.92-.42-1.92-.42-.66,2.57,6.3,12.76,6.3,12.76l-3.7-4.72c-4-6.51-4.61-4.46-4.61-4.46-.59,2,6.81,12,6.81,12l-5.38-6.69c-2.07-.91-.54,3.13-.54,3.13,1.83,6.71,14.92,14.31,14.92,14.31h0l.63.52,13.92,19.76.18.27,13.52,19.19a10.44,10.44,0,0,0,17.71-1l21-38.75A8.81,8.81,0,0,0,632.29,149.65Z" transform="translate(-29.54 -65.06)"/><path class="cls-10" d="M527.23,289.08a9.61,9.61,0,0,0-4-3.19c-1-.45-2.24-.71-3-1.68-2.51-3.18,3.68-5.47,5.22-6.26s3.28-2.45,3.23-4.58a6,6,0,0,0-2.08-4,17.91,17.91,0,0,0-8.86-4.93c0-1.44-3.62-11.15-3.62-11.15L487,254l-1.72,6.6s-10.15,2.64-11.07,4.89a5.5,5.5,0,0,0,.25,4.17,11.11,11.11,0,0,0,2.4,3.2c-1.05,1.85-3,2.53-4.64,3.56s-3.26,3.1-2.71,5.24c.7,2.72,4.11,2.92,5.27,5.39l-3.67,2.89a3.28,3.28,0,0,0-1,1.09c-.66,1.34.34,3,1.44,3.82a12.5,12.5,0,0,0,5.47,2c11.23,2,22.67.64,34,.38,5.36-.12,10.79,0,16-1.63a2.72,2.72,0,0,0,2.08-1.77,3.44,3.44,0,0,0-.28-1.92A11.93,11.93,0,0,0,527.23,289.08Z" transform="translate(-29.54 -65.06)"/><path class="cls-9" d="M519.28,300.46a5.2,5.2,0,0,0-7.66,3.9c-.48,4.65,2,13.53,15,30.25l8.31,10.91,11.25-6.43S530.75,306.84,519.28,300.46Z" transform="translate(-29.54 -65.06)"/><path class="cls-9" d="M478.34,301.56a5.2,5.2,0,0,1,7.65,3.9c.49,4.65-2,13.54-15,30.25L460.35,350l-8.88-9.78S466.87,307.94,478.34,301.56Z" transform="translate(-29.54 -65.06)"/><path class="cls-6" d="M510.65,300.07l.88,1.85a15.26,15.26,0,0,1-12.87,21.8l-.6,0a15.28,15.28,0,0,1-15.29-20.13l.94-2.8,5.51-.25c2.71-.61,4-1.63,4.59-4.31v0a9.8,9.8,0,0,0-.71-6.1l11.95-2.82.6,6.47c.11,1.17.16,2.34.16,3.51h0a2.46,2.46,0,0,0,2.22,2.43Z" transform="translate(-29.54 -65.06)"/><path class="cls-9" d="M521.6,276.28c-.89,3.78-3.77,5-6.46,5.72a27.67,27.67,0,0,1-3.58,5.47c-.45.53-.91,1-1.38,1.52a15.29,15.29,0,0,1-7.9,5,1.4,1.4,0,0,1-.28.06c-.19,0-.36.1-.54.13l-.37,0c-.1,0-.21,0-.31,0s-.47,0-.72,0-.49,0-.72,0a2.91,2.91,0,0,0-.32,0l-.36,0c-.19,0-.35-.1-.54-.13l-.27-.06a15.19,15.19,0,0,1-7.89-5,27.31,27.31,0,0,1-5-7c-2.69-.76-5.58-1.94-6.45-5.72-.7-3,.12-6.92,2.64-7.14a4.46,4.46,0,0,1,2.44.69,32.45,32.45,0,0,1,7.05-13.93,11.16,11.16,0,0,1,4.67-3.71,8.2,8.2,0,0,1,2.81-.82,26.37,26.37,0,0,1,3.84,0,8.14,8.14,0,0,1,2.8.82,11.24,11.24,0,0,1,4.7,3.71,27.27,27.27,0,0,1,2.3,3,33.43,33.43,0,0,1,4.73,10.93,4.43,4.43,0,0,1,2.43-.69C521.47,269.36,522.28,273.3,521.6,276.28Z" transform="translate(-29.54 -65.06)"/><path class="cls-8" d="M551.3,374.07s-34.93-6-35.7-7.27c-21.48,3.2-31.2,1.76-35.62.08l-34.33,3,17.16,27.39h72.13Z" transform="translate(-29.54 -65.06)"/><path class="cls-6" d="M535.72,414.88l-1.54,7.58a.18.18,0,0,0-.07,0c-10.24-2.33-37-9.67-47.57-11.88-26-5.48-43-10.63-52.87-23.22a10.24,10.24,0,0,1-2.08-7.56,10.56,10.56,0,0,1,3.82-6.92,15.39,15.39,0,0,1,16.91-1.72l38.33,23.11Z" transform="translate(-29.54 -65.06)"/><path class="cls-10" d="M561.22,421.44c-7.91-5.54-13.05-6.72-23.81-6.92h0l-2.21,0,0,.08-.06,0-1.54,7.58c1,.68,1.9,1.27,2.82,1.84,8.46,5.08,15.59,5.77,21,6.41C563.29,431,566,424.81,561.22,421.44Z" transform="translate(-29.54 -65.06)"/><path class="cls-9" d="M557.91,392.28C547,404,529.58,407.7,503.26,411c-10.68,1.32-38,6.39-48.4,7.85l-.08.05-1-7.72h.08v.06l46.72-16.85,40.15-19.82a15.41,15.41,0,0,1,16.71,3.13,10.5,10.5,0,0,1,3.22,7.22A10.21,10.21,0,0,1,557.91,392.28Z" transform="translate(-29.54 -65.06)"/><path class="cls-10" d="M453.75,411.17c-1.38-.11-2.69-.2-3.89-.27-9.6-.5-14.7.42-22.58,5-5.1,2.94-.1,9.36,5.81,9.19,5.24-.14,9.19-.26,17.45-4a47.62,47.62,0,0,0,4.24-2.18Z" transform="translate(-29.54 -65.06)"/><path class="cls-10" d="M501.88,285.37a6.92,6.92,0,0,0,4.78-5,.48.48,0,1,0-.93-.25c-1.54,5.5-7.25,4.72-7.49,4.69a.48.48,0,0,0-.55.4.47.47,0,0,0,.41.54A9.38,9.38,0,0,0,501.88,285.37Z" transform="translate(-29.54 -65.06)"/><path class="cls-10" d="M507.07,275.41a1.63,1.63,0,1,1-1.52-1.74A1.63,1.63,0,0,1,507.07,275.41Z" transform="translate(-29.54 -65.06)"/><path class="cls-10" d="M494.89,275.41a1.63,1.63,0,1,1-1.52-1.74A1.63,1.63,0,0,1,494.89,275.41Z" transform="translate(-29.54 -65.06)"/><path class="cls-10" d="M508.85,272.25l0,0a.48.48,0,0,0,.25-.63,4,4,0,0,0-5.11-2.34.48.48,0,0,0-.28.62.48.48,0,0,0,.62.28,3.06,3.06,0,0,1,3.89,1.82A.48.48,0,0,0,508.85,272.25Z" transform="translate(-29.54 -65.06)"/><path class="cls-10" d="M495.58,270.82l0-.05a.47.47,0,0,0-.21-.64,4,4,0,0,0-5.44,1.42.48.48,0,0,0,.83.48,3,3,0,0,1,4.17-1A.48.48,0,0,0,495.58,270.82Z" transform="translate(-29.54 -65.06)"/><path class="cls-10" d="M498.51,282.08a.47.47,0,1,0,0-.93s-.9,0-1.13-.5c-.1-.22-.21-.9,1.09-2.5a.47.47,0,0,0-.73-.58c-1.21,1.5-1.61,2.64-1.2,3.48a2.31,2.31,0,0,0,2,1Z" transform="translate(-29.54 -65.06)"/><path class="cls-9" d="M526.84,288.17a7.42,7.42,0,0,0,2.08,3.37,11.07,11.07,0,0,0,3.54,2.13l.07,15.13L531.67,336c0,.42,0,.84,0,1.25a13.91,13.91,0,0,0,4.13,9.11,6.29,6.29,0,0,0,4.81,1.82,6.36,6.36,0,0,0,5-3,7.84,7.84,0,0,0,.75-1.7,16.49,16.49,0,0,0,.55-7.29l-7.31-43.59a32.43,32.43,0,0,0,0-6.2s0-.06,0-.08,0-.22-.06-.34-.08-.53-.13-.79a.17.17,0,0,1,0-.07,19,19,0,0,0-1.89-5.08l-.18-.33c-.06-.1-.11-.2-.17-.29l-.3-.49L530,266.49s-4.65-2.17,2.16,11.88c.12.25.24.51.37.77,0,0-5.41.74-5.85,2.84A12.82,12.82,0,0,0,526.84,288.17Z" transform="translate(-29.54 -65.06)"/><path class="cls-9" d="M460.35,350h0a7.22,7.22,0,0,0,.92-9.42l-29.68-41.84-5.34,9.42,22.84,40.17A7.23,7.23,0,0,0,460.35,350Z" transform="translate(-29.54 -65.06)"/><path class="cls-11" d="M422.44,310.43q.66-11.31,4.83-17.85a59.27,59.27,0,0,1,11.4-12.82,66.84,66.84,0,0,0,9.55-9.07,16.55,16.55,0,0,0,3.41-9.76,11,11,0,0,0-3.18-8.69,11.72,11.72,0,0,0-7.77-3.81q-6.68-.39-10.87,3.66a28.55,28.55,0,0,0-2.69,3,11.12,11.12,0,0,1-14.1,3h0a11.1,11.1,0,0,1-3.56-16.43L410,241a40.7,40.7,0,0,1,13.52-10.8q8.69-4.56,20.68-3.86,15.59.91,24.8,9.36t8.27,24.54q-.66,11.13-4.54,17.26a44.61,44.61,0,0,1-8.22,9.91q-4.35,3.78-5.62,4.91a45.3,45.3,0,0,0-9,10.64q-3.24,5.49-3.76,14.39l-.21,3.59-24-1.4Zm-.56,42a11,11,0,0,1-3.43-9,11.48,11.48,0,0,1,4.55-8.67,14.47,14.47,0,0,1,10.23-3,13.85,13.85,0,0,1,9.63,4.17,11.69,11.69,0,0,1,3.33,9.13,11.23,11.23,0,0,1-4.28,8.6q-4,3.12-10.13,2.76A15.08,15.08,0,0,1,421.88,352.4Z" transform="translate(-29.54 -65.06)"/><path class="cls-5" d="M522,319.42c-3.07-6.2-2-15.87-4.4-19.6l-8.67-1a2.71,2.71,0,0,1-2.25-2.67v-.77H492.53v1.74a2.42,2.42,0,0,1-1.3,2.14s-10,1.37-11.94,2l.75,7.47a27.31,27.31,0,0,1-1.39,11.54,22.54,22.54,0,0,0-1.26,7.47,22.84,22.84,0,0,0,1.73,8.76l3.64,8.63.55,1.31a17.26,17.26,0,0,1,1.23,5.41,16.46,16.46,0,0,1-1.37,7.58L480,366.93c4.42,2.71,14.14,5,35.62-.13-1.63-4.42-2.76-7.61-2.8-8-.06-.68-.08-1.36-.08-2a11.51,11.51,0,0,1,.55-3.89l2.88-5.57,3.46-6.75C523,334.09,525.15,325.77,522,319.42Z" transform="translate(-29.54 -65.06)"/><path class="cls-10" d="M514.12,251.51c-1.75-3.12-8-6.37-11.29-6.66-5.79-.52-13.36,1.16-17.38,5.58-8.11,8.91-2.67,20.09-2.46,20.09,0,0,1.44,3.54,3.91,3.34,2.29-.17,2.12-4.59,2.16-6.31,2.8,5.12,8.38-2.73,8.7-6.17-.07,2.73,2.83,4.46,4.88,5.35,2.3,1,4.34-.1,6.55,0-.89,2.19.19,6.22,1.74,7.83,2.26,2.33,4.51.43,4.93-2.28C516.67,267.06,519.77,261.61,514.12,251.51Z" transform="translate(-29.54 -65.06)"/><path class="cls-9" d="M419.59,300c-.83-2.4,1.91-3.66,2.13-3.69a2.11,2.11,0,0,1-.84-2.32,1.41,1.41,0,0,1,1.85-1.07c-.17-.13-1.44-1.09-.31-3s2.79-1.31,2.79-1.31a4.19,4.19,0,0,1,2.35-3c2.19-1.21,4.21,1,4.21,1l-2.23,2.73,5.44,1.39s2,.55,1.23,1.93c-.36.67-1.72.54-1.72.54l-4.44-.59,4.63,1.77h0c.65.46,1.41,1.2,1.19,2.06-.35,1.38-2,1-2.33.95a1.42,1.42,0,0,1,.92,2.1c-.68,1.69-3.44.62-3.72.51a1.53,1.53,0,0,1,.6,2.27c-.9,1.52-7.54-1.27-7.54-1.27l-.58,2.73A7,7,0,0,1,419.59,300Z" transform="translate(-29.54 -65.06)"/><path class="cls-12" d="M212.19,180.55l-3.7,19.29-.74,3.85a2.31,2.31,0,0,1-4.09,1l-17.31-22-.11-24.24Z" transform="translate(-29.54 -65.06)"/><path class="cls-6" d="M228.35,196.71l-1,9.7a4.17,4.17,0,0,1-6.76,2.84l-12.11-9.41,3.7-19.29L227,193.15A4.24,4.24,0,0,1,228.35,196.71Z" transform="translate(-29.54 -65.06)"/><path class="cls-6" d="M173.61,161.22l3-23.56L188,146.78c-1.3,5.84.28,15.66.28,15.66Z" transform="translate(-29.54 -65.06)"/><path class="cls-9" d="M180,149.08c2.7,2.72,6.51,5.35,10.55,4.81,6.42-.86,11.57-6.36,13.48-12.8a.41.41,0,0,0,.19,0c.79-.09,1.86-.3,2-1a3.75,3.75,0,0,0-.28-1.43c-.19-.66-.4-1.32-.63-2a16.63,16.63,0,0,1-.57-4.7c-.08-1.43-.2-2.86-.37-4.29a31.74,31.74,0,0,0-3.16-11.47,12.36,12.36,0,0,0-5.4-5.4,14.16,14.16,0,0,0-6.8-1.17c-4.19.19-7.65,3.78-10,6.92a33,33,0,0,0-5.68,11.47C171.28,135.86,174.48,143.56,180,149.08Z" transform="translate(-29.54 -65.06)"/><path class="cls-10" d="M199.72,134.9a1.41,1.41,0,1,0,1.54-1.28A1.42,1.42,0,0,0,199.72,134.9Z" transform="translate(-29.54 -65.06)"/><path class="cls-10" d="M198.27,132.15l0,0a.42.42,0,0,1-.13-.58,3.48,3.48,0,0,1,4.76-1.3.42.42,0,0,1-.42.73,2.67,2.67,0,0,0-3.63,1A.43.43,0,0,1,198.27,132.15Z" transform="translate(-29.54 -65.06)"/><path class="cls-10" d="M200.9,143.81v0a.42.42,0,0,1-.46.38,3.48,3.48,0,0,1-3.32-3.65.41.41,0,0,1,.44-.39.4.4,0,0,1,.4.44,2.68,2.68,0,0,0,2.57,2.76A.41.41,0,0,1,200.9,143.81Z" transform="translate(-29.54 -65.06)"/><path d="M241.52,412.13l-12.68-57.38L207,277.28,198.58,236H163.41l-18.35,97.28-32.94,75.37,6.26,4.22,32-49.08c4.06-6.22,6.68-9.95,9.76-16.94h0l.1-.28c1.4-3.18,2.89-7,4.66-12.09h0l14.57-37.8,26.31,45.91a194.38,194.38,0,0,1,14.91,32.7l13.37,38.34Z" transform="translate(-29.54 -65.06)"/><path class="cls-8" d="M209.61,276.88s-2.05.35-5.49.82c-11.55,1.52-31.7,3.75-48.32-1.38h0a400,400,0,0,0,3.65-86.58,60,60,0,0,1-.06-11.15c1.4-8.19,7.86-17.53,10.06-19.44a28.31,28.31,0,0,0,3.23-3.47c1-1.25,1.75-2.27,1.75-2.27s11.18,3.5,16.8,10a42.74,42.74,0,0,1,3.78,5.45c1.37,2.27,2.8,4.86,4.13,7.43A50,50,0,0,1,204.49,205l-.19,1.74c-.23,2-1.69,21.45-1.69,21.45Z" transform="translate(-29.54 -65.06)"/><path class="cls-13" d="M130.34,422.41l-7.61-2-4-8.05-1.17-.55c-1.92-1.25-3.71-2.43-5.25-3.46l-.07.23c-7.45,4.45-4.63,8.93,4.69,16.78,1.48,1.24,9.09,2.07,13.38,1.25h.08A2.15,2.15,0,0,0,130.34,422.41Z" transform="translate(-29.54 -65.06)"/><path class="cls-13" d="M234,413.36c-1.3,11.18,7.67,9.28,27.59,4.2,2.76-.73,4-4.13-1.12-4.41l-19.26-2.26C238.55,411.7,234,413.36,234,413.36Z" transform="translate(-29.54 -65.06)"/><path class="cls-5" d="M212.23,117.23c2.08-2.4-.41-10.58-4.35-7.77.11-2.7-3.6-4.13-6.1-4.61-2.28-.44-2.7.49-4.31,1.54.62-3.17-5.05-3.83-7.47-4a10.75,10.75,0,0,0-5.93,1.07c-.8.46-2.32,1.65-1.65,2.65-4.22.46-8.2,1.64-10.86,5-2,2.51-3.18,5.78-.68,8.15-2.11,1.27-4.18,2.87-5.13,5.14-1.21,2.9.41,4.43,2.67,6.09a6.34,6.34,0,0,0-2.33,6.72c.42,1.54,3,4.47,5,3.79-1.31,1.56.65,4.51,2,5.48a4.77,4.77,0,0,0,2.73.68c.77,0,1.78-.66,2.33-.59.12,0,.69.62,1.11.71a2.1,2.1,0,0,0,1.49-.23A4.38,4.38,0,0,0,183,145a14.08,14.08,0,0,0,1.36-4.67c-3.44.47-3.55-5.94-2.35-7.58,2.2-3,6.7-2.26,7.2,1.39,1.76-.37,3-2.42,4.21-3.74l.08-.08c.14-.14.27-.28.41-.4l-.09,0a10.23,10.23,0,0,0,1-2.7c2.93.75,6.33.21,6.9-3.07-.29,2.19,2.54,2.54,4.22,2.09a2.6,2.6,0,0,0,2.1-2.62c.73,1.18,3.59,1.18,4.73.53C215.48,122.59,214.67,118.77,212.23,117.23Z" transform="translate(-29.54 -65.06)"/><path class="cls-6" d="M192.07,148.81c.35-1.42,6.37,1.5,11,2.31a16.08,16.08,0,0,1,6.5,2.59c2.73,1.92,4.32,4.37,5.33,10h0l17,41a5.75,5.75,0,0,1,.2,3.88h0a5.76,5.76,0,0,1-8.39,3.31h0a12.65,12.65,0,0,1-6-8.17l-5.42-24.1h0l-3.5-13.29c-.52,0-4,.88-4.76-3.93,0,0-3.7,1.53-4.57-1.13a2.21,2.21,0,0,1-1.3-2,2.16,2.16,0,0,1-.1-2.64l3.55-2.94S191.73,152,192.07,148.81Z" transform="translate(-29.54 -65.06)"/><path class="cls-13" d="M224,192.7q2.06-10.86,6.9-16.68a57.92,57.92,0,0,1,12.63-11,66,66,0,0,0,10.38-7.59,16.17,16.17,0,0,0,4.51-9,10.68,10.68,0,0,0-2-8.81,11.45,11.45,0,0,0-7-4.65,13.43,13.43,0,0,0-11,2.19,29.18,29.18,0,0,0-3,2.59,10.86,10.86,0,0,1-14,1.17h0a10.83,10.83,0,0,1-1.41-16.35l.63-.64A39.73,39.73,0,0,1,235,115.1q9-3.33,20.5-1.16,15,2.82,22.85,12.14t5,24.79q-2,10.71-6.53,16.16a44.15,44.15,0,0,1-9.2,8.57l-6,4.06a44.17,44.17,0,0,0-10.08,9.18q-3.83,4.91-5.43,13.47l-.66,3.45-23-4.34Zm-5.76,40.58a10.72,10.72,0,0,1-2.19-9.19,11.2,11.2,0,0,1,5.48-7.83,14.16,14.16,0,0,1,10.28-1.64,13.55,13.55,0,0,1,8.81,5.24,11.46,11.46,0,0,1,2.09,9.26,11,11,0,0,1-5.22,7.79q-4.22,2.53-10.15,1.41A14.69,14.69,0,0,1,218.21,233.28Z" transform="translate(-29.54 -65.06)"/><path class="cls-9" d="M246.56,182.63c-.41-.25-1.63-.14-5.28,2.3a6.82,6.82,0,0,1-.64.39L236,187.77c.85-.54,6.28-4,8.94-6.58a4.86,4.86,0,0,0,1.48-2.09s-.05-1.87-1.85-.38l-5.92,3.39h0l-4,2.28c.26-.18,1.24-.88,2.47-1.81,2.86-2.16,7-5.56,6.34-6.47,0,0-.63-1.15-4.26,1.88,0,0-7.43,6.1-9.45,2.68a15.4,15.4,0,0,1-.84-1.87c-2.81,2.91-5.23,8.53-5.37,9a0,0,0,0,0,0,0l-35.65,17.91-3.72-31.09a7.86,7.86,0,1,0-15.56,2.17l6.19,38.8a9.31,9.31,0,0,0,14.6,6.12l34.85-24.84.68-.24h0c3.24-.45,14.2-2.22,17.8-6.61a7.62,7.62,0,0,0,1.31-2.51c0-.32-.12-.76-.56-.45-2.6,1.71-5,3.16-6.45,3.1.73-.43,7.36-4,9.14-6.07h0a2.41,2.41,0,0,0,.59-.94v0a.53.53,0,0,0,0-.12A.41.41,0,0,0,246.56,182.63Z" transform="translate(-29.54 -65.06)"/><path class="cls-12" d="M182.82,168l10.43,30.64a3.17,3.17,0,0,1-2.44,4.15l-.47.09-19.12,3.49-.84.15a3.2,3.2,0,0,1-3.65-2.32c-5.28-19.24-3.46-31.79-3-34.07,0,0,0,0,0-.07.3-3.47,3.78-8,6.25-9.09C175.81,158.43,180.84,160,182.82,168Z" transform="translate(-29.54 -65.06)"/><path class="cls-9" d="M350.18,158.58a8,8,0,0,1,7.72,5.91l8.54,30.91,33.35-23.62s1.1-8.57,4.17-9.36c0,0,22.62,5.35-2.08,18.46l.82-.8h0l-32.28,31.29a9.53,9.53,0,0,1-15.71-4l-12.24-38.34A8.05,8.05,0,0,1,350.18,158.58Z" transform="translate(-29.54 -65.06)"/><path class="cls-14" d="M355.56,158l15.26,29.42A3.25,3.25,0,0,1,369,192l-.47.16-18.81,6.47-.84.29a3.28,3.28,0,0,1-4.05-1.79c-8.3-18.67-8.38-31.66-8.31-34a.08.08,0,0,1,0-.07c-.23-3.56,2.6-8.71,4.93-10.17C347,149.34,352.31,150.14,355.56,158Z" transform="translate(-29.54 -65.06)"/><path class="cls-8" d="M352.82,223.08l-41.48-1.14L301,251.59c-8.69,33.66,8.14,167,11.13,166l-1.24,1,.06,0c2.56.1,7.1.46,7.1.46.1.26.19.52.26.76L329.78,272.3H334l17,145.8a.17.17,0,0,1,0-.1s4.52-.57,7.07-.79l-.41-.31s4.32-46.43,5.85-90.8C365.92,256.64,352.82,223.08,352.82,223.08Z" transform="translate(-29.54 -65.06)"/><path class="cls-10" d="M375.44,428.23c-19.61.48-28.37.31-24.87-10.13a.45.45,0,0,1,0-.11s4.64-.57,7.26-.78l17.47,6.5C380,425.13,378.17,428.15,375.44,428.23Z" transform="translate(-29.54 -65.06)"/><path class="cls-10" d="M294.35,430.42c-2.67,0-4.6-2.9-.1-4.52l16.64-7.24,0,0,.06,0c2.56.1,7.1.46,7.1.46.1.26.19.52.26.76C321.59,429.49,313,430,294.35,430.42Z" transform="translate(-29.54 -65.06)"/><path class="cls-5" d="M362.57,264.7s-3-20.67-5.73-35.2A98.84,98.84,0,0,1,355.56,202c.92-10,.94-26.68.8-38.39A15.39,15.39,0,0,0,343,148.57l-2.41-.32c-.93-.19-1.86-.35-2.8-.45a46.94,46.94,0,0,0-18.28,1.75,57,57,0,0,0-9.82,3.75l-.54,2a85.07,85.07,0,0,0-2.26,34h0A120.49,120.49,0,0,1,303,240c-2.69,9.07-5.11,18.73-5.32,24.75Z" transform="translate(-29.54 -65.06)"/><path class="cls-6" d="M320.47,135.14l1.88,13.75a2.69,2.69,0,0,0,2.66,2.33h6.53a2.69,2.69,0,0,0,2.63-3.27l-2-9.09Z" transform="translate(-29.54 -65.06)"/><path class="cls-9" d="M310.06,134c-1.69-2.52-2.33-6.46-.1-7.54a4.11,4.11,0,0,1,2.48-.2c-1.28-8.54,1.21-19.54,6.78-22.23,7.29-3.53,15.23-2.31,23.83,16.78,3.4,7.55,1.27,17.68-5.64,21.8-5.19,3.1-14-.41-19.42-5.55C315.27,137.3,312.2,137.21,310.06,134Z" transform="translate(-29.54 -65.06)"/><path class="cls-10" d="M326.45,124.53a1.48,1.48,0,1,0,.91-2A1.56,1.56,0,0,0,326.45,124.53Z" transform="translate(-29.54 -65.06)"/><path class="cls-10" d="M336.05,121.26a1.48,1.48,0,1,0,2.81-.89,1.48,1.48,0,1,0-2.81.89Z" transform="translate(-29.54 -65.06)"/><path class="cls-10" d="M322.1,122.7a.5.5,0,0,0,.36-.4,3.15,3.15,0,0,1,3.5-2.83.52.52,0,0,0,.56-.44.51.51,0,0,0-.44-.56,4.14,4.14,0,0,0-4.61,3.66.51.51,0,0,0,.41.58A.55.55,0,0,0,322.1,122.7Z" transform="translate(-29.54 -65.06)"/><path class="cls-10" d="M334.5,132.11A.51.51,0,0,0,334,132a3.14,3.14,0,0,1-4.12-1.81.5.5,0,0,0-.65-.29.49.49,0,0,0-.29.64,4.14,4.14,0,0,0,5.36,2.42.51.51,0,0,0,.33-.63A.42.42,0,0,0,334.5,132.11Z" transform="translate(-29.54 -65.06)"/><path class="cls-10" d="M334.3,116.27a.41.41,0,0,0,.45,0,2.66,2.66,0,0,1,3.78.12.44.44,0,0,0,.6,0,.43.43,0,0,0,0-.6,3.47,3.47,0,0,0-4.93-.2.42.42,0,0,0-.06.59A.36.36,0,0,0,334.3,116.27Z" transform="translate(-29.54 -65.06)"/><path class="cls-10" d="M337.94,128.45a1.62,1.62,0,0,0,.61-.74c.4-1-.16-2.17-1.49-3.22l-4-3.8a.37.37,0,0,0-.54,0,.39.39,0,0,0,0,.55l4,3.82c1.26,1,1.48,1.86,1.28,2.34s-.87.75-1.69.65a.42.42,0,0,0-.46.33.37.37,0,0,0,.3.43A2.84,2.84,0,0,0,337.94,128.45Z" transform="translate(-29.54 -65.06)"/><path class="cls-10" d="M339.37,106.63C330.5,93.55,317,101.06,317,101.06c-13.88,9.78-7.17,23-7.17,23,5.24,9.38,10.69,9.09,10.69,9.09-6.49-5.42-.45-17.62-.45-17.62.8,3.12-.57,8.18-.57,8.18,5.92-1.67,8.4-9.6,8.4-9.6l1.49,3.75c4.11-2.72,4.91-4.92,4.84-6.31l.7,1.88a9.44,9.44,0,0,0,2-3.2l5.64,9.45C344,113,339.37,106.63,339.37,106.63Z" transform="translate(-29.54 -65.06)"/><path class="cls-8" d="M380.13,179.61q2.1-11.12,7.06-17.08a59.56,59.56,0,0,1,12.94-11.27,66.38,66.38,0,0,0,10.63-7.77,16.73,16.73,0,0,0,4.63-9.25,11,11,0,0,0-2.06-9,11.66,11.66,0,0,0-7.22-4.77q-6.57-1.23-11.24,2.25a28.32,28.32,0,0,0-3.05,2.65,11.13,11.13,0,0,1-14.38,1.2h0A11.1,11.1,0,0,1,376,109.79c.21-.22.43-.44.65-.65a40.53,40.53,0,0,1,14.78-9q9.19-3.42,21-1.2,15.35,2.9,23.41,12.44t5.08,25.39q-2.07,11-6.7,16.55a45,45,0,0,1-9.42,8.78c-3.2,2.14-5.26,3.52-6.19,4.16a45.25,45.25,0,0,0-10.33,9.4q-3.91,5-5.56,13.79l-.67,3.54-23.6-4.44Zm-5.91,41.57a11,11,0,0,1-2.24-9.41,11.49,11.49,0,0,1,5.61-8,14.49,14.49,0,0,1,10.53-1.69,13.92,13.92,0,0,1,9,5.37,11.72,11.72,0,0,1,2.14,9.48,11.23,11.23,0,0,1-5.34,8q-4.33,2.6-10.4,1.45A15.14,15.14,0,0,1,374.22,221.18Z" transform="translate(-29.54 -65.06)"/><path class="cls-9" d="M424.56,166.92a1.84,1.84,0,0,1-2.56,1.83,2.16,2.16,0,0,1-.15,2.47,1.42,1.42,0,0,1-2.12.26c.11.18.9,1.56-.91,2.91s-3.08.11-3.08.11a4.19,4.19,0,0,1-3.33,1.81,2.93,2.93,0,0,1-3.2-1.79l2.22-2.4-3.84-3.4a1.38,1.38,0,0,1,.07-2.1c.33-.29,1.35,0,1.35,0l3.86,2.29-3.57-3.46h0c-.42-.68-.82-1.65-.28-2.35.86-1.14,2.28-.14,2.51,0a1.43,1.43,0,0,1,0-2.3c1.28-1.28,3.4.79,3.61,1a1.55,1.55,0,0,1,.35-2.33c1.43-1,6.64,4.35,6.64,4.35l2.12-1.41A13.47,13.47,0,0,1,424.56,166.92Z" transform="translate(-29.54 -65.06)"/><path class="cls-14" d="M325.13,185.63l-13.65,13.61L308.75,202a2.27,2.27,0,0,1-3.87-1.45L300,175.7a23.08,23.08,0,0,1,6-20.45h0A8.25,8.25,0,0,1,320,159.38Z" transform="translate(-29.54 -65.06)"/><path class="cls-6" d="M326.72,208.73l-1.33,2.14a5.78,5.78,0,0,1-8.34-.91l-7.19-9.47,13.65-13.61,4.05,18.2A4.12,4.12,0,0,1,326.72,208.73Z" transform="translate(-29.54 -65.06)"/><path class="cls-9" d="M329.5,138.19c-.93-1.16-5.26,4.16-9.16,6.89a16.53,16.53,0,0,0-4.91,5.22c-1.7,3-2.11,5.93-.6,11.61h0l1.95,45.41a5.88,5.88,0,0,0,1.51,3.69h0a5.89,5.89,0,0,0,9.21-.57h0a12.94,12.94,0,0,0,2-10.18l-5.41-24.71h0l-2.51-13.85c.48-.21,4.11-.93,2.71-5.71,0,0,4.09-.18,3.75-3a2.28,2.28,0,0,0,.36-2.39,2.2,2.2,0,0,0-1.06-2.48l-4.56-1.2S331.19,141,329.5,138.19Z" transform="translate(-29.54 -65.06)"/></g></svg>